<svg width="345" height="132" viewBox="0 0 345 132" fill="none" xmlns="http://www.w3.org/2000/svg">
<path d="M325.281 0.994995C328.521 1.08499 331.761 1.30999 335.001 1.66999C338.241 1.93999 341.481 2.29999 344.721 2.74999V124.25C341.481 123.8 338.241 123.395 335.001 123.035C331.761 122.765 328.521 122.54 325.281 122.36V0.994995ZM286.671 20.705C278.661 21.425 270.651 21.74 262.641 21.65C254.721 21.56 246.801 20.885 238.881 19.625V2.74999C250.131 4.54999 261.336 5.17999 272.496 4.63999C283.656 4.09999 294.861 3.10999 306.111 1.66999V123.035C302.781 123.215 299.541 123.485 296.391 123.845C293.241 124.205 290.001 124.7 286.671 125.33V20.705Z" fill="#f1f0ed"/>
<path d="M119.624 106.7C126.374 108.05 133.034 108.725 139.604 108.725C146.264 108.815 152.969 108.59 159.719 108.05V51.89C163.049 51.62 166.334 51.305 169.574 50.945C172.814 50.495 176.054 50.045 179.294 49.595V106.295C187.844 105.485 196.349 104.9 204.809 104.54C213.269 104.27 221.774 104.99 230.324 106.7V124.25C224.204 122.99 218.039 122.27 211.829 122.09C205.709 122 199.544 122.18 193.334 122.63C187.214 123.08 181.049 123.62 174.839 124.25C168.719 124.97 162.599 125.51 156.479 125.87C150.359 126.32 144.194 126.455 137.984 126.275C131.864 126.185 125.744 125.51 119.624 124.25V106.7ZM204.134 17.735C197.654 17.735 191.129 18.095 184.559 18.815C178.079 19.445 171.599 20.075 165.119 20.705C158.639 21.335 152.159 21.74 145.679 21.92C139.199 22.1 132.674 21.65 126.104 20.57V3.69501C134.294 4.95501 142.439 5.36001 150.539 4.91001C158.639 4.37001 166.739 3.69501 174.839 2.88501C182.939 1.985 191.039 1.31 199.139 0.860003C207.239 0.320005 215.384 0.680006 223.574 1.94001V89.69C220.334 89.33 217.094 89.06 213.854 88.88C210.614 88.61 207.374 88.475 204.134 88.475V17.735Z" fill="#f1f0ed"/>
<path d="M0.770874 48.11C6.89087 49.37 13.0109 50.09 19.1309 50.27C25.3409 50.45 31.5059 50.315 37.6259 49.865C43.7459 49.415 49.8659 48.875 55.9859 48.245C62.1959 47.525 68.3609 46.94 74.4809 46.49C80.6909 46.04 86.8559 45.905 92.9759 46.085C99.0959 46.175 105.261 46.85 111.471 48.11V64.985C103.821 63.455 96.2159 62.735 88.6559 62.825C81.0959 62.915 73.4909 63.32 65.8409 64.04V69.845C72.3209 69.125 78.7559 68.72 85.1459 68.63C91.6259 68.45 98.1509 68.855 104.721 69.845V107.375C98.1509 106.295 91.6259 105.845 85.1459 106.025C78.6659 106.205 72.1859 106.61 65.7059 107.24C59.2259 107.96 52.7009 108.68 46.1309 109.4C39.6509 110.12 33.1709 110.48 26.6909 110.48V115.205C33.1709 115.205 39.6509 114.845 46.1309 114.125C52.7009 113.405 59.2259 112.685 65.7059 111.965C72.1859 111.335 78.6659 110.93 85.1459 110.75C91.6259 110.57 98.1509 111.02 104.721 112.1V128.57C96.5309 127.22 88.3859 126.815 80.2859 127.355C72.1859 127.895 64.0859 128.615 55.9859 129.515C47.8859 130.415 39.7859 131.135 31.6859 131.675C23.5859 132.215 15.4409 131.81 7.25087 130.46V92.66C13.8209 93.74 20.3459 94.235 26.8259 94.145C33.3059 93.965 39.7859 93.56 46.2659 92.93C52.7459 92.21 59.2259 91.49 65.7059 90.77C72.2759 90.05 78.8009 89.69 85.2809 89.69V85.235C78.8009 85.235 72.2759 85.595 65.7059 86.315C59.2259 87.035 52.7459 87.755 46.2659 88.475C39.7859 89.105 33.3059 89.51 26.8259 89.69C20.3459 89.78 13.8209 89.285 7.25087 88.205V71.735C13.8209 72.815 20.3459 73.31 26.8259 73.22C33.3059 73.04 39.7859 72.59 46.2659 71.87V66.065C38.6159 66.785 31.0109 67.19 23.4509 67.28C15.9809 67.37 8.42087 66.605 0.770874 64.985V48.11ZM7.25087 3.55999C15.3509 4.81999 23.4509 5.22499 31.5509 4.77499C39.7409 4.32499 47.8859 3.69499 55.9859 2.88499C64.0859 2.07499 72.1859 1.44499 80.2859 0.994989C88.3859 0.454985 96.5309 0.769984 104.721 1.93999V42.575C96.6209 41.315 88.4759 40.955 80.2859 41.495C72.1859 41.945 64.0859 42.62 55.9859 43.52C47.8859 44.33 39.7409 45.005 31.5509 45.545C23.4509 45.995 15.3509 45.59 7.25087 44.33V3.55999ZM26.2859 27.995C31.2359 28.175 36.1859 28.04 41.1359 27.59C46.0859 27.05 51.0359 26.51 55.9859 25.97C60.9359 25.34 65.8409 24.8 70.7009 24.35C75.6509 23.9 80.6459 23.765 85.6859 23.945V17.33C80.6459 17.15 75.6509 17.285 70.7009 17.735C65.8409 18.185 60.9359 18.725 55.9859 19.355C51.0359 19.895 46.0859 20.435 41.1359 20.975C36.1859 21.425 31.2359 21.56 26.2859 21.38V27.995Z" fill="#f1f0ed"/>
</svg>
