<svg width="824" height="234" viewBox="0 0 824 234" fill="none" xmlns="http://www.w3.org/2000/svg">
<path d="M816.366 144.8C818.966 148.133 820.866 151.783 822.066 155.75C823.266 159.683 823.866 163.967 823.866 168.6C823.866 173.233 823.232 177.567 821.966 181.6C820.732 185.6 818.816 189.35 816.216 192.85H811.466C813.699 188.95 815.349 185.033 816.416 181.1C817.516 177.133 818.066 172.917 818.066 168.45C818.066 164.217 817.582 160.183 816.616 156.35C815.649 152.517 813.999 148.667 811.666 144.8H816.366Z" fill="#f1f0ed"/>
<path d="M787.763 184.2C787.763 185.933 788.18 187.3 789.013 188.3C789.88 189.333 791.313 189.85 793.313 189.85C796.113 189.85 798.163 189.317 799.463 188.25C800.763 187.183 801.413 185.767 801.413 184C801.413 182.1 800.68 180.683 799.213 179.75C797.78 178.783 795.613 177.967 792.713 177.3C789.113 176.433 786.48 175.2 784.813 173.6C783.146 171.967 782.313 169.75 782.313 166.95C782.313 165.25 782.68 163.8 783.413 162.6C784.146 161.4 785.13 160.433 786.363 159.7C787.63 158.933 789.08 158.383 790.713 158.05C792.346 157.683 794.046 157.5 795.813 157.5C799.146 157.5 801.73 158.283 803.563 159.85C805.396 161.417 806.313 163.617 806.313 166.45V167.9C805.98 167.867 805.563 167.833 805.063 167.8C804.563 167.733 804.046 167.7 803.513 167.7C802.98 167.667 802.463 167.65 801.963 167.65C801.463 167.65 801.046 167.667 800.713 167.7V166.6C800.713 163.533 798.963 162 795.463 162C790.43 162 787.913 163.733 787.913 167.2C787.913 168.2 788.063 169.017 788.363 169.65C788.696 170.283 789.213 170.833 789.913 171.3C790.613 171.767 791.53 172.2 792.663 172.6C793.83 172.967 795.246 173.4 796.913 173.9C798.78 174.467 800.363 175.083 801.663 175.75C802.963 176.383 804.013 177.1 804.813 177.9C805.613 178.7 806.196 179.583 806.563 180.55C806.93 181.517 807.113 182.583 807.113 183.75C807.113 185.517 806.763 187.05 806.063 188.35C805.396 189.683 804.43 190.767 803.163 191.6C801.93 192.467 800.43 193.1 798.663 193.5C796.896 193.933 794.913 194.15 792.713 194.15C790.98 194.15 789.446 193.9 788.113 193.4C786.78 192.933 785.663 192.267 784.763 191.4C783.863 190.533 783.18 189.5 782.713 188.3C782.246 187.1 782.013 185.767 782.013 184.3V182.5C782.813 182.633 783.763 182.733 784.863 182.8C785.996 182.867 786.963 182.867 787.763 182.8V184.2Z" fill="#f1f0ed"/>
<path d="M778.527 177.2C776.76 176.867 775.01 176.717 773.277 176.75C771.544 176.75 769.794 176.817 768.027 176.95C766.294 177.083 764.544 177.233 762.777 177.4C761.044 177.533 759.31 177.567 757.577 177.5C757.61 179.633 757.727 181.467 757.927 183C758.16 184.533 758.527 185.783 759.027 186.75C759.527 187.75 760.177 188.483 760.977 188.95C761.81 189.417 762.844 189.65 764.077 189.65C766.677 189.683 768.71 189.067 770.177 187.8C771.644 186.533 772.594 184.567 773.027 181.9C774.86 181.867 776.694 181.967 778.527 182.2C777.96 186.167 776.41 189.133 773.877 191.1C771.344 193.067 768.077 194.05 764.077 194.05C761.377 194.05 759.21 193.517 757.577 192.45C755.977 191.417 754.76 190.033 753.927 188.3C753.094 186.567 752.544 184.617 752.277 182.45C752.044 180.25 751.927 178.017 751.927 175.75C751.96 173.25 752.177 170.9 752.577 168.7C753.01 166.5 753.76 164.583 754.827 162.95C755.927 161.283 757.394 159.967 759.227 159C761.094 158.033 763.477 157.55 766.377 157.55C769.077 157.55 771.194 158.05 772.727 159.05C774.294 160.05 775.477 161.433 776.277 163.2C777.11 164.967 777.66 167.05 777.927 169.45C778.227 171.817 778.427 174.4 778.527 177.2ZM766.377 162C764.844 162 763.544 162.233 762.477 162.7C761.41 163.133 760.527 163.817 759.827 164.75C759.127 165.683 758.594 166.85 758.227 168.25C757.894 169.617 757.677 171.233 757.577 173.1C758.844 173.333 760.11 173.433 761.377 173.4C762.677 173.367 763.96 173.283 765.227 173.15C766.494 173.017 767.76 172.9 769.027 172.8C770.327 172.667 771.61 172.617 772.877 172.65C772.81 170.883 772.66 169.35 772.427 168.05C772.194 166.717 771.827 165.6 771.327 164.7C770.827 163.8 770.177 163.133 769.377 162.7C768.577 162.233 767.577 162 766.377 162Z" fill="#f1f0ed"/>
<path d="M726.741 175.05C726.774 177.783 726.908 180.083 727.141 181.95C727.374 183.783 727.741 185.267 728.241 186.4C728.741 187.533 729.374 188.333 730.141 188.8C730.941 189.3 731.891 189.55 732.991 189.55C735.291 189.55 737.174 188.9 738.641 187.6C740.108 186.333 741.024 184.233 741.391 181.3C742.358 181.333 743.274 181.383 744.141 181.45C745.041 181.483 745.974 181.533 746.941 181.6C746.308 185.9 744.774 189.05 742.341 191.05C739.941 193.05 736.824 194.05 732.991 194.05C730.691 194.05 728.774 193.65 727.241 192.85C725.708 192.05 724.474 190.85 723.541 189.25C722.608 187.65 721.941 185.65 721.541 183.25C721.174 180.817 720.991 177.983 720.991 174.75C721.024 168.817 722.224 164.467 724.591 161.7C726.958 158.933 730.591 157.55 735.491 157.55C737.424 157.55 739.058 157.833 740.391 158.4C741.758 158.933 742.891 159.717 743.791 160.75C744.691 161.783 745.391 163.05 745.891 164.55C746.391 166.05 746.741 167.75 746.941 169.65C745.974 169.583 745.041 169.533 744.141 169.5C743.241 169.433 742.308 169.4 741.341 169.4C741.241 168.333 741.074 167.35 740.841 166.45C740.608 165.55 740.258 164.783 739.791 164.15C739.358 163.483 738.791 162.983 738.091 162.65C737.391 162.283 736.524 162.1 735.491 162.1C733.991 162.1 732.691 162.3 731.591 162.7C730.524 163.067 729.624 163.75 728.891 164.75C728.191 165.717 727.658 167.033 727.291 168.7C726.958 170.367 726.774 172.483 726.741 175.05Z" fill="#f1f0ed"/>
<path d="M698.038 184.2C698.038 185.933 698.455 187.3 699.288 188.3C700.155 189.333 701.588 189.85 703.588 189.85C706.388 189.85 708.438 189.317 709.738 188.25C711.038 187.183 711.688 185.767 711.688 184C711.688 182.1 710.955 180.683 709.488 179.75C708.055 178.783 705.888 177.967 702.988 177.3C699.388 176.433 696.755 175.2 695.088 173.6C693.422 171.967 692.588 169.75 692.588 166.95C692.588 165.25 692.955 163.8 693.688 162.6C694.422 161.4 695.405 160.433 696.638 159.7C697.905 158.933 699.355 158.383 700.988 158.05C702.622 157.683 704.322 157.5 706.088 157.5C709.422 157.5 712.005 158.283 713.838 159.85C715.672 161.417 716.588 163.617 716.588 166.45V167.9C716.255 167.867 715.838 167.833 715.338 167.8C714.838 167.733 714.322 167.7 713.788 167.7C713.255 167.667 712.738 167.65 712.238 167.65C711.738 167.65 711.322 167.667 710.988 167.7V166.6C710.988 163.533 709.238 162 705.738 162C700.705 162 698.188 163.733 698.188 167.2C698.188 168.2 698.338 169.017 698.638 169.65C698.972 170.283 699.488 170.833 700.188 171.3C700.888 171.767 701.805 172.2 702.938 172.6C704.105 172.967 705.522 173.4 707.188 173.9C709.055 174.467 710.638 175.083 711.938 175.75C713.238 176.383 714.288 177.1 715.088 177.9C715.888 178.7 716.472 179.583 716.838 180.55C717.205 181.517 717.388 182.583 717.388 183.75C717.388 185.517 717.038 187.05 716.338 188.35C715.672 189.683 714.705 190.767 713.438 191.6C712.205 192.467 710.705 193.1 708.938 193.5C707.172 193.933 705.188 194.15 702.988 194.15C701.255 194.15 699.722 193.9 698.388 193.4C697.055 192.933 695.938 192.267 695.038 191.4C694.138 190.533 693.455 189.5 692.988 188.3C692.522 187.1 692.288 185.767 692.288 184.3V182.5C693.088 182.633 694.038 182.733 695.138 182.8C696.272 182.867 697.238 182.867 698.038 182.8V184.2Z" fill="#f1f0ed"/>
<path d="M687.466 193.5C686.5 193.3 685.533 193.15 684.566 193.05C683.6 192.983 682.633 192.95 681.666 192.95V157.05C682.633 157.05 683.6 157.1 684.566 157.2C685.533 157.267 686.5 157.4 687.466 157.6V193.5ZM687.466 153.45C686.5 153.25 685.533 153.117 684.566 153.05C683.6 152.95 682.633 152.9 681.666 152.9V146.5C682.633 146.5 683.6 146.55 684.566 146.65C685.533 146.717 686.5 146.85 687.466 147.05V153.45Z" fill="#f1f0ed"/>
<path d="M648.777 146.75C649.911 146.917 651.027 147.033 652.127 147.1C653.261 147.167 654.394 147.2 655.527 147.2C656.827 147.233 658.127 147.2 659.427 147.1C660.761 147 662.077 146.867 663.377 146.7C665.444 146.433 667.294 146.617 668.927 147.25C670.561 147.883 671.927 148.833 673.027 150.1C674.161 151.367 675.011 152.9 675.577 154.7C676.177 156.467 676.477 158.35 676.477 160.35C676.444 164.617 675.327 167.85 673.127 170.05C670.961 172.217 667.811 173.533 663.677 174C662.177 174.167 660.644 174.283 659.077 174.35C657.544 174.417 656.027 174.433 654.527 174.4V193.45C653.561 193.45 652.594 193.417 651.627 193.35C650.694 193.283 649.744 193.167 648.777 193V146.75ZM654.527 169.9C657.494 170 660.444 169.9 663.377 169.6C666.077 169.3 667.994 168.4 669.127 166.9C670.261 165.367 670.827 163.067 670.827 160C670.827 156.833 670.177 154.583 668.877 153.25C667.577 151.917 665.661 151.267 663.127 151.3C661.661 151.333 660.227 151.417 658.827 151.55C657.427 151.683 655.994 151.717 654.527 151.65V169.9Z" fill="#f1f0ed"/>
<path d="M642.231 144.8C639.898 148.667 638.248 152.517 637.281 156.35C636.315 160.183 635.831 164.217 635.831 168.45C635.831 172.917 636.365 177.133 637.431 181.1C638.531 185.033 640.198 188.95 642.431 192.85H637.681C635.081 189.35 633.148 185.6 631.881 181.6C630.648 177.567 630.031 173.233 630.031 168.6C630.031 163.967 630.631 159.683 631.831 155.75C633.031 151.783 634.931 148.133 637.531 144.8H642.231Z" fill="#f1f0ed"/>
<path d="M577.507 0.880005C583.267 1.04 589.028 1.44 594.788 2.08C600.547 2.56 606.307 3.19999 612.067 3.99999V220C606.307 219.2 600.547 218.48 594.788 217.84C589.028 217.36 583.267 216.96 577.507 216.64V0.880005ZM508.867 35.92C494.627 37.2 480.387 37.76 466.147 37.6C452.067 37.44 437.987 36.24 423.907 34V3.99999C443.907 7.2 463.827 8.32 483.667 7.35999C503.507 6.4 523.427 4.64 543.427 2.08V217.84C537.507 218.16 531.747 218.64 526.147 219.28C520.547 219.92 514.787 220.8 508.867 221.92V35.92Z" fill="#f1f0ed"/>
<path d="M211.894 188.8C223.894 191.2 235.734 192.4 247.414 192.4C259.254 192.56 271.174 192.16 283.174 191.2V91.36C289.094 90.88 294.934 90.32 300.694 89.68C306.454 88.88 312.214 88.08 317.974 87.28V188.08C333.174 186.64 348.294 185.6 363.334 184.96C378.374 184.48 393.494 185.76 408.694 188.8V220C397.814 217.76 386.854 216.48 375.814 216.16C364.934 216 353.974 216.32 342.934 217.12C332.054 217.92 321.094 218.88 310.054 220C299.174 221.28 288.294 222.24 277.414 222.88C266.534 223.68 255.574 223.92 244.534 223.6C233.654 223.44 222.774 222.24 211.894 220V188.8ZM362.134 30.64C350.614 30.64 339.014 31.28 327.334 32.56C315.814 33.68 304.294 34.8 292.774 35.92C281.254 37.04 269.734 37.76 258.214 38.08C246.694 38.4 235.094 37.6 223.414 35.68V5.68001C237.974 7.92001 252.454 8.64001 266.854 7.84001C281.254 6.88002 295.654 5.68002 310.054 4.24002C324.454 2.64001 338.854 1.44 353.254 0.640006C367.654 -0.319991 382.134 0.32001 396.694 2.56001V158.56C390.934 157.92 385.174 157.44 379.414 157.12C373.654 156.64 367.894 156.4 362.134 156.4V30.64Z" fill="#f1f0ed"/>
<path d="M0.599976 84.64C11.48 86.88 22.36 88.16 33.24 88.48C44.28 88.8 55.24 88.56 66.12 87.76C77 86.96 87.88 86 98.76 84.88C109.8 83.6 120.76 82.56 131.64 81.76C142.68 80.96 153.64 80.72 164.52 81.04C175.4 81.2 186.36 82.4 197.4 84.64V114.64C183.8 111.92 170.28 110.64 156.84 110.8C143.4 110.96 129.88 111.68 116.28 112.96V123.28C127.8 122 139.24 121.28 150.6 121.12C162.12 120.8 173.72 121.52 185.4 123.28V190C173.72 188.08 162.12 187.28 150.6 187.6C139.08 187.92 127.56 188.64 116.04 189.76C104.52 191.04 92.92 192.32 81.24 193.6C69.72 194.88 58.2 195.52 46.68 195.52V203.92C58.2 203.92 69.72 203.28 81.24 202C92.92 200.72 104.52 199.44 116.04 198.16C127.56 197.04 139.08 196.32 150.6 196C162.12 195.68 173.72 196.48 185.4 198.4V227.68C170.84 225.28 156.36 224.56 141.96 225.52C127.56 226.48 113.16 227.76 98.76 229.36C84.36 230.96 69.96 232.24 55.56 233.2C41.16 234.16 26.68 233.44 12.12 231.04V163.84C23.8 165.76 35.4 166.64 46.92 166.48C58.44 166.16 69.96 165.44 81.48 164.32C93 163.04 104.52 161.76 116.04 160.48C127.72 159.2 139.32 158.56 150.84 158.56V150.64C139.32 150.64 127.72 151.28 116.04 152.56C104.52 153.84 93 155.12 81.48 156.4C69.96 157.52 58.44 158.24 46.92 158.56C35.4 158.72 23.8 157.84 12.12 155.92V126.64C23.8 128.56 35.4 129.44 46.92 129.28C58.44 128.96 69.96 128.16 81.48 126.88V116.56C67.88 117.84 54.36 118.56 40.92 118.72C27.64 118.88 14.2 117.52 0.599976 114.64V84.64ZM12.12 5.44003C26.52 7.68003 40.92 8.40003 55.32 7.60003C69.88 6.80003 84.36 5.68004 98.76 4.24003C113.16 2.80003 127.56 1.68003 141.96 0.880035C156.36 -0.0799718 170.84 0.480026 185.4 2.56003V74.8C171 72.56 156.52 71.92 141.96 72.88C127.56 73.68 113.16 74.88 98.76 76.48C84.36 77.92 69.88 79.12 55.32 80.08C40.92 80.88 26.52 80.16 12.12 77.92V5.44003ZM45.96 48.88C54.76 49.2 63.56 48.96 72.36 48.16C81.16 47.2 89.96 46.24 98.76 45.28C107.56 44.16 116.28 43.2 124.92 42.4C133.72 41.6 142.6 41.36 151.56 41.68V29.92C142.6 29.6 133.72 29.84 124.92 30.64C116.28 31.44 107.56 32.4 98.76 33.52C89.96 34.48 81.16 35.44 72.36 36.4C63.56 37.2 54.76 37.44 45.96 37.12V48.88Z" fill="#f1f0ed"/>
</svg>
