<svg width="488" height="289" viewBox="0 0 488 289" fill="none" xmlns="http://www.w3.org/2000/svg">
<path d="M7.24 31.72C9.58667 31.8533 11.8667 31.84 14.08 31.68C16.32 31.52 18.5867 31.2533 20.88 30.88V36.8C17.4933 37.3067 14.1067 37.64 10.72 37.8C7.33333 37.96 3.93333 37.76 0.52 37.2V0.799998C1.61333 0.959999 2.72 1.09333 3.84 1.2C4.98667 1.28 6.12 1.33333 7.24 1.36V31.72ZM23.24 0.28C24.36 0.199999 25.4667 0.173332 26.56 0.199998C27.6533 0.199998 28.76 0.239999 29.88 0.319999V14.48C30.6533 14.5333 31.4133 14.6 32.16 14.68C32.9067 14.7333 33.6667 14.8133 34.44 14.92V21C33.6667 20.8933 32.9067 20.8 32.16 20.72C31.4133 20.64 30.6533 20.5733 29.88 20.52V36.72C28.76 36.64 27.6533 36.5867 26.56 36.56C25.4667 36.56 24.36 36.5867 23.24 36.64V0.28ZM66.8156 38.52C65.189 38.2533 63.5623 38.12 61.9356 38.12C60.309 38.12 58.6823 38.1733 57.0556 38.28C55.429 38.4133 53.8023 38.5867 52.1756 38.8C50.549 39.0133 48.9223 39.1733 47.2956 39.28C45.669 39.4133 44.0423 39.48 42.4156 39.48C40.789 39.48 39.1623 39.3467 37.5356 39.08V24.28C38.6556 24.4133 39.7623 24.52 40.8556 24.6C41.949 24.6533 43.0556 24.6667 44.1756 24.64V33.44C46.069 33.4133 47.949 33.28 49.8156 33.04C51.709 32.8267 53.589 32.6267 55.4556 32.44C57.349 32.2533 59.2423 32.1333 61.1356 32.08C63.029 32.0533 64.9223 32.2 66.8156 32.52V38.52ZM35.6156 16.88C38.389 17.44 41.149 17.6667 43.8956 17.56C46.669 17.4267 49.4423 17.2267 52.2156 16.96C54.989 16.6667 57.749 16.4533 60.4956 16.32C63.269 16.1867 66.0423 16.4 68.8156 16.96V22.88C66.9756 22.5067 65.1223 22.2933 63.2556 22.24C61.4156 22.1867 59.5756 22.2267 57.7356 22.36C55.8956 22.4667 54.0556 22.6267 52.2156 22.84C50.3756 23.0267 48.5356 23.1867 46.6956 23.32C44.8556 23.4533 43.0023 23.4933 41.1356 23.44C39.2956 23.3867 37.4556 23.1733 35.6156 22.8V16.88ZM66.8156 15.12C64.4156 14.7467 61.989 14.64 59.5356 14.8C57.0823 14.9333 54.629 15.1333 52.1756 15.4C49.7223 15.64 47.269 15.84 44.8156 16C42.3623 16.1333 39.9356 16.0133 37.5356 15.64V0.639997C38.0156 0.693332 38.5356 0.746665 39.0956 0.799998C39.6823 0.826666 40.269 0.853333 40.8556 0.879999C41.4423 0.906665 42.0156 0.933332 42.5756 0.959998C43.1623 0.986664 43.6956 0.999998 44.1756 0.999998V9.88C46.0956 9.88 47.989 9.78667 49.8556 9.6C51.749 9.38667 53.629 9.18667 55.4956 9C57.3623 8.81333 59.229 8.70667 61.0956 8.68C62.989 8.65333 64.8956 8.81333 66.8156 9.16V15.12ZM106.482 20.44C105.576 20.3867 104.709 20.3733 103.882 20.4C103.082 20.4 102.216 20.4267 101.282 20.48V28.12C101.282 29.7733 100.989 31.1867 100.402 32.36C99.8422 33.56 99.0689 34.5467 98.0822 35.32C97.1222 36.0933 95.9889 36.6667 94.6822 37.04C93.4022 37.4133 92.0289 37.6 90.5622 37.6C89.2289 37.6 87.9755 37.4533 86.8022 37.16C85.6555 36.8667 84.6422 36.4 83.7622 35.76C82.9089 35.1467 82.2289 34.36 81.7222 33.4C81.2155 32.4667 80.9622 31.3467 80.9622 30.04V9.28C80.9622 7.76 81.2555 6.44 81.8422 5.32C82.4555 4.2 83.2689 3.28 84.2822 2.56C85.2955 1.81333 86.4555 1.26667 87.7622 0.919999C89.0955 0.546665 90.4822 0.359999 91.9222 0.359999C94.8022 0.359999 97.0822 0.999998 98.7622 2.28C100.442 3.53333 101.282 5.36 101.282 7.76V14.44C102.216 14.3867 103.082 14.3467 103.882 14.32C104.709 14.2933 105.576 14.3067 106.482 14.36V0.319999C107.602 0.293333 108.709 0.333332 109.802 0.439998C110.896 0.519998 112.002 0.653332 113.122 0.84V37.28C112.002 37.0667 110.896 36.9067 109.802 36.8C108.709 36.72 107.602 36.6667 106.482 36.64V20.44ZM94.6422 9.48C94.6422 8.44 94.4289 7.64 94.0022 7.08C93.5755 6.52 92.7622 6.24 91.5622 6.24C90.0955 6.24 89.0555 6.62667 88.4422 7.4C87.8289 8.14667 87.5222 9.13333 87.5222 10.36V28.28C87.5222 29.48 87.7622 30.36 88.2422 30.92C88.7222 31.4533 89.4955 31.72 90.5622 31.72C92.0822 31.72 93.1355 31.3467 93.7222 30.6C94.3355 29.8267 94.6422 28.72 94.6422 27.28V9.48ZM141.698 0.319999C142.818 0.293333 143.924 0.333332 145.018 0.439998C146.111 0.519998 147.218 0.653332 148.338 0.84V37.28C147.218 37.0667 146.111 36.9067 145.018 36.8C143.924 36.72 142.818 36.6667 141.698 36.64V0.319999ZM123.298 31.52C125.644 31.6 127.924 31.5333 130.138 31.32C132.351 31.1333 134.604 30.8533 136.898 30.48V36.8C133.511 37.3067 130.124 37.64 126.738 37.8C123.378 37.96 119.991 37.76 116.578 37.2V0.759998C119.991 1.29333 123.378 1.48 126.738 1.32C130.124 1.16 133.511 0.853332 136.898 0.399998V6.6C134.604 6.92 132.338 7.17333 130.098 7.36C127.884 7.54667 125.618 7.57333 123.298 7.44V31.52ZM168.473 37.08C166.9 37.08 165.62 36.8133 164.633 36.28C163.673 35.7733 162.847 35.0133 162.153 34C161.62 35.04 160.793 35.8933 159.673 36.56C158.58 37.2267 157.207 37.5867 155.553 37.64C154.78 37.6667 154.033 37.64 153.313 37.56C152.593 37.5067 151.873 37.3733 151.153 37.16V31.24C151.687 31.3733 152.167 31.4533 152.593 31.48C153.02 31.5067 153.54 31.52 154.153 31.52C155.54 31.52 156.633 31.1067 157.433 30.28C158.26 29.4267 158.673 27.9733 158.673 25.92V0.959998C159.793 0.986664 160.9 0.946665 161.993 0.84C163.113 0.706665 164.233 0.519998 165.353 0.28V25.64C165.353 26.4667 165.407 27.2133 165.513 27.88C165.62 28.5467 165.82 29.1067 166.113 29.56C166.433 30.0133 166.86 30.3733 167.393 30.64C167.953 30.88 168.673 31 169.553 31C170.22 31 170.807 30.96 171.313 30.88C171.82 30.7733 172.38 30.6133 172.993 30.4V36.32C172.22 36.6133 171.46 36.8133 170.713 36.92C169.993 37.0267 169.247 37.08 168.473 37.08ZM176.913 20.44C175.713 20.3867 174.567 20.3733 173.473 20.4C172.407 20.4267 171.167 20.5067 169.753 20.64V14.6C171.14 14.4933 172.38 14.4267 173.473 14.4C174.567 14.3467 175.713 14.3333 176.913 14.36V0.319999C178.033 0.293333 179.14 0.333332 180.233 0.439998C181.327 0.519998 182.433 0.653332 183.553 0.84V37.28C182.433 37.0667 181.327 36.9067 180.233 36.8C179.14 36.72 178.033 36.6667 176.913 36.64V20.44ZM193.729 31.72C196.076 31.8533 198.356 31.84 200.569 31.68C202.809 31.52 205.076 31.2533 207.369 30.88V36.8C203.982 37.3067 200.596 37.64 197.209 37.8C193.822 37.96 190.422 37.76 187.009 37.2V0.799998C188.102 0.959999 189.209 1.09333 190.329 1.2C191.476 1.28 192.609 1.33333 193.729 1.36V31.72ZM209.729 0.28C210.849 0.199999 211.956 0.173332 213.049 0.199998C214.142 0.199998 215.249 0.239999 216.369 0.319999V14.48C217.142 14.5333 217.902 14.6 218.649 14.68C219.396 14.7333 220.156 14.8133 220.929 14.92V21C220.156 20.8933 219.396 20.8 218.649 20.72C217.902 20.64 217.142 20.5733 216.369 20.52V36.72C215.249 36.64 214.142 36.5867 213.049 36.56C211.956 36.56 210.849 36.5867 209.729 36.64V0.28ZM232.636 0.759998C236.049 1.34667 239.436 1.56 242.796 1.4C246.182 1.21333 249.569 0.879998 252.956 0.399998V22C249.569 22.5333 246.182 22.88 242.796 23.04C239.436 23.2 236.049 22.9867 232.636 22.4V0.759998ZM232.636 24C235.196 24.5333 237.729 24.7733 240.236 24.72C242.742 24.64 245.222 24.48 247.676 24.24C250.156 23.9733 252.582 23.7333 254.956 23.52C257.356 23.28 259.702 23.28 261.996 23.52V38.96C260.876 38.8267 259.769 38.7467 258.676 38.72C257.582 38.72 256.476 38.7467 255.356 38.8V29.48C253.462 29.64 251.569 29.84 249.676 30.08C247.809 30.2933 245.916 30.4667 243.996 30.6C242.102 30.7067 240.209 30.7333 238.316 30.68C236.422 30.6267 234.529 30.4 232.636 30V24ZM255.356 0.28C256.476 0.199999 257.582 0.173332 258.676 0.199998C259.769 0.199998 260.876 0.239999 261.996 0.319999V8.16C262.769 8.21333 263.529 8.28 264.276 8.36C265.022 8.41333 265.782 8.49333 266.556 8.6V14.68C265.782 14.5733 265.022 14.48 264.276 14.4C263.529 14.32 262.769 14.2533 261.996 14.2V21.88C260.876 21.8 259.769 21.76 258.676 21.76C257.582 21.7333 256.476 21.7467 255.356 21.8V0.28ZM238.956 16.92C240.156 17 241.422 17.0267 242.756 17C244.116 16.9467 245.396 16.8533 246.596 16.72V7.04C245.396 7.2 244.116 7.29333 242.756 7.32C241.422 7.34667 240.156 7.32 238.956 7.24V16.92ZM293.251 20.36H291.851V36.6C290.731 36.5733 289.665 36.5867 288.651 36.64C287.665 36.6933 286.611 36.8133 285.491 37V0.599998C286.611 0.466665 287.665 0.373332 288.651 0.319999C289.665 0.239999 290.731 0.226665 291.851 0.28V14.28H293.251V0.28C294.371 0.253332 295.425 0.293331 296.411 0.399998C297.425 0.479999 298.491 0.613332 299.611 0.799998V37.28C298.491 37.0667 297.425 36.9067 296.411 36.8C295.425 36.72 294.371 36.6667 293.251 36.64V20.36ZM274.331 31.76C275.851 31.84 277.438 31.8133 279.091 31.68C280.745 31.5467 282.318 31.36 283.811 31.12V37.16C281.065 37.5867 278.398 37.8133 275.811 37.84C273.251 37.8667 270.598 37.64 267.851 37.16V0.799998C268.945 0.959999 270.011 1.09333 271.051 1.2C272.118 1.28 273.211 1.33333 274.331 1.36V31.76ZM322.987 28.12C322.987 29.7733 322.694 31.1867 322.107 32.36C321.547 33.56 320.774 34.5467 319.787 35.32C318.827 36.0933 317.694 36.6667 316.387 37.04C315.107 37.4133 313.734 37.6 312.267 37.6C310.934 37.6 309.68 37.4533 308.507 37.16C307.36 36.8667 306.347 36.4 305.467 35.76C304.614 35.1467 303.934 34.36 303.427 33.4C302.92 32.4667 302.667 31.3467 302.667 30.04V9.28C302.667 7.76 302.96 6.44 303.547 5.32C304.16 4.2 304.974 3.28 305.987 2.56C307 1.81333 308.16 1.26667 309.467 0.919999C310.8 0.546665 312.187 0.359999 313.627 0.359999C316.507 0.359999 318.787 0.999998 320.467 2.28C322.147 3.53333 322.987 5.36 322.987 7.76V28.12ZM325.787 0.28C326.907 0.199999 328.014 0.173332 329.107 0.199998C330.2 0.199998 331.307 0.239999 332.427 0.319999V7.2C333.2 7.25333 333.96 7.32 334.707 7.4C335.454 7.45333 336.214 7.53333 336.987 7.64V13.72C336.214 13.6133 335.454 13.52 334.707 13.44C333.96 13.36 333.2 13.2933 332.427 13.24V21.6C333.2 21.6533 333.96 21.72 334.707 21.8C335.454 21.8533 336.214 21.9333 336.987 22.04V28.12C336.214 28.0133 335.454 27.92 334.707 27.84C333.96 27.76 333.2 27.6933 332.427 27.64V36.72C331.307 36.64 330.2 36.5867 329.107 36.56C328.014 36.56 326.907 36.5867 325.787 36.64V0.28ZM316.347 9.48C316.347 8.44 316.134 7.64 315.707 7.08C315.28 6.52 314.467 6.24 313.267 6.24C311.8 6.24 310.76 6.62667 310.147 7.4C309.534 8.14667 309.227 9.13333 309.227 10.36V28.28C309.227 29.48 309.467 30.36 309.947 30.92C310.427 31.4533 311.2 31.72 312.267 31.72C313.787 31.72 314.84 31.3467 315.427 30.6C316.04 29.8267 316.347 28.72 316.347 27.28V9.48ZM365.373 37.08C363.8 37.08 362.52 36.8133 361.533 36.28C360.573 35.7733 359.747 35.0133 359.053 34C358.52 35.04 357.693 35.8933 356.573 36.56C355.48 37.2267 354.107 37.5867 352.453 37.64C351.68 37.6667 350.933 37.64 350.213 37.56C349.493 37.5067 348.773 37.3733 348.053 37.16V31.24C348.587 31.3733 349.067 31.4533 349.493 31.48C349.92 31.5067 350.44 31.52 351.053 31.52C352.44 31.52 353.533 31.1067 354.333 30.28C355.16 29.4267 355.573 27.9733 355.573 25.92V0.959998C356.693 0.986664 357.8 0.946665 358.893 0.84C360.013 0.706665 361.133 0.519998 362.253 0.28V25.64C362.253 26.4667 362.307 27.2133 362.413 27.88C362.52 28.5467 362.72 29.1067 363.013 29.56C363.333 30.0133 363.76 30.3733 364.293 30.64C364.853 30.88 365.573 31 366.453 31C367.12 31 367.707 30.96 368.213 30.88C368.72 30.7733 369.28 30.6133 369.893 30.4V36.32C369.12 36.6133 368.36 36.8133 367.613 36.92C366.893 37.0267 366.147 37.08 365.373 37.08ZM371.413 0.28C372.533 0.199999 373.64 0.173332 374.733 0.199998C375.827 0.199998 376.933 0.239999 378.053 0.319999V14.48C378.827 14.5333 379.587 14.6 380.333 14.68C381.08 14.7333 381.84 14.8133 382.613 14.92V21C381.84 20.8933 381.08 20.8 380.333 20.72C379.587 20.64 378.827 20.5733 378.053 20.52V36.72C376.933 36.64 375.827 36.5867 374.733 36.56C373.64 36.56 372.533 36.5867 371.413 36.64V0.28ZM391.989 39.44C390.709 39.44 389.549 39.3067 388.509 39.04C387.496 38.7733 386.629 38.3467 385.909 37.76C385.189 37.1733 384.629 36.4 384.229 35.44C383.856 34.5067 383.669 33.3333 383.669 31.92C383.669 30.56 383.869 29.4133 384.269 28.48C384.696 27.5467 385.282 26.8 386.029 26.24C386.776 25.6533 387.656 25.24 388.669 25C389.682 24.76 390.789 24.64 391.989 24.64C393.296 24.64 394.482 24.5867 395.549 24.48C396.642 24.3467 397.709 24.2133 398.749 24.08C399.789 23.9467 400.842 23.8267 401.909 23.72C403.002 23.5867 404.189 23.52 405.469 23.52C410.776 23.52 413.429 25.8933 413.429 30.64C413.429 32.0533 413.256 33.2533 412.909 34.24C412.562 35.2267 412.029 36.0133 411.309 36.6C410.616 37.2133 409.749 37.6533 408.709 37.92C407.669 38.1867 406.456 38.32 405.069 38.32C403.869 38.32 402.762 38.3733 401.749 38.48C400.736 38.6133 399.722 38.7467 398.709 38.88C397.696 39.04 396.642 39.1733 395.549 39.28C394.482 39.3867 393.296 39.44 391.989 39.44ZM404.629 22C401.162 22.48 397.709 22.8133 394.269 23C390.829 23.1867 387.376 22.9867 383.909 22.4V8.44C386.176 8.78667 388.469 8.98667 390.789 9.04C393.109 9.09333 395.416 9.01333 397.709 8.8V6.84C395.416 7.05333 393.109 7.13333 390.789 7.08C388.469 7.02667 386.176 6.82667 383.909 6.48V0.799998C387.322 1.33333 390.709 1.52 394.069 1.36C397.456 1.2 400.842 0.893332 404.229 0.439998V13.92C401.936 14.1867 399.629 14.4533 397.309 14.72C394.989 14.9867 392.669 15.0533 390.349 14.92V17.12C392.749 17.2533 395.136 17.2133 397.509 17C399.882 16.7867 402.256 16.5067 404.629 16.16V22ZM406.629 0.28C407.749 0.199999 408.856 0.173332 409.949 0.199998C411.042 0.199998 412.149 0.239999 413.269 0.319999V8.16C414.042 8.21333 414.802 8.28 415.549 8.36C416.296 8.41333 417.056 8.49333 417.829 8.6V14.68C417.056 14.5733 416.296 14.48 415.549 14.4C414.802 14.32 414.042 14.2533 413.269 14.2V21.88C412.149 21.8 411.042 21.76 409.949 21.76C408.856 21.7333 407.749 21.7467 406.629 21.8V0.28ZM405.229 32.2C405.682 32.2 406.056 32.1067 406.349 31.92C406.642 31.7333 406.789 31.3867 406.789 30.88C406.789 30.4 406.656 30.0667 406.389 29.88C406.122 29.6667 405.736 29.56 405.229 29.56C403.896 29.56 402.682 29.6267 401.589 29.76C400.496 29.8667 399.429 30 398.389 30.16C397.376 30.2933 396.336 30.4267 395.269 30.56C394.229 30.6667 393.082 30.72 391.829 30.72C391.349 30.72 390.962 30.8133 390.669 31C390.376 31.2133 390.229 31.5733 390.229 32.08C390.229 32.5867 390.376 32.92 390.669 33.08C390.962 33.2667 391.349 33.36 391.829 33.36C393.189 33.36 394.416 33.2933 395.509 33.16C396.602 33.0533 397.656 32.92 398.669 32.76C399.709 32.6267 400.749 32.4933 401.789 32.36C402.829 32.2533 403.976 32.2 405.229 32.2ZM419.005 14.36C421.778 14.92 424.538 15.1467 427.285 15.04C430.058 14.9067 432.831 14.7067 435.605 14.44C438.378 14.1467 441.138 13.9333 443.885 13.8C446.658 13.6667 449.431 13.88 452.205 14.44V19.88C450.365 19.5067 448.511 19.2933 446.645 19.24C444.805 19.1867 442.965 19.2267 441.125 19.36C439.285 19.4667 437.445 19.6267 435.605 19.84C433.765 20.0267 431.925 20.1867 430.085 20.32C428.245 20.4533 426.391 20.4933 424.525 20.44C422.685 20.3867 420.845 20.1733 419.005 19.8V14.36ZM450.205 38.48C448.578 38.2133 446.951 38.08 445.325 38.08C443.698 38.08 442.071 38.1333 440.445 38.24C438.818 38.3733 437.191 38.5467 435.565 38.76C433.938 38.9733 432.311 39.1333 430.685 39.24C429.058 39.3733 427.431 39.44 425.805 39.44C424.178 39.44 422.551 39.3067 420.925 39.04V27.44C422.818 27.76 424.711 27.9067 426.605 27.88C428.525 27.8267 430.431 27.7067 432.325 27.52C434.245 27.3333 436.151 27.1333 438.045 26.92C439.965 26.7067 441.871 26.5867 443.765 26.56V25.68C441.871 25.7067 439.965 25.8267 438.045 26.04C436.151 26.2533 434.245 26.4533 432.325 26.64C430.431 26.8267 428.525 26.9467 426.605 27C424.711 27.0267 422.818 26.88 420.925 26.56V21.2C423.378 21.6 425.818 21.7333 428.245 21.6C430.698 21.44 433.138 21.2267 435.565 20.96C437.991 20.6933 440.418 20.48 442.845 20.32C445.298 20.16 447.751 20.28 450.205 20.68V32.2C448.311 31.88 446.405 31.7333 444.485 31.76C442.591 31.8133 440.685 31.9333 438.765 32.12C436.871 32.3067 434.965 32.5067 433.045 32.72C431.151 32.96 429.258 33.0933 427.365 33.12V34.08C429.258 34.0533 431.151 33.92 433.045 33.68C434.965 33.4667 436.871 33.2667 438.765 33.08C440.685 32.8933 442.591 32.7733 444.485 32.72C446.405 32.6933 448.311 32.84 450.205 33.16V38.48ZM442.005 12.64C440.911 12.64 439.805 12.7067 438.685 12.84C437.565 12.9467 436.431 13.08 435.285 13.24C434.138 13.3733 432.978 13.5067 431.805 13.64C430.631 13.7467 429.458 13.8 428.285 13.8C427.218 13.8 426.231 13.6933 425.325 13.48C424.418 13.24 423.618 12.88 422.925 12.4C422.258 11.92 421.725 11.3067 421.325 10.56C420.951 9.78667 420.765 8.85333 420.765 7.76C420.765 6.56 420.965 5.56 421.365 4.76C421.765 3.96 422.325 3.30666 423.045 2.8C423.791 2.29333 424.671 1.93333 425.685 1.72C426.698 1.50667 427.831 1.4 429.085 1.4C430.258 1.4 431.405 1.34667 432.525 1.24C433.671 1.10667 434.805 0.973333 435.925 0.84C437.071 0.679999 438.205 0.546665 439.325 0.439998C440.471 0.306664 441.631 0.239998 442.805 0.239998C447.845 0.239998 450.365 2.13333 450.365 5.92C450.365 7.25333 450.151 8.36 449.725 9.24C449.325 10.0933 448.751 10.7733 448.005 11.28C447.258 11.7867 446.378 12.1467 445.365 12.36C444.351 12.5467 443.231 12.64 442.005 12.64ZM428.285 8.4C429.538 8.4 430.765 8.34667 431.965 8.24C433.165 8.10667 434.351 7.97333 435.525 7.84C436.725 7.68 437.925 7.54667 439.125 7.44C440.325 7.30666 441.551 7.24 442.805 7.24C443.551 7.24 443.925 6.96 443.925 6.4C443.925 5.84 443.551 5.56 442.805 5.56C441.445 5.56 440.138 5.62667 438.885 5.76C437.631 5.86667 436.418 6 435.245 6.16C434.071 6.29333 432.898 6.42667 431.725 6.56C430.578 6.66667 429.431 6.72 428.285 6.72C427.538 6.72 427.165 7.02666 427.165 7.64C427.165 8.14667 427.538 8.4 428.285 8.4ZM6.96 56.6C9.41333 56.68 11.88 56.6 14.36 56.36V51.16C15.48 51.0533 16.56 50.9333 17.6 50.8C18.64 50.64 19.72 50.52 20.84 50.44V72C17.4533 72.5333 14.0667 72.88 10.68 73.04C7.32 73.2 3.93333 72.9867 0.52 72.4V50.8C1.61333 50.9333 2.68 51.0533 3.72 51.16C4.76 51.2667 5.84 51.3333 6.96 51.36V56.6ZM29.88 88.32C27.2133 88.1067 24.64 88.1067 22.16 88.32C19.7067 88.56 17.28 88.8 14.88 89.04C12.48 89.3067 10.0933 89.4667 7.72 89.52C5.37333 89.5733 2.97333 89.3333 0.52 88.8V73.96C2.97333 74.4933 5.41333 74.7333 7.84 74.68C10.2933 74.6 12.7467 74.44 15.2 74.2C17.6533 73.96 20.0933 73.7333 22.52 73.52C24.9733 73.28 27.4267 73.2667 29.88 73.48V79.48C27.96 79.2667 26.0533 79.2267 24.16 79.36C22.2667 79.4933 20.3733 79.68 18.48 79.92C16.5867 80.1333 14.6933 80.3333 12.8 80.52C10.9067 80.7067 9 80.7467 7.08 80.64V83.44C9 83.5733 10.8667 83.5333 12.68 83.32C14.4933 83.1333 16.32 82.92 18.16 82.68C20.0267 82.44 21.92 82.2533 23.84 82.12C25.76 81.9867 27.7733 82.0533 29.88 82.32V88.32ZM23.24 50.28C24.36 50.2 25.4667 50.1733 26.56 50.2C27.6533 50.2 28.76 50.24 29.88 50.32V58.16C30.6533 58.2133 31.4133 58.28 32.16 58.36C32.9067 58.4133 33.6667 58.4933 34.44 58.6V64.68C33.6667 64.5733 32.9067 64.48 32.16 64.4C31.4133 64.32 30.6533 64.2533 29.88 64.2V71.88C28.76 71.8 27.6533 71.76 26.56 71.76C25.4667 71.7333 24.36 71.7467 23.24 71.8V50.28ZM14.36 62.36C13.1067 62.4933 11.8667 62.5867 10.64 62.64C9.44 62.6933 8.21333 62.6933 6.96 62.64V67C8.16 67.08 9.38667 67.1067 10.64 67.08C11.92 67.0267 13.16 66.9333 14.36 66.8V62.36ZM60.1756 56.16C58.2823 56.1867 56.389 56.3067 54.4956 56.52C52.629 56.7067 50.749 56.8933 48.8556 57.08C46.9623 57.2667 45.069 57.3867 43.1756 57.44C41.309 57.4667 39.429 57.32 37.5356 57V51.08C39.989 51.4533 42.429 51.5733 44.8556 51.44C47.309 51.28 49.749 51.08 52.1756 50.84C54.6023 50.5733 57.029 50.3733 59.4556 50.24C61.909 50.08 64.3623 50.1867 66.8156 50.56V76.96C65.6956 76.8267 64.589 76.7333 63.4956 76.68C62.4023 76.6 61.2956 76.5733 60.1756 76.6V56.16ZM35.6156 81.08C37.429 81.4533 39.229 81.6667 41.0156 81.72C42.829 81.7733 44.6423 81.7467 46.4556 81.64V65.48C47.5756 65.4267 48.6823 65.3333 49.7756 65.2C50.869 65.04 51.9756 64.8933 53.0956 64.76V81.04C55.709 80.8 58.3223 80.64 60.9356 80.56C63.5756 80.4533 66.2023 80.6533 68.8156 81.16V87.24C66.9756 86.8667 65.1223 86.6533 63.2556 86.6C61.4156 86.5467 59.5756 86.5733 57.7356 86.68C55.8956 86.8133 54.0556 86.9733 52.2156 87.16C50.3756 87.3733 48.5356 87.5467 46.6956 87.68C44.8556 87.8133 43.0023 87.8533 41.1356 87.8C39.2956 87.7467 37.4556 87.5333 35.6156 87.16V81.08ZM83.1622 62.4C85.0289 62.72 86.9089 62.8667 88.8022 62.84C90.6955 62.7867 92.5889 62.68 94.4822 62.52C96.3755 62.3333 98.2555 62.1467 100.122 61.96C102.016 61.7467 103.909 61.6267 105.802 61.6V56.16C103.909 56.1867 102.016 56.3067 100.122 56.52C98.2555 56.7067 96.3755 56.8933 94.4822 57.08C92.5889 57.2667 90.6955 57.3867 88.8022 57.44C86.9355 57.4667 85.0555 57.32 83.1622 57V51.08C85.6155 51.4533 88.0555 51.5733 90.4822 51.44C92.9355 51.28 95.3755 51.08 97.8022 50.84C100.229 50.5733 102.656 50.3733 105.082 50.24C107.536 50.08 109.989 50.1867 112.442 50.56V76.96C111.322 76.8267 110.216 76.7333 109.122 76.68C108.029 76.6 106.922 76.5733 105.802 76.6V67.48C103.909 67.5067 102.016 67.6267 100.122 67.84C98.2555 68.0267 96.3755 68.2133 94.4822 68.4C92.5889 68.56 90.6955 68.6667 88.8022 68.72C86.9089 68.7467 85.0289 68.6 83.1622 68.28V62.4ZM81.2422 81.08C84.0155 81.64 86.7755 81.8533 89.5222 81.72C92.2955 81.6133 95.0689 81.4133 97.8422 81.12C100.616 80.8533 103.376 80.6533 106.122 80.52C108.896 80.3867 111.669 80.6 114.442 81.16V87.24C112.602 86.8667 110.749 86.6533 108.882 86.6C107.042 86.5467 105.202 86.5733 103.362 86.68C101.522 86.8133 99.6822 86.9733 97.8422 87.16C96.0022 87.3733 94.1622 87.5467 92.3222 87.68C90.4822 87.8133 88.6289 87.8533 86.7622 87.8C84.9222 87.7467 83.0822 87.5333 81.2422 87.16V81.08ZM147.658 88.52C146.031 88.2533 144.404 88.12 142.778 88.12C141.151 88.12 139.524 88.1733 137.898 88.28C136.271 88.4133 134.644 88.5867 133.018 88.8C131.391 89.0133 129.764 89.1733 128.138 89.28C126.511 89.4133 124.884 89.48 123.258 89.48C121.631 89.48 120.004 89.3467 118.378 89.08V74.28C119.498 74.4133 120.604 74.52 121.698 74.6C122.791 74.6533 123.898 74.6667 125.018 74.64V83.44C126.911 83.4133 128.791 83.28 130.658 83.04C132.551 82.8267 134.431 82.6267 136.298 82.44C138.191 82.2533 140.084 82.1333 141.978 82.08C143.871 82.0533 145.764 82.2 147.658 82.52V88.52ZM116.458 66.88C119.231 67.44 121.991 67.6667 124.738 67.56C127.511 67.4267 130.284 67.2267 133.058 66.96C135.831 66.6667 138.591 66.4533 141.338 66.32C144.111 66.1867 146.884 66.4 149.658 66.96V72.88C147.818 72.5067 145.964 72.2933 144.098 72.24C142.258 72.1867 140.418 72.2267 138.578 72.36C136.738 72.4667 134.898 72.6267 133.058 72.84C131.218 73.0267 129.378 73.1867 127.538 73.32C125.698 73.4533 123.844 73.4933 121.978 73.44C120.138 73.3867 118.298 73.1733 116.458 72.8V66.88ZM147.658 65.12C145.258 64.7467 142.831 64.64 140.378 64.8C137.924 64.9333 135.471 65.1333 133.018 65.4C130.564 65.64 128.111 65.84 125.658 66C123.204 66.1333 120.778 66.0133 118.378 65.64V50.64C118.858 50.6933 119.378 50.7467 119.938 50.8C120.524 50.8267 121.111 50.8533 121.698 50.88C122.284 50.9067 122.858 50.9333 123.418 50.96C124.004 50.9867 124.538 51 125.018 51V59.88C126.938 59.88 128.831 59.7867 130.698 59.6C132.591 59.3867 134.471 59.1867 136.338 59C138.204 58.8133 140.071 58.7067 141.938 58.68C143.831 58.6533 145.738 58.8133 147.658 59.16V65.12ZM168.924 81.72C171.271 81.8533 173.551 81.84 175.764 81.68C178.004 81.52 180.271 81.2533 182.564 80.88V86.8C179.178 87.3067 175.791 87.64 172.404 87.8C169.018 87.96 165.618 87.76 162.204 87.2V50.8C163.298 50.96 164.404 51.0933 165.524 51.2C166.671 51.28 167.804 51.3333 168.924 51.36V81.72ZM184.924 50.28C186.044 50.2 187.151 50.1733 188.244 50.2C189.338 50.2 190.444 50.24 191.564 50.32V64.48C192.338 64.5333 193.098 64.6 193.844 64.68C194.591 64.7333 195.351 64.8133 196.124 64.92V71C195.351 70.8933 194.591 70.8 193.844 70.72C193.098 70.64 192.338 70.5733 191.564 70.52V86.72C190.444 86.64 189.338 86.5867 188.244 86.56C187.151 86.56 186.044 86.5867 184.924 86.64V50.28ZM199.22 51.04C201.673 51.4133 204.113 51.5333 206.54 51.4C208.993 51.2667 211.433 51.08 213.86 50.84C216.287 50.6 218.713 50.4133 221.14 50.28C223.593 50.12 226.047 50.2133 228.5 50.56V71.12C226.047 70.7467 223.593 70.6267 221.14 70.76C218.713 70.8933 216.287 71.0933 213.86 71.36C211.433 71.6 208.993 71.7867 206.54 71.92C204.113 72.0533 201.673 71.9333 199.22 71.56V51.04ZM197.3 73.64C200.073 74.2 202.833 74.4267 205.58 74.32C208.353 74.1867 211.127 73.9867 213.9 73.72C216.673 73.4267 219.433 73.2133 222.18 73.08C224.953 72.9467 227.727 73.16 230.5 73.72V79.8C228.26 79.3467 226.033 79.12 223.82 79.12C221.633 79.12 219.433 79.2267 217.22 79.44V87.6C216.1 87.7333 214.993 87.88 213.9 88.04C212.807 88.2 211.7 88.32 210.58 88.4V80.08C208.34 80.2933 206.113 80.4 203.9 80.4C201.713 80.4 199.513 80.1733 197.3 79.72V73.64ZM205.82 65.84C207.18 65.8667 208.527 65.8133 209.86 65.68C211.193 65.52 212.513 65.36 213.82 65.2C215.153 65.04 216.487 64.8933 217.82 64.76C219.153 64.6267 220.5 64.5733 221.86 64.6V56.24C220.5 56.2133 219.153 56.2667 217.82 56.4C216.487 56.5067 215.153 56.6533 213.82 56.84C212.513 57 211.193 57.16 209.86 57.32C208.527 57.4533 207.18 57.5067 205.82 57.48V65.84ZM252.556 78.12C252.556 79.7733 252.262 81.1867 251.676 82.36C251.116 83.56 250.342 84.5467 249.356 85.32C248.396 86.0933 247.262 86.6667 245.956 87.04C244.676 87.4133 243.302 87.6 241.836 87.6C240.502 87.6 239.249 87.4533 238.076 87.16C236.929 86.8667 235.916 86.4 235.036 85.76C234.182 85.1467 233.502 84.36 232.996 83.4C232.489 82.4667 232.236 81.3467 232.236 80.04V59.28C232.236 57.76 232.529 56.44 233.116 55.32C233.729 54.2 234.542 53.28 235.556 52.56C236.569 51.8133 237.729 51.2667 239.036 50.92C240.369 50.5467 241.756 50.36 243.196 50.36C246.076 50.36 248.356 51 250.036 52.28C251.716 53.5333 252.556 55.36 252.556 57.76V78.12ZM255.356 50.28C256.476 50.2 257.582 50.1733 258.676 50.2C259.769 50.2 260.876 50.24 261.996 50.32V57.2C262.769 57.2533 263.529 57.32 264.276 57.4C265.022 57.4533 265.782 57.5333 266.556 57.64V63.72C265.782 63.6133 265.022 63.52 264.276 63.44C263.529 63.36 262.769 63.2933 261.996 63.24V71.6C262.769 71.6533 263.529 71.72 264.276 71.8C265.022 71.8533 265.782 71.9333 266.556 72.04V78.12C265.782 78.0133 265.022 77.92 264.276 77.84C263.529 77.76 262.769 77.6933 261.996 77.64V86.72C260.876 86.64 259.769 86.5867 258.676 86.56C257.582 86.56 256.476 86.5867 255.356 86.64V50.28ZM245.916 59.48C245.916 58.44 245.702 57.64 245.276 57.08C244.849 56.52 244.036 56.24 242.836 56.24C241.369 56.24 240.329 56.6267 239.716 57.4C239.102 58.1467 238.796 59.1333 238.796 60.36V78.28C238.796 79.48 239.036 80.36 239.516 80.92C239.996 81.4533 240.769 81.72 241.836 81.72C243.356 81.72 244.409 81.3467 244.996 80.6C245.609 79.8267 245.916 78.72 245.916 77.28V59.48ZM307.622 88.32C304.956 88.1067 302.382 88.1067 299.902 88.32C297.449 88.56 295.022 88.8 292.622 89.04C290.222 89.3067 287.836 89.4667 285.462 89.52C283.116 89.5733 280.716 89.3333 278.262 88.8V76.48C280.156 76.88 282.062 77.12 283.982 77.2C285.902 77.2533 287.822 77.2267 289.742 77.12C291.662 77.0133 293.569 76.8533 295.462 76.64C297.382 76.4267 299.289 76.2267 301.182 76.04V75.04C299.289 75.2 297.382 75.3867 295.462 75.6C293.569 75.8133 291.662 75.9867 289.742 76.12C287.822 76.2267 285.902 76.2667 283.982 76.24C282.062 76.1867 280.156 75.9733 278.262 75.6V70C280.716 70.5333 283.156 70.7733 285.582 70.72C288.036 70.64 290.489 70.48 292.942 70.24C295.396 70 297.836 69.7733 300.262 69.56C302.716 69.32 305.169 69.3067 307.622 69.52V81.72C305.702 81.5067 303.782 81.4667 301.862 81.6C299.942 81.7333 298.022 81.9067 296.102 82.12C294.182 82.36 292.262 82.5733 290.342 82.76C288.449 82.9467 286.542 82.9733 284.622 82.84V83.84C286.542 83.9733 288.449 83.9467 290.342 83.76C292.262 83.6 294.182 83.4 296.102 83.16C298.022 82.9467 299.942 82.7733 301.862 82.64C303.782 82.5067 305.702 82.5333 307.622 82.72V88.32ZM284.982 62.92C287.329 63.0533 289.609 63.0133 291.822 62.8C294.062 62.56 296.329 62.2533 298.622 61.88V68C295.236 68.5067 291.849 68.84 288.462 69C285.076 69.16 281.676 68.96 278.262 68.4V50.8C279.356 50.96 280.462 51.0933 281.582 51.2C282.729 51.28 283.862 51.3333 284.982 51.36V62.92ZM300.982 50.28C302.102 50.2 303.209 50.1733 304.302 50.2C305.396 50.2 306.502 50.24 307.622 50.32V56.16C308.396 56.2133 309.156 56.28 309.902 56.36C310.649 56.4133 311.409 56.4933 312.182 56.6V62.68C311.409 62.5733 310.649 62.48 309.902 62.4C309.156 62.32 308.396 62.2533 307.622 62.2V67.92C306.502 67.84 305.396 67.8 304.302 67.8C303.209 67.7733 302.102 67.7867 300.982 67.84V50.28ZM340.569 87.08C338.995 87.08 337.715 86.8133 336.729 86.28C335.769 85.7733 334.942 85.0133 334.249 84C333.715 85.04 332.889 85.8933 331.769 86.56C330.675 87.2267 329.302 87.5867 327.649 87.64C326.875 87.6667 326.129 87.64 325.409 87.56C324.689 87.5067 323.969 87.3733 323.249 87.16V81.24C323.782 81.3733 324.262 81.4533 324.689 81.48C325.115 81.5067 325.635 81.52 326.249 81.52C327.635 81.52 328.729 81.1067 329.529 80.28C330.355 79.4267 330.769 77.9733 330.769 75.92V50.96C331.889 50.9867 332.995 50.9467 334.089 50.84C335.209 50.7067 336.329 50.52 337.449 50.28V75.64C337.449 76.4667 337.502 77.2133 337.609 77.88C337.715 78.5467 337.915 79.1067 338.209 79.56C338.529 80.0133 338.955 80.3733 339.489 80.64C340.049 80.88 340.769 81 341.649 81C342.315 81 342.902 80.96 343.409 80.88C343.915 80.7733 344.475 80.6133 345.089 80.4V86.32C344.315 86.6133 343.555 86.8133 342.809 86.92C342.089 87.0267 341.342 87.08 340.569 87.08ZM346.609 50.28C347.729 50.2 348.835 50.1733 349.929 50.2C351.022 50.2 352.129 50.24 353.249 50.32V64.48C354.022 64.5333 354.782 64.6 355.529 64.68C356.275 64.7333 357.035 64.8133 357.809 64.92V71C357.035 70.8933 356.275 70.8 355.529 70.72C354.782 70.64 354.022 70.5733 353.249 70.52V86.72C352.129 86.64 351.022 86.5867 349.929 86.56C348.835 86.56 347.729 86.5867 346.609 86.64V50.28ZM367.184 89.44C365.904 89.44 364.744 89.3067 363.704 89.04C362.691 88.7733 361.824 88.3467 361.104 87.76C360.384 87.1733 359.824 86.4 359.424 85.44C359.051 84.5067 358.864 83.3333 358.864 81.92C358.864 80.56 359.064 79.4133 359.464 78.48C359.891 77.5467 360.478 76.8 361.224 76.24C361.971 75.6533 362.851 75.24 363.864 75C364.878 74.76 365.984 74.64 367.184 74.64C368.491 74.64 369.678 74.5867 370.744 74.48C371.838 74.3467 372.904 74.2133 373.944 74.08C374.984 73.9467 376.038 73.8267 377.104 73.72C378.198 73.5867 379.384 73.52 380.664 73.52C385.971 73.52 388.624 75.8933 388.624 80.64C388.624 82.0533 388.451 83.2533 388.104 84.24C387.758 85.2267 387.224 86.0133 386.504 86.6C385.811 87.2133 384.944 87.6533 383.904 87.92C382.864 88.1867 381.651 88.32 380.264 88.32C379.064 88.32 377.958 88.3733 376.944 88.48C375.931 88.6133 374.918 88.7467 373.904 88.88C372.891 89.04 371.838 89.1733 370.744 89.28C369.678 89.3867 368.491 89.44 367.184 89.44ZM379.824 72C376.358 72.48 372.904 72.8133 369.464 73C366.024 73.1867 362.571 72.9867 359.104 72.4V58.44C361.371 58.7867 363.664 58.9867 365.984 59.04C368.304 59.0933 370.611 59.0133 372.904 58.8V56.84C370.611 57.0533 368.304 57.1333 365.984 57.08C363.664 57.0267 361.371 56.8267 359.104 56.48V50.8C362.518 51.3333 365.904 51.52 369.264 51.36C372.651 51.2 376.038 50.8933 379.424 50.44V63.92C377.131 64.1867 374.824 64.4533 372.504 64.72C370.184 64.9867 367.864 65.0533 365.544 64.92V67.12C367.944 67.2533 370.331 67.2133 372.704 67C375.078 66.7867 377.451 66.5067 379.824 66.16V72ZM381.824 50.28C382.944 50.2 384.051 50.1733 385.144 50.2C386.238 50.2 387.344 50.24 388.464 50.32V58.16C389.238 58.2133 389.998 58.28 390.744 58.36C391.491 58.4133 392.251 58.4933 393.024 58.6V64.68C392.251 64.5733 391.491 64.48 390.744 64.4C389.998 64.32 389.238 64.2533 388.464 64.2V71.88C387.344 71.8 386.238 71.76 385.144 71.76C384.051 71.7333 382.944 71.7467 381.824 71.8V50.28ZM380.424 82.2C380.878 82.2 381.251 82.1067 381.544 81.92C381.838 81.7333 381.984 81.3867 381.984 80.88C381.984 80.4 381.851 80.0667 381.584 79.88C381.318 79.6667 380.931 79.56 380.424 79.56C379.091 79.56 377.878 79.6267 376.784 79.76C375.691 79.8667 374.624 80 373.584 80.16C372.571 80.2933 371.531 80.4267 370.464 80.56C369.424 80.6667 368.278 80.72 367.024 80.72C366.544 80.72 366.158 80.8133 365.864 81C365.571 81.2133 365.424 81.5733 365.424 82.08C365.424 82.5867 365.571 82.92 365.864 83.08C366.158 83.2667 366.544 83.36 367.024 83.36C368.384 83.36 369.611 83.2933 370.704 83.16C371.798 83.0533 372.851 82.92 373.864 82.76C374.904 82.6267 375.944 82.4933 376.984 82.36C378.024 82.2533 379.171 82.2 380.424 82.2ZM419.72 70.76H418.32V86.6C417.2 86.5733 416.133 86.5867 415.12 86.64C414.133 86.6933 413.08 86.8133 411.96 87V50.6C413.08 50.4667 414.133 50.3733 415.12 50.32C416.133 50.24 417.2 50.2267 418.32 50.28V64.68H419.72V50.28C420.84 50.2533 421.893 50.2933 422.88 50.4C423.893 50.48 424.96 50.6133 426.08 50.8V87.28C424.96 87.0667 423.893 86.9067 422.88 86.8C421.893 86.72 420.84 86.6667 419.72 86.64V70.76ZM409.84 77.48C409.84 78.7867 409.747 80.0533 409.56 81.28C409.4 82.5333 409.04 83.64 408.48 84.6C407.947 85.56 407.16 86.3333 406.12 86.92C405.08 87.5067 403.693 87.8 401.96 87.8C400.147 87.8 398.707 87.5067 397.64 86.92C396.573 86.3333 395.76 85.56 395.2 84.6C394.667 83.64 394.32 82.5333 394.16 81.28C394 80.0533 393.92 78.7867 393.92 77.48V71.88C393.92 70.5733 394 69.32 394.16 68.12C394.32 66.92 394.667 65.8667 395.2 64.96C395.76 64.0533 396.573 63.3333 397.64 62.8C398.707 62.24 400.147 61.96 401.96 61.96C403.693 61.96 405.08 62.24 406.12 62.8C407.16 63.3333 407.947 64.0533 408.48 64.96C409.04 65.8667 409.4 66.92 409.56 68.12C409.747 69.32 409.84 70.5733 409.84 71.88V77.48ZM393.4 54C394.253 54.1333 395.12 54.2533 396 54.36C396.907 54.44 397.813 54.5067 398.72 54.56V50.16C399.36 50.2133 399.947 50.2533 400.48 50.28C401.04 50.28 401.573 50.28 402.08 50.28C402.587 50.2533 403.107 50.24 403.64 50.24C404.2 50.2133 404.8 50.1733 405.44 50.12V54.52C406.293 54.4667 407.147 54.3867 408 54.28C408.853 54.1467 409.707 54.0133 410.56 53.88V59.68C407.733 60.1333 404.867 60.3867 401.96 60.44C399.08 60.4667 396.227 60.2533 393.4 59.8V54ZM400.28 78.04C400.28 78.8933 400.307 79.6 400.36 80.16C400.413 80.6933 400.507 81.1067 400.64 81.4C400.773 81.72 400.947 81.9333 401.16 82.04C401.373 82.1467 401.64 82.2 401.96 82.2C402.253 82.2 402.493 82.1467 402.68 82.04C402.867 81.9333 403.013 81.72 403.12 81.4C403.253 81.1067 403.347 80.6933 403.4 80.16C403.453 79.6 403.48 78.8933 403.48 78.04V71.6C403.48 70.7467 403.453 70.0533 403.4 69.52C403.347 68.9867 403.253 68.5733 403.12 68.28C403.013 67.9867 402.867 67.8 402.68 67.72C402.493 67.6133 402.253 67.56 401.96 67.56C401.64 67.56 401.373 67.6133 401.16 67.72C400.947 67.8 400.773 67.9867 400.64 68.28C400.507 68.5733 400.413 68.9867 400.36 69.52C400.307 70.0533 400.28 70.7467 400.28 71.6V78.04ZM440.947 51C442.707 51.2933 444.48 51.44 446.267 51.44C448.053 51.4133 449.84 51.3333 451.627 51.2C453.413 51.04 455.2 50.8667 456.987 50.68C458.773 50.4933 460.547 50.36 462.307 50.28V56.36C461.08 56.4133 459.853 56.5067 458.627 56.64C457.427 56.7467 456.2 56.8667 454.947 57V58.04C454.947 58.8667 455 59.6 455.107 60.24C455.213 60.8533 455.413 61.3733 455.707 61.8C456.027 62.2 456.453 62.5067 456.987 62.72C457.547 62.9067 458.267 63 459.147 63C459.813 63 460.4 62.96 460.907 62.88C461.413 62.7733 461.973 62.6133 462.587 62.4V68.32C461.813 68.6133 461.053 68.8133 460.307 68.92C459.587 69.0267 458.84 69.08 458.067 69.08C456.493 69.08 455.213 68.8267 454.227 68.32C453.267 67.8133 452.44 67.0533 451.747 66.04C451.213 67.0533 450.387 67.9067 449.267 68.6C448.173 69.2667 446.8 69.6133 445.147 69.64C444.373 69.6667 443.627 69.6533 442.907 69.6C442.187 69.52 441.467 69.3733 440.747 69.16V63.24C441.28 63.3733 441.76 63.4533 442.187 63.48C442.613 63.5067 443.133 63.52 443.747 63.52C444.44 63.52 445.067 63.44 445.627 63.28C446.187 63.12 446.653 62.8533 447.027 62.48C447.427 62.08 447.733 61.5467 447.947 60.88C448.16 60.2133 448.267 59.36 448.267 58.32V57.48C447.013 57.5333 445.773 57.5333 444.547 57.48C443.347 57.4267 442.147 57.2933 440.947 57.08V51ZM465.067 83.68C463.76 83.6533 462.467 83.6667 461.187 83.72C459.907 83.7733 458.627 83.8933 457.347 84.08V78.2C458.627 78.04 459.907 77.9333 461.187 77.88C462.467 77.8267 463.76 77.8267 465.067 77.88V50.32C466.187 50.2933 467.293 50.3333 468.387 50.44C469.48 50.52 470.587 50.6533 471.707 50.84V87.28C470.587 87.0667 469.48 86.9067 468.387 86.8C467.293 86.72 466.187 86.6667 465.067 86.64V83.68ZM448.227 77.32C446.733 77.3733 445.253 77.36 443.787 77.28C442.347 77.2 440.893 77.0133 439.427 76.72V70.6C441.427 71 443.427 71.2133 445.427 71.24C447.427 71.24 449.427 71.16 451.427 71C453.427 70.84 455.427 70.6533 457.427 70.44C459.427 70.2 461.427 70.0533 463.427 70V76.12C461.987 76.1733 460.56 76.2667 459.147 76.4C457.76 76.5333 456.347 76.6667 454.907 76.8V87.32C453.787 87.5067 452.667 87.6267 451.547 87.68C450.453 87.76 449.347 87.8267 448.227 87.88V77.32ZM0.8 123.64C2.90667 124.093 5.01333 124.307 7.12 124.28C9.22667 124.253 11.3333 124.133 13.44 123.92V120.12C14.56 120.013 15.6 119.867 16.56 119.68C17.52 119.493 18.56 119.36 19.68 119.28V123.28C21.7867 123.067 23.88 122.96 25.96 122.96C28.0667 122.933 30.1733 123.147 32.28 123.6V129.48C30.2533 129.027 28.2267 128.8 26.2 128.8C24.2 128.8 22.1867 128.893 20.16 129.08C20.5067 130.2 21.1467 131.04 22.08 131.6C23.04 132.187 24.4 132.48 26.16 132.48C26.5333 132.48 26.9867 132.467 27.52 132.44C28.08 132.413 28.64 132.373 29.2 132.32C29.7867 132.293 30.3467 132.24 30.88 132.16C31.44 132.08 31.9067 132 32.28 131.92V137.92C31.88 138 31.4 138.067 30.84 138.12C30.28 138.2 29.6933 138.253 29.08 138.28C28.4933 138.333 27.9067 138.373 27.32 138.4C26.7333 138.427 26.24 138.44 25.84 138.44C24.56 138.44 23.44 138.347 22.48 138.16C21.52 137.973 20.68 137.707 19.96 137.36C19.24 137.04 18.6133 136.64 18.08 136.16C17.5733 135.707 17.12 135.187 16.72 134.6C16.1867 135.4 15.52 136.093 14.72 136.68C13.9467 137.267 13.08 137.733 12.12 138.08C11.16 138.453 10.12 138.72 9 138.88C7.90667 139.067 6.78667 139.16 5.64 139.16C5.26667 139.16 4.86667 139.147 4.44 139.12C4.01333 139.093 3.57333 139.053 3.12 139C2.69333 138.947 2.28 138.867 1.88 138.76C1.48 138.68 1.12 138.573 0.8 138.44V132.44C1.41333 132.653 2.16 132.827 3.04 132.96C3.94667 133.093 4.70667 133.16 5.32 133.16C6.09333 133.16 6.86667 133.107 7.64 133C8.41333 132.893 9.13333 132.707 9.8 132.44C10.4667 132.173 11.0533 131.827 11.56 131.4C12.0933 131 12.5067 130.493 12.8 129.88C10.8 130.067 8.8 130.173 6.8 130.2C4.8 130.2 2.8 129.973 0.8 129.52V123.64ZM6.96 104.6C9.41333 104.68 11.88 104.6 14.36 104.36V101.16C15.48 101.053 16.56 100.933 17.6 100.8C18.64 100.64 19.72 100.52 20.84 100.44V118C17.4533 118.533 14.0667 118.88 10.68 119.04C7.32 119.2 3.93333 118.987 0.52 118.4V100.8C1.61333 100.933 2.68 101.053 3.72 101.16C4.76 101.267 5.84 101.333 6.96 101.36V104.6ZM25.64 100.32C26.76 100.293 27.8667 100.333 28.96 100.44C30.0533 100.52 31.16 100.653 32.28 100.84V120.48C31.16 120.267 30.0533 120.12 28.96 120.04C27.8667 119.933 26.76 119.867 25.64 119.84V100.32ZM14.36 110.36C13.1067 110.493 11.8667 110.587 10.64 110.64C9.44 110.693 8.21333 110.693 6.96 110.64V113C8.16 113.08 9.38667 113.107 10.64 113.08C11.92 113.027 13.16 112.933 14.36 112.8V110.36ZM35.6156 114.36C38.389 114.92 41.149 115.147 43.8956 115.04C46.669 114.907 49.4423 114.707 52.2156 114.44C54.989 114.147 57.749 113.933 60.4956 113.8C63.269 113.667 66.0423 113.88 68.8156 114.44V119.88C66.9756 119.507 65.1223 119.293 63.2556 119.24C61.4156 119.187 59.5756 119.227 57.7356 119.36C55.8956 119.467 54.0556 119.627 52.2156 119.84C50.3756 120.027 48.5356 120.187 46.6956 120.32C44.8556 120.453 43.0023 120.493 41.1356 120.44C39.2956 120.387 37.4556 120.173 35.6156 119.8V114.36ZM66.8156 138.48C65.189 138.213 63.5623 138.08 61.9356 138.08C60.309 138.08 58.6823 138.133 57.0556 138.24C55.429 138.373 53.8023 138.547 52.1756 138.76C50.549 138.973 48.9223 139.133 47.2956 139.24C45.669 139.373 44.0423 139.44 42.4156 139.44C40.789 139.44 39.1623 139.307 37.5356 139.04V127.44C39.429 127.76 41.3223 127.907 43.2156 127.88C45.1356 127.827 47.0423 127.707 48.9356 127.52C50.8556 127.333 52.7623 127.133 54.6556 126.92C56.5756 126.707 58.4823 126.587 60.3756 126.56V125.68C58.4823 125.707 56.5756 125.827 54.6556 126.04C52.7623 126.253 50.8556 126.453 48.9356 126.64C47.0423 126.827 45.1356 126.947 43.2156 127C41.3223 127.027 39.429 126.88 37.5356 126.56V121.2C39.989 121.6 42.429 121.733 44.8556 121.6C47.309 121.44 49.749 121.227 52.1756 120.96C54.6023 120.693 57.029 120.48 59.4556 120.32C61.909 120.16 64.3623 120.28 66.8156 120.68V132.2C64.9223 131.88 63.0156 131.733 61.0956 131.76C59.2023 131.813 57.2956 131.933 55.3756 132.12C53.4823 132.307 51.5756 132.507 49.6556 132.72C47.7623 132.96 45.869 133.093 43.9756 133.12V134.08C45.869 134.053 47.7623 133.92 49.6556 133.68C51.5756 133.467 53.4823 133.267 55.3756 133.08C57.2956 132.893 59.2023 132.773 61.0956 132.72C63.0156 132.693 64.9223 132.84 66.8156 133.16V138.48ZM58.6156 112.64C57.5223 112.64 56.4156 112.707 55.2956 112.84C54.1756 112.947 53.0423 113.08 51.8956 113.24C50.749 113.373 49.589 113.507 48.4156 113.64C47.2423 113.747 46.069 113.8 44.8956 113.8C43.829 113.8 42.8423 113.693 41.9356 113.48C41.029 113.24 40.229 112.88 39.5356 112.4C38.869 111.92 38.3356 111.307 37.9356 110.56C37.5623 109.787 37.3756 108.853 37.3756 107.76C37.3756 106.56 37.5756 105.56 37.9756 104.76C38.3756 103.96 38.9356 103.307 39.6556 102.8C40.4023 102.293 41.2823 101.933 42.2956 101.72C43.309 101.507 44.4423 101.4 45.6956 101.4C46.869 101.4 48.0156 101.347 49.1356 101.24C50.2823 101.107 51.4156 100.973 52.5356 100.84C53.6823 100.68 54.8156 100.547 55.9356 100.44C57.0823 100.307 58.2423 100.24 59.4156 100.24C64.4556 100.24 66.9756 102.133 66.9756 105.92C66.9756 107.253 66.7623 108.36 66.3356 109.24C65.9356 110.093 65.3623 110.773 64.6156 111.28C63.869 111.787 62.989 112.147 61.9756 112.36C60.9623 112.547 59.8423 112.64 58.6156 112.64ZM44.8956 108.4C46.149 108.4 47.3756 108.347 48.5756 108.24C49.7756 108.107 50.9623 107.973 52.1356 107.84C53.3356 107.68 54.5356 107.547 55.7356 107.44C56.9356 107.307 58.1623 107.24 59.4156 107.24C60.1623 107.24 60.5356 106.96 60.5356 106.4C60.5356 105.84 60.1623 105.56 59.4156 105.56C58.0556 105.56 56.749 105.627 55.4956 105.76C54.2423 105.867 53.029 106 51.8556 106.16C50.6823 106.293 49.509 106.427 48.3356 106.56C47.189 106.667 46.0423 106.72 44.8956 106.72C44.149 106.72 43.7756 107.027 43.7756 107.64C43.7756 108.147 44.149 108.4 44.8956 108.4ZM81.2022 100.84C83.1755 101.24 85.1622 101.44 87.1622 101.44C89.1622 101.413 91.1622 101.32 93.1622 101.16C95.1622 101 97.1622 100.813 99.1622 100.6C101.162 100.387 103.149 100.28 105.122 100.28V106.2C104.509 106.2 103.896 106.213 103.282 106.24C102.696 106.267 102.096 106.307 101.482 106.36V115.8C101.482 117.4 101.642 118.52 101.962 119.16C102.309 119.773 103.002 120.08 104.042 120.08C104.256 120.08 104.442 120.08 104.602 120.08C104.762 120.053 104.936 120.027 105.122 120V126C104.776 126.107 104.389 126.16 103.962 126.16C102.896 126.16 101.856 125.92 100.842 125.44C99.8289 124.933 99.0022 124.253 98.3622 123.4C97.8289 124.387 97.1355 125.147 96.2822 125.68C95.4289 126.213 94.4155 126.627 93.2422 126.92C91.0022 126.547 89.3355 125.573 88.2422 124C87.6289 124.88 86.8289 125.587 85.8422 126.12C84.8822 126.627 83.8822 126.88 82.8422 126.88C82.5755 126.88 82.2955 126.867 82.0022 126.84C81.7089 126.787 81.4555 126.72 81.2422 126.64V120.64C81.6689 120.8 82.2022 120.88 82.8422 120.88C83.3755 120.88 83.7889 120.8 84.0822 120.64C84.3755 120.453 84.5889 120.173 84.7222 119.8C84.8555 119.427 84.9222 118.96 84.9222 118.4C84.9489 117.813 84.9622 117.12 84.9622 116.32V107.28C83.6289 107.2 82.3755 107.027 81.2022 106.76V100.84ZM106.482 100.32C107.602 100.293 108.709 100.333 109.802 100.44C110.896 100.52 112.002 100.653 113.122 100.84V137.28C112.002 137.067 110.896 136.907 109.802 136.8C108.709 136.72 107.602 136.667 106.482 136.64V100.32ZM80.8422 131.08C82.3089 131.373 83.7622 131.56 85.2022 131.64C86.6689 131.72 88.1355 131.733 89.6022 131.68V128.28C90.7222 128.227 91.8289 128.173 92.9222 128.12C94.0422 128.04 95.1622 127.92 96.2822 127.76V131.16C97.7222 131.027 99.1489 130.893 100.562 130.76C101.976 130.627 103.402 130.533 104.842 130.48V136.56C102.842 136.64 100.842 136.787 98.8422 137C96.8422 137.24 94.8422 137.44 92.8422 137.6C90.8422 137.787 88.8422 137.867 86.8422 137.84C84.8422 137.84 82.8422 137.627 80.8422 137.2V131.08ZM93.2422 121.32C93.9889 120.653 94.4422 119.933 94.6022 119.16C94.7889 118.36 94.8822 117.333 94.8822 116.08V106.96C94.3222 107.013 93.7622 107.053 93.2022 107.08C92.6689 107.107 92.1355 107.147 91.6022 107.2V116.4C91.6022 117.6 91.6822 118.587 91.8422 119.36C92.0022 120.133 92.4689 120.787 93.2422 121.32ZM141.698 120.44C140.791 120.387 139.924 120.373 139.098 120.4C138.298 120.4 137.431 120.427 136.498 120.48V128.12C136.498 129.773 136.204 131.187 135.618 132.36C135.058 133.56 134.284 134.547 133.298 135.32C132.338 136.093 131.204 136.667 129.898 137.04C128.618 137.413 127.244 137.6 125.778 137.6C124.444 137.6 123.191 137.453 122.018 137.16C120.871 136.867 119.858 136.4 118.978 135.76C118.124 135.147 117.444 134.36 116.938 133.4C116.431 132.467 116.178 131.347 116.178 130.04V109.28C116.178 107.76 116.471 106.44 117.058 105.32C117.671 104.2 118.484 103.28 119.498 102.56C120.511 101.813 121.671 101.267 122.978 100.92C124.311 100.547 125.698 100.36 127.138 100.36C130.018 100.36 132.298 101 133.978 102.28C135.658 103.533 136.498 105.36 136.498 107.76V114.44C137.431 114.387 138.298 114.347 139.098 114.32C139.924 114.293 140.791 114.307 141.698 114.36V100.32C142.818 100.293 143.924 100.333 145.018 100.44C146.111 100.52 147.218 100.653 148.338 100.84V137.28C147.218 137.067 146.111 136.907 145.018 136.8C143.924 136.72 142.818 136.667 141.698 136.64V120.44ZM129.858 109.48C129.858 108.44 129.644 107.64 129.218 107.08C128.791 106.52 127.978 106.24 126.778 106.24C125.311 106.24 124.271 106.627 123.658 107.4C123.044 108.147 122.738 109.133 122.738 110.36V128.28C122.738 129.48 122.978 130.36 123.458 130.92C123.938 131.453 124.711 131.72 125.778 131.72C127.298 131.72 128.351 131.347 128.938 130.6C129.551 129.827 129.858 128.72 129.858 127.28V109.48ZM168.924 131.72C171.271 131.853 173.551 131.84 175.764 131.68C178.004 131.52 180.271 131.253 182.564 130.88V136.8C179.178 137.307 175.791 137.64 172.404 137.8C169.018 137.96 165.618 137.76 162.204 137.2V100.8C163.298 100.96 164.404 101.093 165.524 101.2C166.671 101.28 167.804 101.333 168.924 101.36V131.72ZM184.924 100.28C186.044 100.2 187.151 100.173 188.244 100.2C189.338 100.2 190.444 100.24 191.564 100.32V114.48C192.338 114.533 193.098 114.6 193.844 114.68C194.591 114.733 195.351 114.813 196.124 114.92V121C195.351 120.893 194.591 120.8 193.844 120.72C193.098 120.64 192.338 120.573 191.564 120.52V136.72C190.444 136.64 189.338 136.587 188.244 136.56C187.151 136.56 186.044 136.587 184.924 136.64V100.28ZM197.3 117.08C200.073 117.64 202.833 117.867 205.58 117.76C208.353 117.627 211.127 117.427 213.9 117.16C216.673 116.867 219.433 116.653 222.18 116.52C224.953 116.387 227.727 116.6 230.5 117.16V122.6C228.66 122.2 226.807 121.987 224.94 121.96C223.1 121.907 221.26 121.947 219.42 122.08C217.58 122.187 215.74 122.347 213.9 122.56C212.06 122.747 210.22 122.907 208.38 123.04C206.54 123.173 204.687 123.213 202.82 123.16C200.98 123.107 199.14 122.893 197.3 122.52V117.08ZM228.5 138.48C226.873 138.213 225.247 138.08 223.62 138.08C221.993 138.08 220.367 138.133 218.74 138.24C217.113 138.373 215.487 138.547 213.86 138.76C212.233 138.973 210.607 139.133 208.98 139.24C207.353 139.373 205.727 139.44 204.1 139.44C202.473 139.44 200.847 139.307 199.22 139.04V128.84C201.113 129.16 203.007 129.307 204.9 129.28C206.82 129.227 208.727 129.107 210.62 128.92C212.54 128.733 214.447 128.533 216.34 128.32C218.26 128.107 220.167 127.987 222.06 127.96V127.28C220.167 127.307 218.26 127.427 216.34 127.64C214.447 127.853 212.54 128.053 210.62 128.24C208.727 128.427 206.82 128.547 204.9 128.6C203.007 128.627 201.113 128.48 199.22 128.16V123.44C201.673 123.84 204.113 123.973 206.54 123.84C208.993 123.68 211.433 123.467 213.86 123.2C216.287 122.933 218.713 122.72 221.14 122.56C223.593 122.4 226.047 122.52 228.5 122.92V133C226.607 132.68 224.7 132.533 222.78 132.56C220.887 132.613 218.98 132.733 217.06 132.92C215.167 133.107 213.26 133.307 211.34 133.52C209.447 133.76 207.553 133.893 205.66 133.92V134.68C207.553 134.653 209.447 134.533 211.34 134.32C213.26 134.133 215.167 133.96 217.06 133.8C218.98 133.64 220.887 133.547 222.78 133.52C224.7 133.493 226.607 133.64 228.5 133.96V138.48ZM228.5 116.12C226.1 115.747 223.673 115.627 221.22 115.76C218.767 115.893 216.313 116.093 213.86 116.36C211.407 116.6 208.953 116.787 206.5 116.92C204.047 117.053 201.62 116.933 199.22 116.56V106.4C201.14 106.72 203.033 106.853 204.9 106.8C206.793 106.747 208.673 106.627 210.54 106.44C212.407 106.253 214.273 106.067 216.14 105.88C218.033 105.667 219.94 105.573 221.86 105.6V104.96C219.94 104.987 218.033 105.107 216.14 105.32C214.273 105.507 212.407 105.68 210.54 105.84C208.673 106 206.793 106.107 204.9 106.16C203.033 106.187 201.14 106.04 199.22 105.72V101.04C201.62 101.413 204.047 101.533 206.5 101.4C208.953 101.267 211.407 101.08 213.86 100.84C216.313 100.6 218.753 100.413 221.18 100.28C223.633 100.12 226.073 100.213 228.5 100.56V110.56C226.58 110.267 224.673 110.147 222.78 110.2C220.913 110.253 219.047 110.373 217.18 110.56C215.313 110.747 213.433 110.947 211.54 111.16C209.673 111.347 207.78 111.44 205.86 111.44V112.24C207.807 112.24 209.713 112.133 211.58 111.92C213.447 111.707 215.313 111.52 217.18 111.36C219.047 111.173 220.913 111.053 222.78 111C224.647 110.947 226.553 111.067 228.5 111.36V116.12ZM257.247 101.04C258.207 100.933 259.287 100.813 260.487 100.68C261.687 100.547 262.767 100.467 263.727 100.44V126.2C262.58 126.333 261.433 126.467 260.287 126.6C259.14 126.733 257.967 126.84 256.767 126.92V131.4C257.993 131.293 259.22 131.173 260.447 131.04C261.673 130.907 262.9 130.76 264.127 130.6V136.72C262.34 136.96 260.54 137.173 258.727 137.36C256.94 137.547 255.14 137.68 253.327 137.76C251.513 137.84 249.7 137.84 247.887 137.76C246.1 137.707 244.313 137.52 242.527 137.2V131.08C243.78 131.293 245.033 131.44 246.287 131.52C247.54 131.627 248.807 131.68 250.087 131.68V127.2C248.913 127.2 247.767 127.173 246.647 127.12C245.527 127.04 244.407 126.907 243.287 126.72V100.92C244.22 101.053 245.287 101.16 246.487 101.24C247.687 101.293 248.753 101.333 249.687 101.36V108.84C250.407 108.867 251.073 108.88 251.687 108.88C252.3 108.88 252.9 108.867 253.487 108.84C254.073 108.813 254.66 108.773 255.247 108.72C255.86 108.667 256.527 108.6 257.247 108.52V101.04ZM265.727 100.28C266.847 100.2 267.953 100.173 269.047 100.2C270.14 100.2 271.247 100.24 272.367 100.32V114.4C273.14 114.453 273.9 114.52 274.647 114.6C275.393 114.653 276.153 114.733 276.927 114.84V120.92C276.153 120.813 275.393 120.72 274.647 120.64C273.9 120.56 273.14 120.493 272.367 120.44V136.72C271.247 136.64 270.14 136.587 269.047 136.56C267.953 136.56 266.847 136.587 265.727 136.64V100.28ZM249.687 121.28C250.407 121.307 251.073 121.32 251.687 121.32C252.3 121.32 252.9 121.307 253.487 121.28C254.073 121.227 254.66 121.173 255.247 121.12C255.86 121.067 256.527 121 257.247 120.92V114.44C256.527 114.52 255.86 114.587 255.247 114.64C254.66 114.693 254.073 114.733 253.487 114.76C252.9 114.787 252.3 114.8 251.687 114.8C251.073 114.8 250.407 114.787 249.687 114.76V121.28ZM279.262 101C281.022 101.293 282.796 101.44 284.582 101.44C286.369 101.413 288.156 101.333 289.942 101.2C291.729 101.04 293.516 100.867 295.302 100.68C297.089 100.493 298.862 100.36 300.622 100.28V106.36C299.396 106.413 298.169 106.507 296.942 106.64C295.742 106.747 294.516 106.867 293.262 107V108.04C293.262 108.867 293.316 109.6 293.422 110.24C293.529 110.853 293.729 111.373 294.022 111.8C294.342 112.2 294.769 112.507 295.302 112.72C295.862 112.907 296.582 113 297.462 113C298.129 113 298.716 112.96 299.222 112.88C299.729 112.773 300.289 112.613 300.902 112.4V118.32C300.129 118.613 299.369 118.813 298.622 118.92C297.902 119.027 297.156 119.08 296.382 119.08C294.809 119.08 293.529 118.827 292.542 118.32C291.582 117.813 290.756 117.053 290.062 116.04C289.529 117.053 288.702 117.907 287.582 118.6C286.489 119.267 285.116 119.613 283.462 119.64C282.689 119.667 281.942 119.653 281.222 119.6C280.502 119.52 279.782 119.373 279.062 119.16V113.24C279.596 113.373 280.076 113.453 280.502 113.48C280.929 113.507 281.449 113.52 282.062 113.52C282.756 113.52 283.382 113.44 283.942 113.28C284.502 113.12 284.969 112.853 285.342 112.48C285.742 112.08 286.049 111.547 286.262 110.88C286.476 110.213 286.582 109.36 286.582 108.32V107.48C285.329 107.533 284.089 107.533 282.862 107.48C281.662 107.427 280.462 107.293 279.262 107.08V101ZM303.382 133.68C302.076 133.653 300.782 133.667 299.502 133.72C298.222 133.773 296.942 133.893 295.662 134.08V128.2C296.942 128.04 298.222 127.933 299.502 127.88C300.782 127.827 302.076 127.827 303.382 127.88V100.32C304.502 100.293 305.609 100.333 306.702 100.44C307.796 100.52 308.902 100.653 310.022 100.84V137.28C308.902 137.067 307.796 136.907 306.702 136.8C305.609 136.72 304.502 136.667 303.382 136.64V133.68ZM286.542 127.32C285.049 127.373 283.569 127.36 282.102 127.28C280.662 127.2 279.209 127.013 277.742 126.72V120.6C279.742 121 281.742 121.213 283.742 121.24C285.742 121.24 287.742 121.16 289.742 121C291.742 120.84 293.742 120.653 295.742 120.44C297.742 120.2 299.742 120.053 301.742 120V126.12C300.302 126.173 298.876 126.267 297.462 126.4C296.076 126.533 294.662 126.667 293.222 126.8V137.32C292.102 137.507 290.982 137.627 289.862 137.68C288.769 137.76 287.662 137.827 286.542 137.88V127.32ZM7.24 181.72C9.58667 181.853 11.8667 181.84 14.08 181.68C16.32 181.52 18.5867 181.253 20.88 180.88V186.8C17.4933 187.307 14.1067 187.64 10.72 187.8C7.33333 187.96 3.93333 187.76 0.52 187.2V150.8C1.61333 150.96 2.72 151.093 3.84 151.2C4.98667 151.28 6.12 151.333 7.24 151.36V181.72ZM17.96 165C19.1867 164.707 20.44 164.493 21.72 164.36C23.0267 164.227 24.3333 164.2 25.64 164.28V150.32C26.76 150.293 27.8667 150.333 28.96 150.44C30.0533 150.52 31.16 150.653 32.28 150.84V187.28C31.16 187.067 30.0533 186.907 28.96 186.8C27.8667 186.72 26.76 186.667 25.64 186.64V170.16C24.3333 170.08 23.0267 170.107 21.72 170.24C20.44 170.373 19.1867 170.587 17.96 170.88V165ZM66.8156 188.52C65.189 188.253 63.5623 188.12 61.9356 188.12C60.309 188.12 58.6823 188.173 57.0556 188.28C55.429 188.413 53.8023 188.587 52.1756 188.8C50.549 189.013 48.9223 189.173 47.2956 189.28C45.669 189.413 44.0423 189.48 42.4156 189.48C40.789 189.48 39.1623 189.347 37.5356 189.08V174.28C38.6556 174.413 39.7623 174.52 40.8556 174.6C41.949 174.653 43.0556 174.667 44.1756 174.64V183.44C46.069 183.413 47.949 183.28 49.8156 183.04C51.709 182.827 53.589 182.627 55.4556 182.44C57.349 182.253 59.2423 182.133 61.1356 182.08C63.029 182.053 64.9223 182.2 66.8156 182.52V188.52ZM35.6156 166.88C38.389 167.44 41.149 167.667 43.8956 167.56C46.669 167.427 49.4423 167.227 52.2156 166.96C54.989 166.667 57.749 166.453 60.4956 166.32C63.269 166.187 66.0423 166.4 68.8156 166.96V172.88C66.9756 172.507 65.1223 172.293 63.2556 172.24C61.4156 172.187 59.5756 172.227 57.7356 172.36C55.8956 172.467 54.0556 172.627 52.2156 172.84C50.3756 173.027 48.5356 173.187 46.6956 173.32C44.8556 173.453 43.0023 173.493 41.1356 173.44C39.2956 173.387 37.4556 173.173 35.6156 172.8V166.88ZM66.8156 165.12C64.4156 164.747 61.989 164.64 59.5356 164.8C57.0823 164.933 54.629 165.133 52.1756 165.4C49.7223 165.64 47.269 165.84 44.8156 166C42.3623 166.133 39.9356 166.013 37.5356 165.64V150.64C38.0156 150.693 38.5356 150.747 39.0956 150.8C39.6823 150.827 40.269 150.853 40.8556 150.88C41.4423 150.907 42.0156 150.933 42.5756 150.96C43.1623 150.987 43.6956 151 44.1756 151V159.88C46.0956 159.88 47.989 159.787 49.8556 159.6C51.749 159.387 53.629 159.187 55.4956 159C57.3623 158.813 59.229 158.707 61.0956 158.68C62.989 158.653 64.8956 158.813 66.8156 159.16V165.12ZM106.482 170.44C105.576 170.387 104.709 170.373 103.882 170.4C103.082 170.4 102.216 170.427 101.282 170.48V178.12C101.282 179.773 100.989 181.187 100.402 182.36C99.8422 183.56 99.0689 184.547 98.0822 185.32C97.1222 186.093 95.9889 186.667 94.6822 187.04C93.4022 187.413 92.0289 187.6 90.5622 187.6C89.2289 187.6 87.9755 187.453 86.8022 187.16C85.6555 186.867 84.6422 186.4 83.7622 185.76C82.9089 185.147 82.2289 184.36 81.7222 183.4C81.2155 182.467 80.9622 181.347 80.9622 180.04V159.28C80.9622 157.76 81.2555 156.44 81.8422 155.32C82.4555 154.2 83.2689 153.28 84.2822 152.56C85.2955 151.813 86.4555 151.267 87.7622 150.92C89.0955 150.547 90.4822 150.36 91.9222 150.36C94.8022 150.36 97.0822 151 98.7622 152.28C100.442 153.533 101.282 155.36 101.282 157.76V164.44C102.216 164.387 103.082 164.347 103.882 164.32C104.709 164.293 105.576 164.307 106.482 164.36V150.32C107.602 150.293 108.709 150.333 109.802 150.44C110.896 150.52 112.002 150.653 113.122 150.84V187.28C112.002 187.067 110.896 186.907 109.802 186.8C108.709 186.72 107.602 186.667 106.482 186.64V170.44ZM94.6422 159.48C94.6422 158.44 94.4289 157.64 94.0022 157.08C93.5755 156.52 92.7622 156.24 91.5622 156.24C90.0955 156.24 89.0555 156.627 88.4422 157.4C87.8289 158.147 87.5222 159.133 87.5222 160.36V178.28C87.5222 179.48 87.7622 180.36 88.2422 180.92C88.7222 181.453 89.4955 181.72 90.5622 181.72C92.0822 181.72 93.1355 181.347 93.7222 180.6C94.3355 179.827 94.6422 178.72 94.6422 177.28V159.48ZM141.698 150.28C142.818 150.28 143.924 150.333 145.018 150.44C146.111 150.547 147.218 150.667 148.338 150.8V178.44C147.218 178.28 146.111 178.147 145.018 178.04C143.924 177.907 142.818 177.84 141.698 177.84V150.28ZM123.298 166.92C125.644 167 127.924 166.947 130.138 166.76C132.351 166.547 134.604 166.253 136.898 165.88V172C133.511 172.507 130.124 172.84 126.738 173C123.378 173.16 119.991 172.96 116.578 172.4V150.76C119.991 151.293 123.378 151.48 126.738 151.32C130.124 151.16 133.511 150.853 136.898 150.4V156.4C134.604 156.72 132.338 156.973 130.098 157.16C127.884 157.347 125.618 157.373 123.298 157.24V166.92ZM148.338 188.8C146.578 188.4 144.804 188.173 143.018 188.12C141.258 188.093 139.498 188.147 137.738 188.28C135.978 188.413 134.218 188.587 132.458 188.8C130.698 189.013 128.938 189.187 127.178 189.32C125.418 189.453 123.644 189.493 121.858 189.44C120.098 189.413 118.338 189.2 116.578 188.8V173.76C117.671 173.947 118.751 174.093 119.818 174.2C120.911 174.307 122.018 174.373 123.138 174.4V183.44C125.244 183.467 127.338 183.36 129.418 183.12C131.524 182.88 133.631 182.653 135.738 182.44C137.844 182.253 139.938 182.147 142.018 182.12C144.124 182.093 146.231 182.32 148.338 182.8V188.8ZM165.393 157.08C164.14 157.187 162.953 157.267 161.833 157.32C160.74 157.347 159.647 157.347 158.553 157.32C157.487 157.293 156.407 157.24 155.313 157.16C154.22 157.053 153.047 156.907 151.793 156.72V150.8C155.207 151.333 158.593 151.533 161.953 151.4C165.34 151.24 168.727 150.933 172.113 150.48V186.8C170.993 186.853 169.873 186.947 168.753 187.08C167.633 187.24 166.513 187.413 165.393 187.6V157.08ZM174.513 150.28C175.633 150.2 176.74 150.173 177.833 150.2C178.927 150.2 180.033 150.24 181.153 150.32V164.48C181.927 164.533 182.687 164.6 183.433 164.68C184.18 164.733 184.94 164.813 185.713 164.92V171C184.94 170.893 184.18 170.8 183.433 170.72C182.687 170.64 181.927 170.573 181.153 170.52V186.72C180.033 186.64 178.927 186.587 177.833 186.56C176.74 186.56 175.633 186.587 174.513 186.64V150.28ZM204.649 170.68C204.276 170.733 203.916 170.787 203.569 170.84C203.249 170.867 202.902 170.907 202.529 170.96V178.08C202.529 179.813 202.342 181.28 201.969 182.48C201.596 183.707 201.049 184.693 200.329 185.44C199.609 186.213 198.729 186.76 197.689 187.08C196.649 187.427 195.476 187.6 194.169 187.6C191.742 187.6 189.876 186.947 188.569 185.64C187.262 184.333 186.609 182.267 186.609 179.44V159.68C186.609 158.267 186.769 156.987 187.089 155.84C187.409 154.693 187.916 153.72 188.609 152.92C189.302 152.093 190.196 151.467 191.289 151.04C192.409 150.587 193.769 150.36 195.369 150.36C197.876 150.36 199.689 151.04 200.809 152.4C201.956 153.733 202.529 155.773 202.529 158.52V164.88C202.876 164.827 203.222 164.787 203.569 164.76C203.916 164.707 204.276 164.653 204.649 164.6V150.6C205.769 150.467 206.822 150.373 207.809 150.32C208.822 150.24 209.889 150.227 211.009 150.28V186.6C209.889 186.573 208.822 186.587 207.809 186.64C206.822 186.693 205.769 186.813 204.649 187V170.68ZM212.409 150.28C213.529 150.253 214.582 150.293 215.569 150.4C216.582 150.48 217.649 150.613 218.769 150.8V187.28C217.649 187.067 216.582 186.907 215.569 186.8C214.582 186.72 213.529 186.667 212.409 186.64V150.28ZM192.889 179.52C192.889 180.213 192.969 180.8 193.129 181.28C193.316 181.76 193.729 182 194.369 182C194.982 182 195.422 181.787 195.689 181.36C195.982 180.96 196.129 180.213 196.129 179.12V158.36C196.129 157.48 196.022 156.867 195.809 156.52C195.596 156.147 195.182 155.96 194.569 155.96C193.929 155.96 193.489 156.213 193.249 156.72C193.009 157.2 192.889 157.88 192.889 158.76V179.52ZM238.905 187.08C237.331 187.08 236.051 186.813 235.065 186.28C234.105 185.773 233.278 185.013 232.585 184C232.051 185.04 231.225 185.893 230.105 186.56C229.011 187.227 227.638 187.587 225.985 187.64C225.211 187.667 224.465 187.64 223.745 187.56C223.025 187.507 222.305 187.373 221.585 187.16V181.24C222.118 181.373 222.598 181.453 223.025 181.48C223.451 181.507 223.971 181.52 224.585 181.52C225.971 181.52 227.065 181.107 227.865 180.28C228.691 179.427 229.105 177.973 229.105 175.92V150.96C230.225 150.987 231.331 150.947 232.425 150.84C233.545 150.707 234.665 150.52 235.785 150.28V175.64C235.785 176.467 235.838 177.213 235.945 177.88C236.051 178.547 236.251 179.107 236.545 179.56C236.865 180.013 237.291 180.373 237.825 180.64C238.385 180.88 239.105 181 239.985 181C240.651 181 241.238 180.96 241.745 180.88C242.251 180.773 242.811 180.613 243.425 180.4V186.32C242.651 186.613 241.891 186.813 241.145 186.92C240.425 187.027 239.678 187.08 238.905 187.08ZM247.345 170.44C246.145 170.387 244.998 170.373 243.905 170.4C242.838 170.427 241.598 170.507 240.185 170.64V164.6C241.571 164.493 242.811 164.427 243.905 164.4C244.998 164.347 246.145 164.333 247.345 164.36V150.32C248.465 150.293 249.571 150.333 250.665 150.44C251.758 150.52 252.865 150.653 253.985 150.84V187.28C252.865 187.067 251.758 186.907 250.665 186.8C249.571 186.72 248.465 186.667 247.345 186.64V170.44ZM267.851 150.76C271.265 151.347 274.651 151.56 278.011 151.4C281.398 151.213 284.785 150.88 288.171 150.4V172C284.785 172.533 281.398 172.88 278.011 173.04C274.651 173.2 271.265 172.987 267.851 172.4V150.76ZM267.851 174C270.411 174.533 272.945 174.773 275.451 174.72C277.958 174.64 280.438 174.48 282.891 174.24C285.371 173.973 287.798 173.733 290.171 173.52C292.571 173.28 294.918 173.28 297.211 173.52V188.96C296.091 188.827 294.985 188.747 293.891 188.72C292.798 188.72 291.691 188.747 290.571 188.8V179.48C288.678 179.64 286.785 179.84 284.891 180.08C283.025 180.293 281.131 180.467 279.211 180.6C277.318 180.707 275.425 180.733 273.531 180.68C271.638 180.627 269.745 180.4 267.851 180V174ZM290.571 150.28C291.691 150.2 292.798 150.173 293.891 150.2C294.985 150.2 296.091 150.24 297.211 150.32V158.16C297.985 158.213 298.745 158.28 299.491 158.36C300.238 158.413 300.998 158.493 301.771 158.6V164.68C300.998 164.573 300.238 164.48 299.491 164.4C298.745 164.32 297.985 164.253 297.211 164.2V171.88C296.091 171.8 294.985 171.76 293.891 171.76C292.798 171.733 291.691 171.747 290.571 171.8V150.28ZM274.171 166.92C275.371 167 276.638 167.027 277.971 167C279.331 166.947 280.611 166.853 281.811 166.72V157.04C280.611 157.2 279.331 157.293 277.971 157.32C276.638 157.347 275.371 157.32 274.171 157.24V166.92ZM328.467 170.36H327.067V186.6C325.947 186.573 324.88 186.587 323.867 186.64C322.88 186.693 321.827 186.813 320.707 187V150.6C321.827 150.467 322.88 150.373 323.867 150.32C324.88 150.24 325.947 150.227 327.067 150.28V164.28H328.467V150.28C329.587 150.253 330.64 150.293 331.627 150.4C332.64 150.48 333.707 150.613 334.827 150.8V187.28C333.707 187.067 332.64 186.907 331.627 186.8C330.64 186.72 329.587 186.667 328.467 186.64V170.36ZM309.547 181.76C311.067 181.84 312.654 181.813 314.307 181.68C315.96 181.547 317.534 181.36 319.027 181.12V187.16C316.28 187.587 313.614 187.813 311.027 187.84C308.467 187.867 305.814 187.64 303.067 187.16V150.8C304.16 150.96 305.227 151.093 306.267 151.2C307.334 151.28 308.427 151.333 309.547 151.36V181.76ZM358.203 178.12C358.203 179.773 357.909 181.187 357.323 182.36C356.763 183.56 355.989 184.547 355.003 185.32C354.043 186.093 352.909 186.667 351.603 187.04C350.323 187.413 348.949 187.6 347.483 187.6C346.149 187.6 344.896 187.453 343.723 187.16C342.576 186.867 341.563 186.4 340.683 185.76C339.829 185.147 339.149 184.36 338.643 183.4C338.136 182.467 337.883 181.347 337.883 180.04V159.28C337.883 157.76 338.176 156.44 338.763 155.32C339.376 154.2 340.189 153.28 341.203 152.56C342.216 151.813 343.376 151.267 344.683 150.92C346.016 150.547 347.403 150.36 348.843 150.36C351.723 150.36 354.003 151 355.683 152.28C357.363 153.533 358.203 155.36 358.203 157.76V178.12ZM361.003 150.28C362.123 150.2 363.229 150.173 364.323 150.2C365.416 150.2 366.523 150.24 367.643 150.32V157.2C368.416 157.253 369.176 157.32 369.923 157.4C370.669 157.453 371.429 157.533 372.203 157.64V163.72C371.429 163.613 370.669 163.52 369.923 163.44C369.176 163.36 368.416 163.293 367.643 163.24V171.6C368.416 171.653 369.176 171.72 369.923 171.8C370.669 171.853 371.429 171.933 372.203 172.04V178.12C371.429 178.013 370.669 177.92 369.923 177.84C369.176 177.76 368.416 177.693 367.643 177.64V186.72C366.523 186.64 365.416 186.587 364.323 186.56C363.229 186.56 362.123 186.587 361.003 186.64V150.28ZM351.563 159.48C351.563 158.44 351.349 157.64 350.923 157.08C350.496 156.52 349.683 156.24 348.483 156.24C347.016 156.24 345.976 156.627 345.363 157.4C344.749 158.147 344.443 159.133 344.443 160.36V178.28C344.443 179.48 344.683 180.36 345.163 180.92C345.643 181.453 346.416 181.72 347.483 181.72C349.003 181.72 350.056 181.347 350.643 180.6C351.256 179.827 351.563 178.72 351.563 177.28V159.48ZM400.589 187.08C399.016 187.08 397.736 186.813 396.749 186.28C395.789 185.773 394.962 185.013 394.269 184C393.736 185.04 392.909 185.893 391.789 186.56C390.696 187.227 389.322 187.587 387.669 187.64C386.896 187.667 386.149 187.64 385.429 187.56C384.709 187.507 383.989 187.373 383.269 187.16V181.24C383.802 181.373 384.282 181.453 384.709 181.48C385.136 181.507 385.656 181.52 386.269 181.52C387.656 181.52 388.749 181.107 389.549 180.28C390.376 179.427 390.789 177.973 390.789 175.92V150.96C391.909 150.987 393.016 150.947 394.109 150.84C395.229 150.707 396.349 150.52 397.469 150.28V175.64C397.469 176.467 397.522 177.213 397.629 177.88C397.736 178.547 397.936 179.107 398.229 179.56C398.549 180.013 398.976 180.373 399.509 180.64C400.069 180.88 400.789 181 401.669 181C402.336 181 402.922 180.96 403.429 180.88C403.936 180.773 404.496 180.613 405.109 180.4V186.32C404.336 186.613 403.576 186.813 402.829 186.92C402.109 187.027 401.362 187.08 400.589 187.08ZM406.629 150.28C407.749 150.2 408.856 150.173 409.949 150.2C411.042 150.2 412.149 150.24 413.269 150.32V164.48C414.042 164.533 414.802 164.6 415.549 164.68C416.296 164.733 417.056 164.813 417.829 164.92V171C417.056 170.893 416.296 170.8 415.549 170.72C414.802 170.64 414.042 170.573 413.269 170.52V186.72C412.149 186.64 411.042 186.587 409.949 186.56C408.856 186.56 407.749 186.587 406.629 186.64V150.28ZM427.205 189.44C425.925 189.44 424.765 189.307 423.725 189.04C422.711 188.773 421.845 188.347 421.125 187.76C420.405 187.173 419.845 186.4 419.445 185.44C419.071 184.507 418.885 183.333 418.885 181.92C418.885 180.56 419.085 179.413 419.485 178.48C419.911 177.547 420.498 176.8 421.245 176.24C421.991 175.653 422.871 175.24 423.885 175C424.898 174.76 426.005 174.64 427.205 174.64C428.511 174.64 429.698 174.587 430.765 174.48C431.858 174.347 432.925 174.213 433.965 174.08C435.005 173.947 436.058 173.827 437.125 173.72C438.218 173.587 439.405 173.52 440.685 173.52C445.991 173.52 448.645 175.893 448.645 180.64C448.645 182.053 448.471 183.253 448.125 184.24C447.778 185.227 447.245 186.013 446.525 186.6C445.831 187.213 444.965 187.653 443.925 187.92C442.885 188.187 441.671 188.32 440.285 188.32C439.085 188.32 437.978 188.373 436.965 188.48C435.951 188.613 434.938 188.747 433.925 188.88C432.911 189.04 431.858 189.173 430.765 189.28C429.698 189.387 428.511 189.44 427.205 189.44ZM439.845 172C436.378 172.48 432.925 172.813 429.485 173C426.045 173.187 422.591 172.987 419.125 172.4V158.44C421.391 158.787 423.685 158.987 426.005 159.04C428.325 159.093 430.631 159.013 432.925 158.8V156.84C430.631 157.053 428.325 157.133 426.005 157.08C423.685 157.027 421.391 156.827 419.125 156.48V150.8C422.538 151.333 425.925 151.52 429.285 151.36C432.671 151.2 436.058 150.893 439.445 150.44V163.92C437.151 164.187 434.845 164.453 432.525 164.72C430.205 164.987 427.885 165.053 425.565 164.92V167.12C427.965 167.253 430.351 167.213 432.725 167C435.098 166.787 437.471 166.507 439.845 166.16V172ZM441.845 150.28C442.965 150.2 444.071 150.173 445.165 150.2C446.258 150.2 447.365 150.24 448.485 150.32V158.16C449.258 158.213 450.018 158.28 450.765 158.36C451.511 158.413 452.271 158.493 453.045 158.6V164.68C452.271 164.573 451.511 164.48 450.765 164.4C450.018 164.32 449.258 164.253 448.485 164.2V171.88C447.365 171.8 446.258 171.76 445.165 171.76C444.071 171.733 442.965 171.747 441.845 171.8V150.28ZM440.445 182.2C440.898 182.2 441.271 182.107 441.565 181.92C441.858 181.733 442.005 181.387 442.005 180.88C442.005 180.4 441.871 180.067 441.605 179.88C441.338 179.667 440.951 179.56 440.445 179.56C439.111 179.56 437.898 179.627 436.805 179.76C435.711 179.867 434.645 180 433.605 180.16C432.591 180.293 431.551 180.427 430.485 180.56C429.445 180.667 428.298 180.72 427.045 180.72C426.565 180.72 426.178 180.813 425.885 181C425.591 181.213 425.445 181.573 425.445 182.08C425.445 182.587 425.591 182.92 425.885 183.08C426.178 183.267 426.565 183.36 427.045 183.36C428.405 183.36 429.631 183.293 430.725 183.16C431.818 183.053 432.871 182.92 433.885 182.76C434.925 182.627 435.965 182.493 437.005 182.36C438.045 182.253 439.191 182.2 440.445 182.2ZM454.22 164.36C456.994 164.92 459.754 165.147 462.5 165.04C465.274 164.907 468.047 164.707 470.82 164.44C473.594 164.147 476.354 163.933 479.1 163.8C481.874 163.667 484.647 163.88 487.42 164.44V169.88C485.58 169.507 483.727 169.293 481.86 169.24C480.02 169.187 478.18 169.227 476.34 169.36C474.5 169.467 472.66 169.627 470.82 169.84C468.98 170.027 467.14 170.187 465.3 170.32C463.46 170.453 461.607 170.493 459.74 170.44C457.9 170.387 456.06 170.173 454.22 169.8V164.36ZM485.42 188.48C483.794 188.213 482.167 188.08 480.54 188.08C478.914 188.08 477.287 188.133 475.66 188.24C474.034 188.373 472.407 188.547 470.78 188.76C469.154 188.973 467.527 189.133 465.9 189.24C464.274 189.373 462.647 189.44 461.02 189.44C459.394 189.44 457.767 189.307 456.14 189.04V177.44C458.034 177.76 459.927 177.907 461.82 177.88C463.74 177.827 465.647 177.707 467.54 177.52C469.46 177.333 471.367 177.133 473.26 176.92C475.18 176.707 477.087 176.587 478.98 176.56V175.68C477.087 175.707 475.18 175.827 473.26 176.04C471.367 176.253 469.46 176.453 467.54 176.64C465.647 176.827 463.74 176.947 461.82 177C459.927 177.027 458.034 176.88 456.14 176.56V171.2C458.594 171.6 461.034 171.733 463.46 171.6C465.914 171.44 468.354 171.227 470.78 170.96C473.207 170.693 475.634 170.48 478.06 170.32C480.514 170.16 482.967 170.28 485.42 170.68V182.2C483.527 181.88 481.62 181.733 479.7 181.76C477.807 181.813 475.9 181.933 473.98 182.12C472.087 182.307 470.18 182.507 468.26 182.72C466.367 182.96 464.474 183.093 462.58 183.12V184.08C464.474 184.053 466.367 183.92 468.26 183.68C470.18 183.467 472.087 183.267 473.98 183.08C475.9 182.893 477.807 182.773 479.7 182.72C481.62 182.693 483.527 182.84 485.42 183.16V188.48ZM477.22 162.64C476.127 162.64 475.02 162.707 473.9 162.84C472.78 162.947 471.647 163.08 470.5 163.24C469.354 163.373 468.194 163.507 467.02 163.64C465.847 163.747 464.674 163.8 463.5 163.8C462.434 163.8 461.447 163.693 460.54 163.48C459.634 163.24 458.834 162.88 458.14 162.4C457.474 161.92 456.94 161.307 456.54 160.56C456.167 159.787 455.98 158.853 455.98 157.76C455.98 156.56 456.18 155.56 456.58 154.76C456.98 153.96 457.54 153.307 458.26 152.8C459.007 152.293 459.887 151.933 460.9 151.72C461.914 151.507 463.047 151.4 464.3 151.4C465.474 151.4 466.62 151.347 467.74 151.24C468.887 151.107 470.02 150.973 471.14 150.84C472.287 150.68 473.42 150.547 474.54 150.44C475.687 150.307 476.847 150.24 478.02 150.24C483.06 150.24 485.58 152.133 485.58 155.92C485.58 157.253 485.367 158.36 484.94 159.24C484.54 160.093 483.967 160.773 483.22 161.28C482.474 161.787 481.594 162.147 480.58 162.36C479.567 162.547 478.447 162.64 477.22 162.64ZM463.5 158.4C464.754 158.4 465.98 158.347 467.18 158.24C468.38 158.107 469.567 157.973 470.74 157.84C471.94 157.68 473.14 157.547 474.34 157.44C475.54 157.307 476.767 157.24 478.02 157.24C478.767 157.24 479.14 156.96 479.14 156.4C479.14 155.84 478.767 155.56 478.02 155.56C476.66 155.56 475.354 155.627 474.1 155.76C472.847 155.867 471.634 156 470.46 156.16C469.287 156.293 468.114 156.427 466.94 156.56C465.794 156.667 464.647 156.72 463.5 156.72C462.754 156.72 462.38 157.027 462.38 157.64C462.38 158.147 462.754 158.4 463.5 158.4ZM6.96 206.6C9.41333 206.68 11.88 206.6 14.36 206.36V201.16C15.48 201.053 16.56 200.933 17.6 200.8C18.64 200.64 19.72 200.52 20.84 200.44V222C17.4533 222.533 14.0667 222.88 10.68 223.04C7.32 223.2 3.93333 222.987 0.52 222.4V200.8C1.61333 200.933 2.68 201.053 3.72 201.16C4.76 201.267 5.84 201.333 6.96 201.36V206.6ZM29.88 238.32C27.2133 238.107 24.64 238.107 22.16 238.32C19.7067 238.56 17.28 238.8 14.88 239.04C12.48 239.307 10.0933 239.467 7.72 239.52C5.37333 239.573 2.97333 239.333 0.52 238.8V223.96C2.97333 224.493 5.41333 224.733 7.84 224.68C10.2933 224.6 12.7467 224.44 15.2 224.2C17.6533 223.96 20.0933 223.733 22.52 223.52C24.9733 223.28 27.4267 223.267 29.88 223.48V229.48C27.96 229.267 26.0533 229.227 24.16 229.36C22.2667 229.493 20.3733 229.68 18.48 229.92C16.5867 230.133 14.6933 230.333 12.8 230.52C10.9067 230.707 9 230.747 7.08 230.64V233.44C9 233.573 10.8667 233.533 12.68 233.32C14.4933 233.133 16.32 232.92 18.16 232.68C20.0267 232.44 21.92 232.253 23.84 232.12C25.76 231.987 27.7733 232.053 29.88 232.32V238.32ZM23.24 200.28C24.36 200.2 25.4667 200.173 26.56 200.2C27.6533 200.2 28.76 200.24 29.88 200.32V208.16C30.6533 208.213 31.4133 208.28 32.16 208.36C32.9067 208.413 33.6667 208.493 34.44 208.6V214.68C33.6667 214.573 32.9067 214.48 32.16 214.4C31.4133 214.32 30.6533 214.253 29.88 214.2V221.88C28.76 221.8 27.6533 221.76 26.56 221.76C25.4667 221.733 24.36 221.747 23.24 221.8V200.28ZM14.36 212.36C13.1067 212.493 11.8667 212.587 10.64 212.64C9.44 212.693 8.21333 212.693 6.96 212.64V217C8.16 217.08 9.38667 217.107 10.64 217.08C11.92 217.027 13.16 216.933 14.36 216.8V212.36ZM60.1756 206.16C58.2823 206.187 56.389 206.307 54.4956 206.52C52.629 206.707 50.749 206.893 48.8556 207.08C46.9623 207.267 45.069 207.387 43.1756 207.44C41.309 207.467 39.429 207.32 37.5356 207V201.08C39.989 201.453 42.429 201.573 44.8556 201.44C47.309 201.28 49.749 201.08 52.1756 200.84C54.6023 200.573 57.029 200.373 59.4556 200.24C61.909 200.08 64.3623 200.187 66.8156 200.56V226.96C65.6956 226.827 64.589 226.733 63.4956 226.68C62.4023 226.6 61.2956 226.573 60.1756 226.6V206.16ZM35.6156 231.08C37.429 231.453 39.229 231.667 41.0156 231.72C42.829 231.773 44.6423 231.747 46.4556 231.64V215.48C47.5756 215.427 48.6823 215.333 49.7756 215.2C50.869 215.04 51.9756 214.893 53.0956 214.76V231.04C55.709 230.8 58.3223 230.64 60.9356 230.56C63.5756 230.453 66.2023 230.653 68.8156 231.16V237.24C66.9756 236.867 65.1223 236.653 63.2556 236.6C61.4156 236.547 59.5756 236.573 57.7356 236.68C55.8956 236.813 54.0556 236.973 52.2156 237.16C50.3756 237.373 48.5356 237.547 46.6956 237.68C44.8556 237.813 43.0023 237.853 41.1356 237.8C39.2956 237.747 37.4556 237.533 35.6156 237.16V231.08ZM83.1622 212.4C85.0289 212.72 86.9089 212.867 88.8022 212.84C90.6955 212.787 92.5889 212.68 94.4822 212.52C96.3755 212.333 98.2555 212.147 100.122 211.96C102.016 211.747 103.909 211.627 105.802 211.6V206.16C103.909 206.187 102.016 206.307 100.122 206.52C98.2555 206.707 96.3755 206.893 94.4822 207.08C92.5889 207.267 90.6955 207.387 88.8022 207.44C86.9355 207.467 85.0555 207.32 83.1622 207V201.08C85.6155 201.453 88.0555 201.573 90.4822 201.44C92.9355 201.28 95.3755 201.08 97.8022 200.84C100.229 200.573 102.656 200.373 105.082 200.24C107.536 200.08 109.989 200.187 112.442 200.56V226.96C111.322 226.827 110.216 226.733 109.122 226.68C108.029 226.6 106.922 226.573 105.802 226.6V217.48C103.909 217.507 102.016 217.627 100.122 217.84C98.2555 218.027 96.3755 218.213 94.4822 218.4C92.5889 218.56 90.6955 218.667 88.8022 218.72C86.9089 218.747 85.0289 218.6 83.1622 218.28V212.4ZM81.2422 231.08C84.0155 231.64 86.7755 231.853 89.5222 231.72C92.2955 231.613 95.0689 231.413 97.8422 231.12C100.616 230.853 103.376 230.653 106.122 230.52C108.896 230.387 111.669 230.6 114.442 231.16V237.24C112.602 236.867 110.749 236.653 108.882 236.6C107.042 236.547 105.202 236.573 103.362 236.68C101.522 236.813 99.6822 236.973 97.8422 237.16C96.0022 237.373 94.1622 237.547 92.3222 237.68C90.4822 237.813 88.6289 237.853 86.7622 237.8C84.9222 237.747 83.0822 237.533 81.2422 237.16V231.08ZM147.658 238.52C146.031 238.253 144.404 238.12 142.778 238.12C141.151 238.12 139.524 238.173 137.898 238.28C136.271 238.413 134.644 238.587 133.018 238.8C131.391 239.013 129.764 239.173 128.138 239.28C126.511 239.413 124.884 239.48 123.258 239.48C121.631 239.48 120.004 239.347 118.378 239.08V224.28C119.498 224.413 120.604 224.52 121.698 224.6C122.791 224.653 123.898 224.667 125.018 224.64V233.44C126.911 233.413 128.791 233.28 130.658 233.04C132.551 232.827 134.431 232.627 136.298 232.44C138.191 232.253 140.084 232.133 141.978 232.08C143.871 232.053 145.764 232.2 147.658 232.52V238.52ZM116.458 216.88C119.231 217.44 121.991 217.667 124.738 217.56C127.511 217.427 130.284 217.227 133.058 216.96C135.831 216.667 138.591 216.453 141.338 216.32C144.111 216.187 146.884 216.4 149.658 216.96V222.88C147.818 222.507 145.964 222.293 144.098 222.24C142.258 222.187 140.418 222.227 138.578 222.36C136.738 222.467 134.898 222.627 133.058 222.84C131.218 223.027 129.378 223.187 127.538 223.32C125.698 223.453 123.844 223.493 121.978 223.44C120.138 223.387 118.298 223.173 116.458 222.8V216.88ZM147.658 215.12C145.258 214.747 142.831 214.64 140.378 214.8C137.924 214.933 135.471 215.133 133.018 215.4C130.564 215.64 128.111 215.84 125.658 216C123.204 216.133 120.778 216.013 118.378 215.64V200.64C118.858 200.693 119.378 200.747 119.938 200.8C120.524 200.827 121.111 200.853 121.698 200.88C122.284 200.907 122.858 200.933 123.418 200.96C124.004 200.987 124.538 201 125.018 201V209.88C126.938 209.88 128.831 209.787 130.698 209.6C132.591 209.387 134.471 209.187 136.338 209C138.204 208.813 140.071 208.707 141.938 208.68C143.831 208.653 145.738 208.813 147.658 209.16V215.12ZM168.924 231.72C171.271 231.853 173.551 231.84 175.764 231.68C178.004 231.52 180.271 231.253 182.564 230.88V236.8C179.178 237.307 175.791 237.64 172.404 237.8C169.018 237.96 165.618 237.76 162.204 237.2V200.8C163.298 200.96 164.404 201.093 165.524 201.2C166.671 201.28 167.804 201.333 168.924 201.36V231.72ZM184.924 200.28C186.044 200.2 187.151 200.173 188.244 200.2C189.338 200.2 190.444 200.24 191.564 200.32V214.48C192.338 214.533 193.098 214.6 193.844 214.68C194.591 214.733 195.351 214.813 196.124 214.92V221C195.351 220.893 194.591 220.8 193.844 220.72C193.098 220.64 192.338 220.573 191.564 220.52V236.72C190.444 236.64 189.338 236.587 188.244 236.56C187.151 236.56 186.044 236.587 184.924 236.64V200.28ZM199.22 201.04C201.673 201.413 204.113 201.533 206.54 201.4C208.993 201.267 211.433 201.08 213.86 200.84C216.287 200.6 218.713 200.413 221.14 200.28C223.593 200.12 226.047 200.213 228.5 200.56V221.12C226.047 220.747 223.593 220.627 221.14 220.76C218.713 220.893 216.287 221.093 213.86 221.36C211.433 221.6 208.993 221.787 206.54 221.92C204.113 222.053 201.673 221.933 199.22 221.56V201.04ZM197.3 223.64C200.073 224.2 202.833 224.427 205.58 224.32C208.353 224.187 211.127 223.987 213.9 223.72C216.673 223.427 219.433 223.213 222.18 223.08C224.953 222.947 227.727 223.16 230.5 223.72V229.8C228.26 229.347 226.033 229.12 223.82 229.12C221.633 229.12 219.433 229.227 217.22 229.44V237.6C216.1 237.733 214.993 237.88 213.9 238.04C212.807 238.2 211.7 238.32 210.58 238.4V230.08C208.34 230.293 206.113 230.4 203.9 230.4C201.713 230.4 199.513 230.173 197.3 229.72V223.64ZM205.82 215.84C207.18 215.867 208.527 215.813 209.86 215.68C211.193 215.52 212.513 215.36 213.82 215.2C215.153 215.04 216.487 214.893 217.82 214.76C219.153 214.627 220.5 214.573 221.86 214.6V206.24C220.5 206.213 219.153 206.267 217.82 206.4C216.487 206.507 215.153 206.653 213.82 206.84C212.513 207 211.193 207.16 209.86 207.32C208.527 207.453 207.18 207.507 205.82 207.48V215.84ZM252.556 228.12C252.556 229.773 252.262 231.187 251.676 232.36C251.116 233.56 250.342 234.547 249.356 235.32C248.396 236.093 247.262 236.667 245.956 237.04C244.676 237.413 243.302 237.6 241.836 237.6C240.502 237.6 239.249 237.453 238.076 237.16C236.929 236.867 235.916 236.4 235.036 235.76C234.182 235.147 233.502 234.36 232.996 233.4C232.489 232.467 232.236 231.347 232.236 230.04V209.28C232.236 207.76 232.529 206.44 233.116 205.32C233.729 204.2 234.542 203.28 235.556 202.56C236.569 201.813 237.729 201.267 239.036 200.92C240.369 200.547 241.756 200.36 243.196 200.36C246.076 200.36 248.356 201 250.036 202.28C251.716 203.533 252.556 205.36 252.556 207.76V228.12ZM255.356 200.28C256.476 200.2 257.582 200.173 258.676 200.2C259.769 200.2 260.876 200.24 261.996 200.32V207.2C262.769 207.253 263.529 207.32 264.276 207.4C265.022 207.453 265.782 207.533 266.556 207.64V213.72C265.782 213.613 265.022 213.52 264.276 213.44C263.529 213.36 262.769 213.293 261.996 213.24V221.6C262.769 221.653 263.529 221.72 264.276 221.8C265.022 221.853 265.782 221.933 266.556 222.04V228.12C265.782 228.013 265.022 227.92 264.276 227.84C263.529 227.76 262.769 227.693 261.996 227.64V236.72C260.876 236.64 259.769 236.587 258.676 236.56C257.582 236.56 256.476 236.587 255.356 236.64V200.28ZM245.916 209.48C245.916 208.44 245.702 207.64 245.276 207.08C244.849 206.52 244.036 206.24 242.836 206.24C241.369 206.24 240.329 206.627 239.716 207.4C239.102 208.147 238.796 209.133 238.796 210.36V228.28C238.796 229.48 239.036 230.36 239.516 230.92C239.996 231.453 240.769 231.72 241.836 231.72C243.356 231.72 244.409 231.347 244.996 230.6C245.609 229.827 245.916 228.72 245.916 227.28V209.48ZM310.022 238.8C308.262 238.4 306.489 238.173 304.702 238.12C302.942 238.093 301.182 238.147 299.422 238.28C297.662 238.413 295.902 238.587 294.142 238.8C292.382 239.013 290.622 239.187 288.862 239.32C287.102 239.453 285.329 239.493 283.542 239.44C281.782 239.413 280.022 239.2 278.262 238.8V226.56C280.342 227.04 282.436 227.28 284.542 227.28C286.676 227.253 288.796 227.147 290.902 226.96C293.036 226.747 295.156 226.52 297.262 226.28C299.369 226.04 301.476 225.933 303.582 225.96V224.96C301.476 224.933 299.369 225.04 297.262 225.28C295.156 225.52 293.036 225.747 290.902 225.96C288.796 226.147 286.676 226.253 284.542 226.28C282.436 226.28 280.342 226.04 278.262 225.56V220C280.022 220.373 281.782 220.587 283.542 220.64C285.329 220.693 287.102 220.653 288.862 220.52C290.622 220.387 292.382 220.227 294.142 220.04C295.902 219.827 297.662 219.653 299.422 219.52C301.182 219.387 302.942 219.347 304.702 219.4C306.489 219.427 308.262 219.627 310.022 220V232.24C307.916 231.76 305.796 231.533 303.662 231.56C301.556 231.587 299.436 231.693 297.302 231.88C295.196 232.093 293.076 232.32 290.942 232.56C288.836 232.8 286.729 232.907 284.622 232.88V233.88C286.729 233.907 288.836 233.8 290.942 233.56C293.076 233.32 295.196 233.093 297.302 232.88C299.436 232.693 301.556 232.587 303.662 232.56C305.796 232.533 307.916 232.76 310.022 233.24V238.8ZM284.982 212.92C287.329 213.053 289.609 213.013 291.822 212.8C294.062 212.56 296.329 212.253 298.622 211.88V218C295.236 218.507 291.849 218.84 288.462 219C285.076 219.16 281.676 218.96 278.262 218.4V200.8C279.356 200.96 280.462 201.093 281.582 201.2C282.729 201.28 283.862 201.333 284.982 201.36V212.92ZM295.702 204.6C296.929 204.307 298.182 204.093 299.462 203.96C300.769 203.827 302.076 203.8 303.382 203.88V200.32C304.502 200.293 305.609 200.333 306.702 200.44C307.796 200.52 308.902 200.653 310.022 200.84V218.48C308.902 218.267 307.796 218.12 306.702 218.04C305.609 217.933 304.502 217.867 303.382 217.84V209.76C302.076 209.68 300.769 209.707 299.462 209.84C298.182 209.973 296.929 210.187 295.702 210.48V204.6ZM340.569 237.08C338.995 237.08 337.715 236.813 336.729 236.28C335.769 235.773 334.942 235.013 334.249 234C333.715 235.04 332.889 235.893 331.769 236.56C330.675 237.227 329.302 237.587 327.649 237.64C326.875 237.667 326.129 237.64 325.409 237.56C324.689 237.507 323.969 237.373 323.249 237.16V231.24C323.782 231.373 324.262 231.453 324.689 231.48C325.115 231.507 325.635 231.52 326.249 231.52C327.635 231.52 328.729 231.107 329.529 230.28C330.355 229.427 330.769 227.973 330.769 225.92V200.96C331.889 200.987 332.995 200.947 334.089 200.84C335.209 200.707 336.329 200.52 337.449 200.28V225.64C337.449 226.467 337.502 227.213 337.609 227.88C337.715 228.547 337.915 229.107 338.209 229.56C338.529 230.013 338.955 230.373 339.489 230.64C340.049 230.88 340.769 231 341.649 231C342.315 231 342.902 230.96 343.409 230.88C343.915 230.773 344.475 230.613 345.089 230.4V236.32C344.315 236.613 343.555 236.813 342.809 236.92C342.089 237.027 341.342 237.08 340.569 237.08ZM346.609 200.28C347.729 200.2 348.835 200.173 349.929 200.2C351.022 200.2 352.129 200.24 353.249 200.32V214.48C354.022 214.533 354.782 214.6 355.529 214.68C356.275 214.733 357.035 214.813 357.809 214.92V221C357.035 220.893 356.275 220.8 355.529 220.72C354.782 220.64 354.022 220.573 353.249 220.52V236.72C352.129 236.64 351.022 236.587 349.929 236.56C348.835 236.56 347.729 236.587 346.609 236.64V200.28ZM367.184 239.44C365.904 239.44 364.744 239.307 363.704 239.04C362.691 238.773 361.824 238.347 361.104 237.76C360.384 237.173 359.824 236.4 359.424 235.44C359.051 234.507 358.864 233.333 358.864 231.92C358.864 230.56 359.064 229.413 359.464 228.48C359.891 227.547 360.478 226.8 361.224 226.24C361.971 225.653 362.851 225.24 363.864 225C364.878 224.76 365.984 224.64 367.184 224.64C368.491 224.64 369.678 224.587 370.744 224.48C371.838 224.347 372.904 224.213 373.944 224.08C374.984 223.947 376.038 223.827 377.104 223.72C378.198 223.587 379.384 223.52 380.664 223.52C385.971 223.52 388.624 225.893 388.624 230.64C388.624 232.053 388.451 233.253 388.104 234.24C387.758 235.227 387.224 236.013 386.504 236.6C385.811 237.213 384.944 237.653 383.904 237.92C382.864 238.187 381.651 238.32 380.264 238.32C379.064 238.32 377.958 238.373 376.944 238.48C375.931 238.613 374.918 238.747 373.904 238.88C372.891 239.04 371.838 239.173 370.744 239.28C369.678 239.387 368.491 239.44 367.184 239.44ZM379.824 222C376.358 222.48 372.904 222.813 369.464 223C366.024 223.187 362.571 222.987 359.104 222.4V208.44C361.371 208.787 363.664 208.987 365.984 209.04C368.304 209.093 370.611 209.013 372.904 208.8V206.84C370.611 207.053 368.304 207.133 365.984 207.08C363.664 207.027 361.371 206.827 359.104 206.48V200.8C362.518 201.333 365.904 201.52 369.264 201.36C372.651 201.2 376.038 200.893 379.424 200.44V213.92C377.131 214.187 374.824 214.453 372.504 214.72C370.184 214.987 367.864 215.053 365.544 214.92V217.12C367.944 217.253 370.331 217.213 372.704 217C375.078 216.787 377.451 216.507 379.824 216.16V222ZM381.824 200.28C382.944 200.2 384.051 200.173 385.144 200.2C386.238 200.2 387.344 200.24 388.464 200.32V208.16C389.238 208.213 389.998 208.28 390.744 208.36C391.491 208.413 392.251 208.493 393.024 208.6V214.68C392.251 214.573 391.491 214.48 390.744 214.4C389.998 214.32 389.238 214.253 388.464 214.2V221.88C387.344 221.8 386.238 221.76 385.144 221.76C384.051 221.733 382.944 221.747 381.824 221.8V200.28ZM380.424 232.2C380.878 232.2 381.251 232.107 381.544 231.92C381.838 231.733 381.984 231.387 381.984 230.88C381.984 230.4 381.851 230.067 381.584 229.88C381.318 229.667 380.931 229.56 380.424 229.56C379.091 229.56 377.878 229.627 376.784 229.76C375.691 229.867 374.624 230 373.584 230.16C372.571 230.293 371.531 230.427 370.464 230.56C369.424 230.667 368.278 230.72 367.024 230.72C366.544 230.72 366.158 230.813 365.864 231C365.571 231.213 365.424 231.573 365.424 232.08C365.424 232.587 365.571 232.92 365.864 233.08C366.158 233.267 366.544 233.36 367.024 233.36C368.384 233.36 369.611 233.293 370.704 233.16C371.798 233.053 372.851 232.92 373.864 232.76C374.904 232.627 375.944 232.493 376.984 232.36C378.024 232.253 379.171 232.2 380.424 232.2ZM419.72 220.76H418.32V236.6C417.2 236.573 416.133 236.587 415.12 236.64C414.133 236.693 413.08 236.813 411.96 237V200.6C413.08 200.467 414.133 200.373 415.12 200.32C416.133 200.24 417.2 200.227 418.32 200.28V214.68H419.72V200.28C420.84 200.253 421.893 200.293 422.88 200.4C423.893 200.48 424.96 200.613 426.08 200.8V237.28C424.96 237.067 423.893 236.907 422.88 236.8C421.893 236.72 420.84 236.667 419.72 236.64V220.76ZM409.84 227.48C409.84 228.787 409.747 230.053 409.56 231.28C409.4 232.533 409.04 233.64 408.48 234.6C407.947 235.56 407.16 236.333 406.12 236.92C405.08 237.507 403.693 237.8 401.96 237.8C400.147 237.8 398.707 237.507 397.64 236.92C396.573 236.333 395.76 235.56 395.2 234.6C394.667 233.64 394.32 232.533 394.16 231.28C394 230.053 393.92 228.787 393.92 227.48V221.88C393.92 220.573 394 219.32 394.16 218.12C394.32 216.92 394.667 215.867 395.2 214.96C395.76 214.053 396.573 213.333 397.64 212.8C398.707 212.24 400.147 211.96 401.96 211.96C403.693 211.96 405.08 212.24 406.12 212.8C407.16 213.333 407.947 214.053 408.48 214.96C409.04 215.867 409.4 216.92 409.56 218.12C409.747 219.32 409.84 220.573 409.84 221.88V227.48ZM393.4 204C394.253 204.133 395.12 204.253 396 204.36C396.907 204.44 397.813 204.507 398.72 204.56V200.16C399.36 200.213 399.947 200.253 400.48 200.28C401.04 200.28 401.573 200.28 402.08 200.28C402.587 200.253 403.107 200.24 403.64 200.24C404.2 200.213 404.8 200.173 405.44 200.12V204.52C406.293 204.467 407.147 204.387 408 204.28C408.853 204.147 409.707 204.013 410.56 203.88V209.68C407.733 210.133 404.867 210.387 401.96 210.44C399.08 210.467 396.227 210.253 393.4 209.8V204ZM400.28 228.04C400.28 228.893 400.307 229.6 400.36 230.16C400.413 230.693 400.507 231.107 400.64 231.4C400.773 231.72 400.947 231.933 401.16 232.04C401.373 232.147 401.64 232.2 401.96 232.2C402.253 232.2 402.493 232.147 402.68 232.04C402.867 231.933 403.013 231.72 403.12 231.4C403.253 231.107 403.347 230.693 403.4 230.16C403.453 229.6 403.48 228.893 403.48 228.04V221.6C403.48 220.747 403.453 220.053 403.4 219.52C403.347 218.987 403.253 218.573 403.12 218.28C403.013 217.987 402.867 217.8 402.68 217.72C402.493 217.613 402.253 217.56 401.96 217.56C401.64 217.56 401.373 217.613 401.16 217.72C400.947 217.8 400.773 217.987 400.64 218.28C400.507 218.573 400.413 218.987 400.36 219.52C400.307 220.053 400.28 220.747 400.28 221.6V228.04ZM430.536 201C432.296 201.293 434.069 201.44 435.856 201.44C437.642 201.413 439.429 201.333 441.216 201.2C443.002 201.04 444.789 200.867 446.576 200.68C448.362 200.493 450.136 200.36 451.896 200.28V206.36C450.669 206.413 449.442 206.507 448.216 206.64C447.016 206.747 445.789 206.867 444.536 207V208.04C444.536 208.867 444.589 209.6 444.696 210.24C444.802 210.853 445.002 211.373 445.296 211.8C445.616 212.2 446.042 212.507 446.576 212.72C447.136 212.907 447.856 213 448.736 213C449.402 213 449.989 212.96 450.496 212.88C451.002 212.773 451.562 212.613 452.176 212.4V218.32C451.402 218.613 450.642 218.813 449.896 218.92C449.176 219.027 448.429 219.08 447.656 219.08C446.082 219.08 444.802 218.827 443.816 218.32C442.856 217.813 442.029 217.053 441.336 216.04C440.802 217.053 439.976 217.907 438.856 218.6C437.762 219.267 436.389 219.613 434.736 219.64C433.962 219.667 433.216 219.653 432.496 219.6C431.776 219.52 431.056 219.373 430.336 219.16V213.24C430.869 213.373 431.349 213.453 431.776 213.48C432.202 213.507 432.722 213.52 433.336 213.52C434.029 213.52 434.656 213.44 435.216 213.28C435.776 213.12 436.242 212.853 436.616 212.48C437.016 212.08 437.322 211.547 437.536 210.88C437.749 210.213 437.856 209.36 437.856 208.32V207.48C436.602 207.533 435.362 207.533 434.136 207.48C432.936 207.427 431.736 207.293 430.536 207.08V201ZM454.656 233.68C453.349 233.653 452.056 233.667 450.776 233.72C449.496 233.773 448.216 233.893 446.936 234.08V228.2C448.216 228.04 449.496 227.933 450.776 227.88C452.056 227.827 453.349 227.827 454.656 227.88V200.32C455.776 200.293 456.882 200.333 457.976 200.44C459.069 200.52 460.176 200.653 461.296 200.84V237.28C460.176 237.067 459.069 236.907 457.976 236.8C456.882 236.72 455.776 236.667 454.656 236.64V233.68ZM437.816 227.32C436.322 227.373 434.842 227.36 433.376 227.28C431.936 227.2 430.482 227.013 429.016 226.72V220.6C431.016 221 433.016 221.213 435.016 221.24C437.016 221.24 439.016 221.16 441.016 221C443.016 220.84 445.016 220.653 447.016 220.44C449.016 220.2 451.016 220.053 453.016 220V226.12C451.576 226.173 450.149 226.267 448.736 226.4C447.349 226.533 445.936 226.667 444.496 226.8V237.32C443.376 237.507 442.256 237.627 441.136 237.68C440.042 237.76 438.936 237.827 437.816 237.88V227.32ZM7.24 281.52C9.58667 281.6 11.8667 281.533 14.08 281.32C16.2933 281.133 18.5467 280.853 20.84 280.48V286.8C17.4533 287.307 14.0667 287.64 10.68 287.8C7.32 287.96 3.93333 287.76 0.52 287.2V250.76C3.93333 251.293 7.32 251.48 10.68 251.32C14.0667 251.16 17.4533 250.853 20.84 250.4V256.6C18.5467 256.92 16.28 257.173 14.04 257.36C11.8267 257.547 9.56 257.573 7.24 257.44V281.52ZM23.24 250.28C24.36 250.2 25.4667 250.173 26.56 250.2C27.6533 250.2 28.76 250.24 29.88 250.32V264.48C30.6533 264.533 31.4133 264.6 32.16 264.68C32.9067 264.733 33.6667 264.813 34.44 264.92V271C33.6667 270.893 32.9067 270.8 32.16 270.72C31.4133 270.64 30.6533 270.573 29.88 270.52V286.72C28.76 286.64 27.6533 286.587 26.56 286.56C25.4667 286.56 24.36 286.587 23.24 286.64V250.28ZM52.4156 287.08C50.8423 287.08 49.5623 286.813 48.5756 286.28C47.6156 285.773 46.789 285.013 46.0956 284C45.5623 285.04 44.7356 285.893 43.6156 286.56C42.5223 287.227 41.149 287.587 39.4956 287.64C38.7223 287.667 37.9756 287.64 37.2556 287.56C36.5356 287.507 35.8156 287.373 35.0956 287.16V281.24C35.629 281.373 36.109 281.453 36.5356 281.48C36.9623 281.507 37.4823 281.52 38.0956 281.52C39.4823 281.52 40.5756 281.107 41.3756 280.28C42.2023 279.427 42.6156 277.973 42.6156 275.92V250.96C43.7356 250.987 44.8423 250.947 45.9356 250.84C47.0556 250.707 48.1756 250.52 49.2956 250.28V275.64C49.2956 276.467 49.349 277.213 49.4556 277.88C49.5623 278.547 49.7623 279.107 50.0556 279.56C50.3756 280.013 50.8023 280.373 51.3356 280.64C51.8956 280.88 52.6156 281 53.4956 281C54.1623 281 54.749 280.96 55.2556 280.88C55.7623 280.773 56.3223 280.613 56.9356 280.4V286.32C56.1623 286.613 55.4023 286.813 54.6556 286.92C53.9356 287.027 53.189 287.08 52.4156 287.08ZM60.8556 250.32C61.9756 250.293 63.0823 250.333 64.1756 250.44C65.269 250.52 66.3756 250.653 67.4956 250.84V287.28C66.3756 287.067 65.269 286.907 64.1756 286.8C63.0823 286.72 61.9756 286.667 60.8556 286.64V250.32ZM88.0822 281.72C90.4289 281.853 92.7089 281.84 94.9222 281.68C97.1622 281.52 99.4289 281.253 101.722 280.88V286.8C98.3355 287.307 94.9489 287.64 91.5622 287.8C88.1755 287.96 84.7755 287.76 81.3622 287.2V250.8C82.4555 250.96 83.5622 251.093 84.6822 251.2C85.8289 251.28 86.9622 251.333 88.0822 251.36V281.72ZM104.082 250.28C105.202 250.2 106.309 250.173 107.402 250.2C108.496 250.2 109.602 250.24 110.722 250.32V264.48C111.496 264.533 112.256 264.6 113.002 264.68C113.749 264.733 114.509 264.813 115.282 264.92V271C114.509 270.893 113.749 270.8 113.002 270.72C112.256 270.64 111.496 270.573 110.722 270.52V286.72C109.602 286.64 108.496 286.587 107.402 286.56C106.309 286.56 105.202 286.587 104.082 286.64V250.28ZM141.698 283.68C140.391 283.653 139.098 283.667 137.818 283.72C136.538 283.773 135.258 283.893 133.978 284.08V278.2C135.258 278.04 136.538 277.933 137.818 277.88C139.098 277.827 140.391 277.827 141.698 277.88V250.32C142.818 250.293 143.924 250.333 145.018 250.44C146.111 250.52 147.218 250.653 148.338 250.84V287.28C147.218 287.067 146.111 286.907 145.018 286.8C143.924 286.72 142.818 286.667 141.698 286.64V283.68ZM124.858 277.32C123.364 277.373 121.884 277.36 120.418 277.28C118.978 277.2 117.524 277.013 116.058 276.72V270.6C118.058 271 120.058 271.213 122.058 271.24C124.058 271.24 126.058 271.16 128.058 271C130.058 270.84 132.058 270.653 134.058 270.44C136.058 270.2 138.058 270.053 140.058 270V276.12C138.618 276.173 137.191 276.267 135.778 276.4C134.391 276.533 132.978 276.667 131.538 276.8V287.32C130.418 287.507 129.298 287.627 128.178 287.68C127.084 287.76 125.978 287.827 124.858 287.88V277.32ZM138.898 268.2C137.164 268.28 135.404 268.427 133.618 268.64C131.858 268.853 130.084 269.04 128.298 269.2C126.511 269.333 124.724 269.413 122.938 269.44C121.151 269.44 119.391 269.293 117.658 269V250.6C118.138 250.68 118.658 250.747 119.218 250.8C119.778 250.827 120.351 250.853 120.938 250.88C121.524 250.907 122.098 250.933 122.658 250.96C123.244 250.987 123.778 251 124.258 251V263.32C125.538 263.373 126.778 263.347 127.978 263.24C129.178 263.133 130.378 263.013 131.578 262.88C132.778 262.72 133.978 262.573 135.178 262.44C136.378 262.28 137.618 262.2 138.898 262.2V268.2ZM152.793 251C154.553 251.293 156.327 251.44 158.113 251.44C159.9 251.413 161.687 251.333 163.473 251.2C165.26 251.04 167.047 250.867 168.833 250.68C170.62 250.493 172.393 250.36 174.153 250.28V256.36C172.927 256.413 171.7 256.507 170.473 256.64C169.273 256.747 168.047 256.867 166.793 257V258.04C166.793 258.867 166.847 259.6 166.953 260.24C167.06 260.853 167.26 261.373 167.553 261.8C167.873 262.2 168.3 262.507 168.833 262.72C169.393 262.907 170.113 263 170.993 263C171.66 263 172.247 262.96 172.753 262.88C173.26 262.773 173.82 262.613 174.433 262.4V268.32C173.66 268.613 172.9 268.813 172.153 268.92C171.433 269.027 170.687 269.08 169.913 269.08C168.34 269.08 167.06 268.827 166.073 268.32C165.113 267.813 164.287 267.053 163.593 266.04C163.06 267.053 162.233 267.907 161.113 268.6C160.02 269.267 158.647 269.613 156.993 269.64C156.22 269.667 155.473 269.653 154.753 269.6C154.033 269.52 153.313 269.373 152.593 269.16V263.24C153.127 263.373 153.607 263.453 154.033 263.48C154.46 263.507 154.98 263.52 155.593 263.52C156.287 263.52 156.913 263.44 157.473 263.28C158.033 263.12 158.5 262.853 158.873 262.48C159.273 262.08 159.58 261.547 159.793 260.88C160.007 260.213 160.113 259.36 160.113 258.32V257.48C158.86 257.533 157.62 257.533 156.393 257.48C155.193 257.427 153.993 257.293 152.793 257.08V251ZM176.913 283.68C175.607 283.653 174.313 283.667 173.033 283.72C171.753 283.773 170.473 283.893 169.193 284.08V278.2C170.473 278.04 171.753 277.933 173.033 277.88C174.313 277.827 175.607 277.827 176.913 277.88V250.32C178.033 250.293 179.14 250.333 180.233 250.44C181.327 250.52 182.433 250.653 183.553 250.84V287.28C182.433 287.067 181.327 286.907 180.233 286.8C179.14 286.72 178.033 286.667 176.913 286.64V283.68ZM160.073 277.32C158.58 277.373 157.1 277.36 155.633 277.28C154.193 277.2 152.74 277.013 151.273 276.72V270.6C153.273 271 155.273 271.213 157.273 271.24C159.273 271.24 161.273 271.16 163.273 271C165.273 270.84 167.273 270.653 169.273 270.44C171.273 270.2 173.273 270.053 175.273 270V276.12C173.833 276.173 172.407 276.267 170.993 276.4C169.607 276.533 168.193 276.667 166.753 276.8V287.32C165.633 287.507 164.513 287.627 163.393 287.68C162.3 287.76 161.193 287.827 160.073 287.88V277.32Z" fill="#EFEFEF" style="mix-blend-mode:overlay"/>
</svg>
