<svg width="471" height="260" viewBox="0 0 471 260" fill="none" xmlns="http://www.w3.org/2000/svg">
<path d="M17.4109 37.08C15.8376 37.08 14.5576 36.8133 13.5709 36.28C12.6109 35.7733 11.7843 35.0133 11.0909 34C10.5576 35.04 9.73094 35.8933 8.61094 36.56C7.5176 37.2267 6.14427 37.5867 4.49094 37.64C3.7176 37.6667 2.97094 37.64 2.25094 37.56C1.53094 37.5067 0.810938 37.3733 0.0909376 37.16V31.24C0.624271 31.3733 1.10427 31.4533 1.53094 31.48C1.9576 31.5067 2.4776 31.52 3.09094 31.52C4.4776 31.52 5.57094 31.1067 6.37094 30.28C7.1976 29.4267 7.61094 27.9733 7.61094 25.92V0.959998C8.73094 0.986664 9.8376 0.946665 10.9309 0.84C12.0509 0.706665 13.1709 0.519998 14.2909 0.28V25.64C14.2909 26.4667 14.3443 27.2133 14.4509 27.88C14.5576 28.5467 14.7576 29.1067 15.0509 29.56C15.3709 30.0133 15.7976 30.3733 16.3309 30.64C16.8909 30.88 17.6109 31 18.4909 31C19.1576 31 19.7443 30.96 20.2509 30.88C20.7576 30.7733 21.3176 30.6133 21.9309 30.4V36.32C21.1576 36.6133 20.3976 36.8133 19.6509 36.92C18.9309 37.0267 18.1843 37.08 17.4109 37.08ZM23.4509 0.28C24.5709 0.199999 25.6776 0.173332 26.7709 0.199998C27.8643 0.199998 28.9709 0.239999 30.0909 0.319999V14.48C30.8643 14.5333 31.6243 14.6 32.3709 14.68C33.1176 14.7333 33.8776 14.8133 34.6509 14.92V21C33.8776 20.8933 33.1176 20.8 32.3709 20.72C31.6243 20.64 30.8643 20.5733 30.0909 20.52V36.72C28.9709 36.64 27.8643 36.5867 26.7709 36.56C25.6776 36.56 24.5709 36.5867 23.4509 36.64V0.28ZM65.1066 38.28C62.6532 38.0667 60.1999 38.0667 57.7466 38.28C55.2932 38.52 52.8399 38.76 50.3866 39C47.9599 39.2667 45.5199 39.4267 43.0666 39.48C40.6399 39.56 38.1999 39.3333 35.7466 38.8V23.96C38.1999 24.4933 40.6399 24.7333 43.0666 24.68C45.5199 24.6 47.9732 24.44 50.4266 24.2C52.8799 23.96 55.3199 23.7333 57.7466 23.52C60.1999 23.28 62.6532 23.2667 65.1066 23.48V38.28ZM56.4666 22C52.9999 22.48 49.5466 22.8133 46.1066 23C42.6666 23.1867 39.2132 22.9867 35.7466 22.4V8.44C38.0132 8.78667 40.3066 8.98667 42.6266 9.04C44.9466 9.09333 47.2532 9.01333 49.5466 8.8V6.84C47.2532 7.05333 44.9466 7.13333 42.6266 7.08C40.3066 7.02667 38.0132 6.82667 35.7466 6.48V0.799998C39.1599 1.33333 42.5466 1.52 45.9066 1.36C49.2932 1.2 52.6799 0.893332 56.0666 0.439998V13.92C53.7732 14.1867 51.4666 14.4533 49.1466 14.72C46.8266 14.9867 44.5066 15.0533 42.1866 14.92V17.12C44.5866 17.2533 46.9732 17.2133 49.3466 17C51.7199 16.7867 54.0932 16.5067 56.4666 16.16V22ZM58.4666 0.28C59.5866 0.199999 60.6932 0.173332 61.7866 0.199998C62.8799 0.199998 63.9866 0.239999 65.1066 0.319999V8.16C65.8799 8.21333 66.6399 8.28 67.3866 8.36C68.1332 8.41333 68.8932 8.49333 69.6666 8.6V14.68C68.8932 14.5733 68.1332 14.48 67.3866 14.4C66.6399 14.32 65.8799 14.2533 65.1066 14.2V21.88C63.9866 21.8 62.8799 21.76 61.7866 21.76C60.6932 21.7333 59.5866 21.7467 58.4666 21.8V0.28ZM42.3066 33.32C43.6666 33.4 45.0132 33.4 46.3466 33.32C47.7066 33.24 49.0532 33.12 50.3866 32.96C51.7466 32.8 53.0932 32.6267 54.4266 32.44C55.7599 32.28 57.1066 32.16 58.4666 32.08V29.44C57.1066 29.52 55.7599 29.6533 54.4266 29.84C53.0932 30 51.7466 30.16 50.3866 30.32C49.0532 30.48 47.7066 30.6 46.3466 30.68C45.0132 30.76 43.6666 30.76 42.3066 30.68V33.32ZM70.6422 14.36C73.4155 14.92 76.1755 15.1467 78.9222 15.04C81.6955 14.9067 84.4689 14.7067 87.2422 14.44C90.0155 14.1467 92.7755 13.9333 95.5222 13.8C98.2955 13.6667 101.069 13.88 103.842 14.44V19.88C102.002 19.5067 100.149 19.2933 98.2822 19.24C96.4422 19.1867 94.6022 19.2267 92.7622 19.36C90.9222 19.4667 89.0822 19.6267 87.2422 19.84C85.4022 20.0267 83.5622 20.1867 81.7222 20.32C79.8822 20.4533 78.0289 20.4933 76.1622 20.44C74.3222 20.3867 72.4822 20.1733 70.6422 19.8V14.36ZM101.842 38.48C100.216 38.2133 98.5889 38.08 96.9622 38.08C95.3355 38.08 93.7089 38.1333 92.0822 38.24C90.4555 38.3733 88.8289 38.5467 87.2022 38.76C85.5755 38.9733 83.9489 39.1333 82.3222 39.24C80.6955 39.3733 79.0689 39.44 77.4422 39.44C75.8155 39.44 74.1889 39.3067 72.5622 39.04V27.44C74.4555 27.76 76.3489 27.9067 78.2422 27.88C80.1622 27.8267 82.0689 27.7067 83.9622 27.52C85.8822 27.3333 87.7889 27.1333 89.6822 26.92C91.6022 26.7067 93.5089 26.5867 95.4022 26.56V25.68C93.5089 25.7067 91.6022 25.8267 89.6822 26.04C87.7889 26.2533 85.8822 26.4533 83.9622 26.64C82.0689 26.8267 80.1622 26.9467 78.2422 27C76.3489 27.0267 74.4555 26.88 72.5622 26.56V21.2C75.0155 21.6 77.4555 21.7333 79.8822 21.6C82.3355 21.44 84.7755 21.2267 87.2022 20.96C89.6289 20.6933 92.0555 20.48 94.4822 20.32C96.9355 20.16 99.3889 20.28 101.842 20.68V32.2C99.9489 31.88 98.0422 31.7333 96.1222 31.76C94.2289 31.8133 92.3222 31.9333 90.4022 32.12C88.5089 32.3067 86.6022 32.5067 84.6822 32.72C82.7889 32.96 80.8955 33.0933 79.0022 33.12V34.08C80.8955 34.0533 82.7889 33.92 84.6822 33.68C86.6022 33.4667 88.5089 33.2667 90.4022 33.08C92.3222 32.8933 94.2289 32.7733 96.1222 32.72C98.0422 32.6933 99.9489 32.84 101.842 33.16V38.48ZM101.842 13C99.3889 12.6 96.9355 12.48 94.4822 12.64C92.0555 12.7733 89.6289 12.9733 87.2022 13.24C84.7755 13.5067 82.3355 13.72 79.8822 13.88C77.4555 14.0133 75.0155 13.88 72.5622 13.48V1.08C75.0155 1.45333 77.4555 1.57333 79.8822 1.44C82.3355 1.28 84.7755 1.08 87.2022 0.84C89.6289 0.573332 92.0555 0.373331 94.4822 0.239998C96.9355 0.0799983 99.3889 0.186665 101.842 0.559999V6.08C99.9489 5.78667 98.0422 5.66667 96.1222 5.72C94.2022 5.74667 92.2822 5.85333 90.3622 6.04C88.4689 6.2 86.5622 6.38667 84.6422 6.6C82.7489 6.78667 80.8555 6.90667 78.9622 6.96V8.28C80.8555 8.22667 82.7489 8.10666 84.6422 7.92C86.5622 7.70667 88.4689 7.52 90.3622 7.36C92.2822 7.2 94.2022 7.10667 96.1222 7.08C98.0422 7.02667 99.9489 7.14667 101.842 7.44V13ZM136.858 38.52C135.231 38.2533 133.604 38.12 131.978 38.12C130.351 38.12 128.724 38.1733 127.098 38.28C125.471 38.4133 123.844 38.5867 122.218 38.8C120.591 39.0133 118.964 39.1733 117.338 39.28C115.711 39.4133 114.084 39.48 112.458 39.48C110.831 39.48 109.204 39.3467 107.578 39.08V24.28C108.698 24.4133 109.804 24.52 110.898 24.6C111.991 24.6533 113.098 24.6667 114.218 24.64V33.44C116.111 33.4133 117.991 33.28 119.858 33.04C121.751 32.8267 123.631 32.6267 125.498 32.44C127.391 32.2533 129.284 32.1333 131.178 32.08C133.071 32.0533 134.964 32.2 136.858 32.52V38.52ZM105.658 16.88C108.431 17.44 111.191 17.6667 113.938 17.56C116.711 17.4267 119.484 17.2267 122.258 16.96C125.031 16.6667 127.791 16.4533 130.538 16.32C133.311 16.1867 136.084 16.4 138.858 16.96V22.88C137.018 22.5067 135.164 22.2933 133.298 22.24C131.458 22.1867 129.618 22.2267 127.778 22.36C125.938 22.4667 124.098 22.6267 122.258 22.84C120.418 23.0267 118.578 23.1867 116.738 23.32C114.898 23.4533 113.044 23.4933 111.178 23.44C109.338 23.3867 107.498 23.1733 105.658 22.8V16.88ZM129.098 15.04C128.004 15.04 126.938 15.1067 125.898 15.24C124.858 15.3467 123.791 15.48 122.698 15.64C121.631 15.7733 120.524 15.9067 119.378 16.04C118.231 16.1467 117.018 16.2 115.738 16.2C114.484 16.2 113.338 16.08 112.298 15.84C111.284 15.6 110.418 15.2 109.698 14.64C108.978 14.08 108.418 13.3333 108.018 12.4C107.618 11.4667 107.418 10.32 107.418 8.96C107.418 6.58667 108.164 4.73333 109.658 3.4C111.151 2.06667 113.311 1.4 116.138 1.4C117.231 1.4 118.311 1.34667 119.378 1.24C120.471 1.10667 121.551 0.973333 122.618 0.84C123.684 0.679999 124.751 0.546665 125.818 0.439998C126.911 0.306664 128.004 0.239998 129.098 0.239998C131.524 0.239998 133.458 0.813332 134.898 1.96C136.338 3.10667 137.058 4.88 137.058 7.28C137.058 9.84 136.431 11.7733 135.178 13.08C133.951 14.3867 131.924 15.04 129.098 15.04ZM115.538 10.24C116.684 10.24 117.804 10.1867 118.898 10.08C120.018 9.94667 121.124 9.81333 122.218 9.68C123.311 9.52 124.404 9.38667 125.498 9.28C126.618 9.14667 127.751 9.08 128.898 9.08C129.431 9.08 129.818 8.96 130.058 8.72C130.324 8.48 130.458 8.06667 130.458 7.48C130.458 6.6 129.938 6.16 128.898 6.16C127.751 6.16 126.618 6.22666 125.498 6.36C124.404 6.49333 123.311 6.64 122.218 6.8C121.124 6.96 120.018 7.10667 118.898 7.24C117.804 7.34667 116.684 7.37333 115.538 7.32C114.978 7.29333 114.578 7.44 114.338 7.76C114.098 8.05333 113.978 8.44 113.978 8.92C113.978 9.37333 114.098 9.70667 114.338 9.92C114.578 10.1333 114.978 10.24 115.538 10.24ZM182.084 26.36C180.164 26.0667 178.271 25.9333 176.404 25.96C174.538 25.9867 172.658 26.0933 170.764 26.28V30.84C173.004 30.6267 175.218 30.52 177.404 30.52C179.618 30.4933 181.844 30.7067 184.084 31.16V37.24C182.244 36.8667 180.391 36.6533 178.524 36.6C176.684 36.5467 174.844 36.5733 173.004 36.68C171.164 36.8133 169.324 36.9733 167.484 37.16C165.644 37.3733 163.804 37.5467 161.964 37.68C160.124 37.8133 158.271 37.8533 156.404 37.8C154.564 37.7467 152.724 37.5333 150.884 37.16V31.08C153.098 31.5333 155.298 31.76 157.484 31.76C159.698 31.76 161.911 31.6533 164.124 31.44V26.96C162.231 27.12 160.338 27.2133 158.444 27.24C156.578 27.2667 154.698 27.1333 152.804 26.84V1.08C155.258 1.45333 157.698 1.57333 160.124 1.44C162.578 1.28 165.018 1.08 167.444 0.84C169.871 0.573332 172.298 0.373331 174.724 0.239998C177.178 0.0799983 179.631 0.186665 182.084 0.559999V6.64C180.191 6.34667 178.298 6.22667 176.404 6.28C174.511 6.30667 172.618 6.41333 170.724 6.6C168.831 6.76 166.938 6.94667 165.044 7.16C163.178 7.34667 161.298 7.46667 159.404 7.52V20.96C161.298 20.9067 163.178 20.7867 165.044 20.6C166.938 20.3867 168.831 20.2 170.724 20.04C172.618 19.88 174.511 19.7867 176.404 19.76C178.298 19.7067 180.191 19.8267 182.084 20.12V26.36ZM187.82 1.04C190.273 1.41333 192.713 1.53333 195.14 1.4C197.593 1.26666 200.033 1.08 202.46 0.84C204.887 0.6 207.313 0.413333 209.74 0.28C212.193 0.119999 214.647 0.213332 217.1 0.559999V21.12C214.647 20.7467 212.193 20.6267 209.74 20.76C207.313 20.8933 204.887 21.0933 202.46 21.36C200.033 21.6 197.593 21.7867 195.14 21.92C192.713 22.0533 190.273 21.9333 187.82 21.56V1.04ZM185.9 23.64C188.673 24.2 191.433 24.4267 194.18 24.32C196.953 24.1867 199.727 23.9867 202.5 23.72C205.273 23.4267 208.033 23.2133 210.78 23.08C213.553 22.9467 216.327 23.16 219.1 23.72V29.8C216.86 29.3467 214.633 29.12 212.42 29.12C210.233 29.12 208.033 29.2267 205.82 29.44V37.6C204.7 37.7333 203.593 37.88 202.5 38.04C201.407 38.2 200.3 38.32 199.18 38.4V30.08C196.94 30.2933 194.713 30.4 192.5 30.4C190.313 30.4 188.113 30.1733 185.9 29.72V23.64ZM194.42 15.84C195.78 15.8667 197.127 15.8133 198.46 15.68C199.793 15.52 201.113 15.36 202.42 15.2C203.753 15.04 205.087 14.8933 206.42 14.76C207.753 14.6267 209.1 14.5733 210.46 14.6V6.24C209.1 6.21333 207.753 6.26667 206.42 6.4C205.087 6.50667 203.753 6.65333 202.42 6.84C201.113 7 199.793 7.16 198.46 7.32C197.127 7.45333 195.78 7.50667 194.42 7.48V15.84ZM220.556 0.84C222.342 1.13333 224.129 1.30667 225.916 1.36C227.702 1.41333 229.489 1.4 231.276 1.32C233.062 1.24 234.849 1.12 236.636 0.959998C238.422 0.773332 240.209 0.586666 241.996 0.399998V6.48C240.742 6.61333 239.502 6.74667 238.276 6.88C237.076 7.01333 235.849 7.13333 234.596 7.24V25.64C234.596 26.4667 234.649 27.2133 234.756 27.88C234.862 28.5467 235.062 29.1067 235.356 29.56C235.676 30.0133 236.102 30.3733 236.636 30.64C237.196 30.88 237.916 31 238.796 31C239.462 31 240.049 30.96 240.556 30.88C241.062 30.7733 241.622 30.6133 242.236 30.4V36.32C241.462 36.6133 240.702 36.8133 239.956 36.92C239.236 37.0267 238.489 37.08 237.716 37.08C236.142 37.08 234.862 36.8133 233.876 36.28C232.916 35.7733 232.089 35.0133 231.396 34C230.862 35.04 230.036 35.8933 228.916 36.56C227.822 37.2267 226.449 37.5867 224.796 37.64C224.022 37.6667 223.276 37.64 222.556 37.56C221.836 37.5067 221.116 37.3733 220.396 37.16V31.24C220.929 31.3733 221.409 31.4533 221.836 31.48C222.262 31.5067 222.782 31.52 223.396 31.52C224.782 31.52 225.876 31.1067 226.676 30.28C227.502 29.4267 227.916 27.9733 227.916 25.92V7.48C226.662 7.48 225.422 7.44 224.196 7.36C222.996 7.28 221.782 7.13333 220.556 6.92V0.84ZM246.156 0.319999C247.276 0.293333 248.382 0.333332 249.476 0.439998C250.569 0.519998 251.676 0.653332 252.796 0.84V37.28C251.676 37.0667 250.569 36.9067 249.476 36.8C248.382 36.72 247.276 36.6667 246.156 36.64V0.319999ZM295.622 38.32C292.956 38.1067 290.382 38.1067 287.902 38.32C285.449 38.56 283.022 38.8 280.622 39.04C278.222 39.3067 275.836 39.4667 273.462 39.52C271.116 39.5733 268.716 39.3333 266.262 38.8V26.48C268.156 26.88 270.062 27.12 271.982 27.2C273.902 27.2533 275.822 27.2267 277.742 27.12C279.662 27.0133 281.569 26.8533 283.462 26.64C285.382 26.4267 287.289 26.2267 289.182 26.04V25.04C287.289 25.2 285.382 25.3867 283.462 25.6C281.569 25.8133 279.662 25.9867 277.742 26.12C275.822 26.2267 273.902 26.2667 271.982 26.24C270.062 26.1867 268.156 25.9733 266.262 25.6V20C268.716 20.5333 271.156 20.7733 273.582 20.72C276.036 20.64 278.489 20.48 280.942 20.24C283.396 20 285.836 19.7733 288.262 19.56C290.716 19.32 293.169 19.3067 295.622 19.52V31.72C293.702 31.5067 291.782 31.4667 289.862 31.6C287.942 31.7333 286.022 31.9067 284.102 32.12C282.182 32.36 280.262 32.5733 278.342 32.76C276.449 32.9467 274.542 32.9733 272.622 32.84V33.84C274.542 33.9733 276.449 33.9467 278.342 33.76C280.262 33.6 282.182 33.4 284.102 33.16C286.022 32.9467 287.942 32.7733 289.862 32.64C291.782 32.5067 293.702 32.5333 295.622 32.72V38.32ZM286.182 10.12C286.182 11.6667 285.889 13.0133 285.302 14.16C284.742 15.3067 283.969 16.2533 282.982 17C282.022 17.7467 280.889 18.3067 279.582 18.68C278.302 19.0267 276.929 19.2 275.462 19.2C274.129 19.2 272.876 19.0533 271.702 18.76C270.556 18.4667 269.542 18.0133 268.662 17.4C267.809 16.76 267.129 15.9733 266.622 15.04C266.116 14.08 265.862 12.9467 265.862 11.64V9.28C265.862 7.76 266.156 6.44 266.742 5.32C267.356 4.2 268.169 3.28 269.182 2.56C270.196 1.81333 271.356 1.26667 272.662 0.919999C273.996 0.546665 275.382 0.359999 276.822 0.359999C279.702 0.359999 281.982 0.999998 283.662 2.28C285.342 3.53333 286.182 5.36 286.182 7.76V10.12ZM288.982 0.28C290.102 0.199999 291.209 0.173332 292.302 0.199998C293.396 0.199998 294.502 0.239999 295.622 0.319999V6.16C296.396 6.21333 297.156 6.28 297.902 6.36C298.649 6.41333 299.409 6.49333 300.182 6.6V12.68C299.409 12.5733 298.649 12.48 297.902 12.4C297.156 12.32 296.396 12.2533 295.622 12.2V17.92C294.502 17.84 293.396 17.8 292.302 17.8C291.209 17.7733 290.102 17.7867 288.982 17.84V0.28ZM279.742 9.16C279.742 7.13333 278.609 6.12 276.342 6.12C274.929 6.12 273.889 6.46667 273.222 7.16C272.556 7.82667 272.222 8.65333 272.222 9.64V10.76C272.222 11.6933 272.516 12.3867 273.102 12.84C273.689 13.2667 274.489 13.48 275.502 13.48C276.969 13.48 278.036 13.16 278.702 12.52C279.396 11.88 279.742 11.0533 279.742 10.04V9.16ZM340.289 21.52C339.115 21.52 337.955 21.4533 336.809 21.32C335.689 21.1867 334.595 20.9467 333.529 20.6C332.489 20.2267 331.502 19.7333 330.569 19.12C329.662 18.48 328.849 17.6667 328.129 16.68C327.515 17.7733 326.769 18.68 325.889 19.4C325.035 20.12 324.102 20.7067 323.089 21.16C322.075 21.5867 320.995 21.8933 319.849 22.08C318.702 22.24 317.555 22.32 316.409 22.32C315.849 22.32 315.289 22.2667 314.729 22.16C314.195 22.0533 313.662 21.92 313.129 21.76V15.92C313.662 16.1067 314.129 16.24 314.529 16.32C314.955 16.3733 315.449 16.4 316.009 16.4C317.555 16.4 318.875 16.2133 319.969 15.84C321.089 15.4667 321.995 14.9733 322.689 14.36C323.409 13.72 323.929 13.0133 324.249 12.24C324.595 11.44 324.769 10.6267 324.769 9.8V1.16C325.889 1.05333 326.969 0.933331 328.009 0.799998C329.075 0.639998 330.169 0.506665 331.289 0.399998V8.84C331.289 9.64 331.475 10.4533 331.849 11.28C332.222 12.1067 332.782 12.8533 333.529 13.52C334.302 14.1867 335.262 14.7333 336.409 15.16C337.555 15.5867 338.902 15.8133 340.449 15.84C340.902 15.84 341.329 15.8133 341.729 15.76C342.129 15.7067 342.542 15.6133 342.969 15.48V21.16C342.515 21.32 342.062 21.4267 341.609 21.48C341.182 21.5067 340.742 21.52 340.289 21.52ZM311.369 23.64C314.142 24.2 316.902 24.4267 319.649 24.32C322.422 24.1867 325.195 23.9867 327.969 23.72C330.742 23.4267 333.502 23.2133 336.249 23.08C339.022 22.9467 341.795 23.16 344.569 23.72V29.8C342.329 29.3467 340.102 29.12 337.889 29.12C335.702 29.12 333.502 29.2267 331.289 29.44V37.6C330.169 37.7333 329.062 37.88 327.969 38.04C326.875 38.2 325.769 38.32 324.649 38.4V30.08C322.409 30.2933 320.182 30.4 317.969 30.4C315.782 30.4 313.582 30.1733 311.369 29.72V23.64ZM360.104 7.08C358.851 7.18666 357.664 7.26667 356.544 7.32C355.451 7.34667 354.358 7.34667 353.264 7.32C352.198 7.29333 351.118 7.24 350.024 7.16C348.931 7.05333 347.758 6.90667 346.504 6.72V0.799998C349.918 1.33333 353.304 1.53333 356.664 1.4C360.051 1.24 363.438 0.933332 366.824 0.48V36.8C365.704 36.8533 364.584 36.9467 363.464 37.08C362.344 37.24 361.224 37.4133 360.104 37.6V7.08ZM369.224 0.28C370.344 0.199999 371.451 0.173332 372.544 0.199998C373.638 0.199998 374.744 0.239999 375.864 0.319999V14.48C376.638 14.5333 377.398 14.6 378.144 14.68C378.891 14.7333 379.651 14.8133 380.424 14.92V21C379.651 20.8933 378.891 20.8 378.144 20.72C377.398 20.64 376.638 20.5733 375.864 20.52V36.72C374.744 36.64 373.638 36.5867 372.544 36.56C371.451 36.56 370.344 36.5867 369.224 36.64V0.28ZM416.851 12.04C415.918 11.9867 415.024 11.9733 414.171 12C413.318 12.0267 412.411 12.0667 411.451 12.12C411.211 13.32 410.771 14.3733 410.131 15.28C409.491 16.16 408.704 16.8933 407.771 17.48C406.838 18.0667 405.784 18.5067 404.611 18.8C403.438 19.0667 402.211 19.2 400.931 19.2C399.598 19.2 398.344 19.0533 397.171 18.76C396.024 18.4667 395.011 18.0133 394.131 17.4C393.278 16.76 392.598 15.9733 392.091 15.04C391.584 14.08 391.331 12.9467 391.331 11.64V9.28C391.331 7.76 391.624 6.44 392.211 5.32C392.824 4.2 393.638 3.28 394.651 2.56C395.664 1.81333 396.824 1.26667 398.131 0.919999C399.464 0.546665 400.851 0.359999 402.291 0.359999C404.824 0.359999 406.891 0.853332 408.491 1.84C410.118 2.8 411.118 4.21333 411.491 6.08C412.451 6.02667 413.344 5.98667 414.171 5.96C415.024 5.90667 415.918 5.90667 416.851 5.96V0.319999C417.971 0.293333 419.078 0.333332 420.171 0.439998C421.264 0.519998 422.371 0.653332 423.491 0.84V18.48C422.371 18.2667 421.264 18.12 420.171 18.04C419.078 17.9333 417.971 17.8667 416.851 17.84V12.04ZM391.731 20.04C392.798 20.2267 393.784 20.36 394.691 20.44C395.624 20.52 396.624 20.5733 397.691 20.6V24.96C399.104 25.04 400.531 25.04 401.971 24.96V20.6C403.064 20.5733 404.078 20.52 405.011 20.44C405.944 20.3333 406.958 20.2 408.051 20.04V38.88C405.331 39.2533 402.611 39.4533 399.891 39.48C397.171 39.5067 394.451 39.2933 391.731 38.84V20.04ZM425.491 38.6C423.838 38.6 422.251 38.24 420.731 37.52C419.238 36.8267 418.051 35.8533 417.171 34.6C416.291 35.8533 415.104 36.8267 413.611 37.52C412.144 38.24 410.638 38.6933 409.091 38.88V33.08C410.798 32.7333 412.024 32.04 412.771 31C413.518 29.96 413.891 28.7733 413.891 27.44V19.92C416.078 19.5733 418.278 19.6133 420.491 20.04V27.32C420.491 28.0133 420.584 28.6667 420.771 29.28C420.984 29.8933 421.291 30.4533 421.691 30.96C422.091 31.4667 422.598 31.88 423.211 32.2C423.851 32.5467 424.611 32.76 425.491 32.84V38.6ZM405.211 9.16C405.211 7.13333 404.078 6.12 401.811 6.12C400.398 6.12 399.358 6.46667 398.691 7.16C398.024 7.82667 397.691 8.65333 397.691 9.64V10.76C397.691 11.6933 397.984 12.3867 398.571 12.84C399.158 13.2667 399.958 13.48 400.971 13.48C402.438 13.48 403.504 13.16 404.171 12.52C404.864 11.88 405.211 11.0533 405.211 10.04V9.16ZM397.691 33.92C398.998 34.0267 400.424 34.0267 401.971 33.92V30.48C400.531 30.56 399.104 30.56 397.691 30.48V33.92ZM451.867 20.44C450.96 20.3867 450.093 20.3733 449.267 20.4C448.467 20.4 447.6 20.4267 446.667 20.48V28.12C446.667 29.7733 446.373 31.1867 445.787 32.36C445.227 33.56 444.453 34.5467 443.467 35.32C442.507 36.0933 441.373 36.6667 440.067 37.04C438.787 37.4133 437.413 37.6 435.947 37.6C434.613 37.6 433.36 37.4533 432.187 37.16C431.04 36.8667 430.027 36.4 429.147 35.76C428.293 35.1467 427.613 34.36 427.107 33.4C426.6 32.4667 426.347 31.3467 426.347 30.04V9.28C426.347 7.76 426.64 6.44 427.227 5.32C427.84 4.2 428.653 3.28 429.667 2.56C430.68 1.81333 431.84 1.26667 433.147 0.919999C434.48 0.546665 435.867 0.359999 437.307 0.359999C440.187 0.359999 442.467 0.999998 444.147 2.28C445.827 3.53333 446.667 5.36 446.667 7.76V14.44C447.6 14.3867 448.467 14.3467 449.267 14.32C450.093 14.2933 450.96 14.3067 451.867 14.36V0.319999C452.987 0.293333 454.093 0.333332 455.187 0.439998C456.28 0.519998 457.387 0.653332 458.507 0.84V37.28C457.387 37.0667 456.28 36.9067 455.187 36.8C454.093 36.72 452.987 36.6667 451.867 36.64V20.44ZM440.027 9.48C440.027 8.44 439.813 7.64 439.387 7.08C438.96 6.52 438.147 6.24 436.947 6.24C435.48 6.24 434.44 6.62667 433.827 7.4C433.213 8.14667 432.907 9.13333 432.907 10.36V28.28C432.907 29.48 433.147 30.36 433.627 30.92C434.107 31.4533 434.88 31.72 435.947 31.72C437.467 31.72 438.52 31.3467 439.107 30.6C439.72 29.8267 440.027 28.72 440.027 27.28V9.48ZM14.3309 62.08C13.0776 62.1867 11.8909 62.2667 10.7709 62.32C9.6776 62.3467 8.58427 62.3467 7.49094 62.32C6.42427 62.2933 5.34427 62.24 4.25094 62.16C3.1576 62.0533 1.98427 61.9067 0.730938 61.72V55.8C4.14427 56.3333 7.53094 56.5333 10.8909 56.4C14.2776 56.24 17.6643 55.9333 21.0509 55.48V91.8C19.9309 91.8533 18.8109 91.9467 17.6909 92.08C16.5709 92.24 15.4509 92.4133 14.3309 92.6V62.08ZM23.4509 55.28C24.5709 55.2 25.6776 55.1733 26.7709 55.2C27.8643 55.2 28.9709 55.24 30.0909 55.32V69.48C30.8643 69.5333 31.6243 69.6 32.3709 69.68C33.1176 69.7333 33.8776 69.8133 34.6509 69.92V76C33.8776 75.8933 33.1176 75.8 32.3709 75.72C31.6243 75.64 30.8643 75.5733 30.0909 75.52V91.72C28.9709 91.64 27.8643 91.5867 26.7709 91.56C25.6776 91.56 24.5709 91.5867 23.4509 91.64V55.28ZM49.5066 61.92C48.3066 62.0533 47.1066 62.1333 45.9066 62.16V92.72C44.7866 92.96 43.7066 93.0667 42.6666 93.04C41.6532 93.04 40.5866 92.9067 39.4666 92.64V62.12C38.6399 62.0667 37.8132 62 36.9866 61.92C36.1866 61.84 35.3732 61.7333 34.5466 61.6V55.8C36.2266 56.0667 37.9732 56.24 39.7866 56.32C41.6266 56.4 43.4666 56.4133 45.3066 56.36C47.1732 56.28 49.0132 56.16 50.8266 56C52.6399 55.8133 54.3866 55.6133 56.0666 55.4V91.8C54.9466 91.8533 53.8532 91.9467 52.7866 92.08C51.7199 92.24 50.6266 92.4133 49.5066 92.6V61.92ZM58.4666 55.28C59.5866 55.2 60.6932 55.1733 61.7866 55.2C62.8799 55.2 63.9866 55.24 65.1066 55.32V69.48C65.8799 69.5333 66.6399 69.6 67.3866 69.68C68.1332 69.7333 68.8932 69.8133 69.6666 69.92V76C68.8932 75.8933 68.1332 75.8 67.3866 75.72C66.6399 75.64 65.8799 75.5733 65.1066 75.52V91.72C63.9866 91.64 62.8799 91.5867 61.7866 91.56C60.6932 91.56 59.5866 91.5867 58.4666 91.64V55.28ZM93.0022 65.84C93.0022 67.3067 92.7222 68.6 92.1622 69.72C91.6289 70.84 90.8422 71.7867 89.8022 72.56C88.7889 73.3067 87.5355 73.88 86.0422 74.28C84.5755 74.6533 82.9222 74.84 81.0822 74.84C79.8822 74.84 78.7222 74.72 77.6022 74.48C76.5089 74.2133 75.5222 73.8 74.6422 73.24C73.7889 72.6533 73.1089 71.8933 72.6022 70.96C72.0955 70.0267 71.8422 68.88 71.8422 67.52V64.12C71.8422 62.8133 72.1089 61.6667 72.6422 60.68C73.2022 59.6667 73.9889 58.8133 75.0022 58.12C76.0155 57.4267 77.2289 56.9067 78.6422 56.56C80.0822 56.1867 81.6955 56 83.4822 56C86.5489 56 88.8955 56.64 90.5222 57.92C92.1755 59.1733 93.0022 60.9867 93.0022 63.36V65.84ZM95.8822 88.68C94.5755 88.6533 93.2822 88.6667 92.0022 88.72C90.7222 88.7733 89.4422 88.8933 88.1622 89.08V83.2C89.4422 83.04 90.7222 82.9333 92.0022 82.88C93.2822 82.8267 94.5755 82.8267 95.8822 82.88V55.32C97.0022 55.2933 98.1089 55.3333 99.2022 55.44C100.296 55.52 101.402 55.6533 102.522 55.84V92.28C101.402 92.0667 100.296 91.9067 99.2022 91.8C98.1089 91.72 97.0022 91.6667 95.8822 91.64V88.68ZM79.0422 82.32C77.5489 82.3733 76.0689 82.36 74.6022 82.28C73.1622 82.2 71.7089 82.0133 70.2422 81.72V75.6C72.2422 76 74.2422 76.2133 76.2422 76.24C78.2422 76.24 80.2422 76.16 82.2422 76C84.2422 75.84 86.2422 75.6533 88.2422 75.44C90.2422 75.2 92.2422 75.0533 94.2422 75V81.12C92.8022 81.1733 91.3755 81.2667 89.9622 81.4C88.5755 81.5333 87.1622 81.6667 85.7222 81.8V92.32C84.6022 92.5067 83.4822 92.6267 82.3622 92.68C81.2689 92.76 80.1622 92.8267 79.0422 92.88V82.32ZM86.3622 64.12C86.3622 63.5067 86.1089 62.9867 85.6022 62.56C85.0955 62.1067 84.2689 61.88 83.1222 61.88C81.4422 61.88 80.2422 62.2 79.5222 62.84C78.8022 63.48 78.4422 64.4 78.4422 65.6V66.52C78.4422 67.2933 78.6689 67.8933 79.1222 68.32C79.6022 68.7467 80.4022 68.96 81.5222 68.96C83.2822 68.96 84.5222 68.6933 85.2422 68.16C85.9889 67.6 86.3622 66.6667 86.3622 65.36V64.12ZM105.298 55.84C107.084 56.1333 108.871 56.3067 110.658 56.36C112.444 56.4133 114.231 56.4 116.018 56.32C117.804 56.24 119.591 56.12 121.378 55.96C123.164 55.7733 124.951 55.5867 126.738 55.4V61.48C125.484 61.6133 124.244 61.7467 123.018 61.88C121.818 62.0133 120.591 62.1333 119.338 62.24V80.64C119.338 81.4667 119.391 82.2133 119.498 82.88C119.604 83.5467 119.804 84.1067 120.098 84.56C120.418 85.0133 120.844 85.3733 121.378 85.64C121.938 85.88 122.658 86 123.538 86C124.204 86 124.791 85.96 125.298 85.88C125.804 85.7733 126.364 85.6133 126.978 85.4V91.32C126.204 91.6133 125.444 91.8133 124.698 91.92C123.978 92.0267 123.231 92.08 122.458 92.08C120.884 92.08 119.604 91.8133 118.618 91.28C117.658 90.7733 116.831 90.0133 116.138 89C115.604 90.04 114.778 90.8933 113.658 91.56C112.564 92.2267 111.191 92.5867 109.538 92.64C108.764 92.6667 108.018 92.64 107.298 92.56C106.578 92.5067 105.858 92.3733 105.138 92.16V86.24C105.671 86.3733 106.151 86.4533 106.578 86.48C107.004 86.5067 107.524 86.52 108.138 86.52C109.524 86.52 110.618 86.1067 111.418 85.28C112.244 84.4267 112.658 82.9733 112.658 80.92V62.48C111.404 62.48 110.164 62.44 108.938 62.36C107.738 62.28 106.524 62.1333 105.298 61.92V55.84ZM130.898 55.32C132.018 55.2933 133.124 55.3333 134.218 55.44C135.311 55.52 136.418 55.6533 137.538 55.84V92.28C136.418 92.0667 135.311 91.9067 134.218 91.8C133.124 91.72 132.018 91.6667 130.898 91.64V55.32ZM165.913 73.28C165.06 73.2 164.247 73.1733 163.473 73.2C162.7 73.2267 161.913 73.3067 161.113 73.44V77C157.727 77.5333 154.34 77.88 150.953 78.04C147.593 78.2 144.207 77.9867 140.793 77.4V55.76C144.207 56.3467 147.593 56.56 150.953 56.4C154.34 56.2133 157.727 55.88 161.113 55.4V59.04C161.913 58.9067 162.7 58.8267 163.473 58.8C164.247 58.7733 165.06 58.8 165.913 58.88V55.32C167.033 55.2933 168.14 55.3333 169.233 55.44C170.327 55.52 171.433 55.6533 172.553 55.84V83.48C171.433 83.2667 170.327 83.12 169.233 83.04C168.14 82.9333 167.033 82.8667 165.913 82.84V73.28ZM172.553 93.8C170.793 93.4 169.02 93.1733 167.233 93.12C165.473 93.0933 163.713 93.1467 161.953 93.28C160.193 93.4133 158.433 93.5867 156.673 93.8C154.913 94.0133 153.153 94.1867 151.393 94.32C149.633 94.4533 147.86 94.4933 146.073 94.44C144.313 94.4133 142.553 94.2 140.793 93.8V78.76C141.887 78.9467 142.967 79.0933 144.033 79.2C145.127 79.3067 146.233 79.3733 147.353 79.4V88.44C149.46 88.4667 151.553 88.36 153.633 88.12C155.74 87.88 157.847 87.6533 159.953 87.44C162.06 87.2533 164.153 87.1467 166.233 87.12C168.34 87.0933 170.447 87.32 172.553 87.8V93.8ZM147.113 71.92C148.313 72 149.58 72.0267 150.913 72C152.273 71.9467 153.553 71.8533 154.753 71.72V62.04C153.553 62.2 152.273 62.2933 150.913 62.32C149.58 62.3467 148.313 62.32 147.113 62.24V71.92ZM165.913 64.52C165.06 64.44 164.247 64.4133 163.473 64.44C162.7 64.4667 161.913 64.5467 161.113 64.68V67.8C161.913 67.6667 162.7 67.5867 163.473 67.56C164.247 67.5333 165.06 67.56 165.913 67.64V64.52ZM217.78 93.8C216.02 93.4 214.247 93.1733 212.46 93.12C210.7 93.0933 208.94 93.1467 207.18 93.28C205.42 93.4133 203.66 93.5867 201.9 93.8C200.14 94.0133 198.38 94.1867 196.62 94.32C194.86 94.4533 193.087 94.4933 191.3 94.44C189.54 94.4133 187.78 94.2 186.02 93.8V81.56C188.1 82.04 190.193 82.28 192.3 82.28C194.433 82.2533 196.553 82.1467 198.66 81.96C200.793 81.7467 202.913 81.52 205.02 81.28C207.127 81.04 209.233 80.9333 211.34 80.96V79.96C209.233 79.9333 207.127 80.04 205.02 80.28C202.913 80.52 200.793 80.7467 198.66 80.96C196.553 81.1467 194.433 81.2533 192.3 81.28C190.193 81.28 188.1 81.04 186.02 80.56V75C187.78 75.3733 189.54 75.5867 191.3 75.64C193.087 75.6933 194.86 75.6533 196.62 75.52C198.38 75.3867 200.14 75.2267 201.9 75.04C203.66 74.8267 205.42 74.6533 207.18 74.52C208.94 74.3867 210.7 74.3467 212.46 74.4C214.247 74.4267 216.02 74.6267 217.78 75V87.24C215.673 86.76 213.553 86.5333 211.42 86.56C209.313 86.5867 207.193 86.6933 205.06 86.88C202.953 87.0933 200.833 87.32 198.7 87.56C196.593 87.8 194.487 87.9067 192.38 87.88V88.88C194.487 88.9067 196.593 88.8 198.7 88.56C200.833 88.32 202.953 88.0933 205.06 87.88C207.193 87.6933 209.313 87.5867 211.42 87.56C213.553 87.5333 215.673 87.76 217.78 88.24V93.8ZM211.14 67.04C210.287 66.9867 209.487 66.9733 208.74 67C207.993 67 207.193 67.0267 206.34 67.08V73C202.953 73.5333 199.567 73.88 196.18 74.04C192.82 74.2 189.433 73.9867 186.02 73.4V55.76C189.433 56.3467 192.82 56.56 196.18 56.4C199.567 56.2133 202.953 55.88 206.34 55.4V61.04C207.193 60.9867 207.993 60.96 208.74 60.96C209.487 60.9333 210.287 60.9333 211.14 60.96V55.32C212.26 55.2933 213.367 55.3333 214.46 55.44C215.553 55.52 216.66 55.6533 217.78 55.84V73.48C216.66 73.2667 215.553 73.12 214.46 73.04C213.367 72.9333 212.26 72.8667 211.14 72.84V67.04ZM192.34 67.92C193.54 68 194.807 68.0267 196.14 68C197.5 67.9467 198.78 67.8533 199.98 67.72V62.04C198.78 62.2 197.5 62.2933 196.14 62.32C194.807 62.3467 193.54 62.32 192.34 62.24V67.92ZM246.156 75.44C245.249 75.3867 244.382 75.3733 243.556 75.4C242.756 75.4 241.889 75.4267 240.956 75.48V83.12C240.956 84.7733 240.662 86.1867 240.076 87.36C239.516 88.56 238.742 89.5467 237.756 90.32C236.796 91.0933 235.662 91.6667 234.356 92.04C233.076 92.4133 231.702 92.6 230.236 92.6C228.902 92.6 227.649 92.4533 226.476 92.16C225.329 91.8667 224.316 91.4 223.436 90.76C222.582 90.1467 221.902 89.36 221.396 88.4C220.889 87.4667 220.636 86.3467 220.636 85.04V64.28C220.636 62.76 220.929 61.44 221.516 60.32C222.129 59.2 222.942 58.28 223.956 57.56C224.969 56.8133 226.129 56.2667 227.436 55.92C228.769 55.5467 230.156 55.36 231.596 55.36C234.476 55.36 236.756 56 238.436 57.28C240.116 58.5333 240.956 60.36 240.956 62.76V69.44C241.889 69.3867 242.756 69.3467 243.556 69.32C244.382 69.2933 245.249 69.3067 246.156 69.36V55.32C247.276 55.2933 248.382 55.3333 249.476 55.44C250.569 55.52 251.676 55.6533 252.796 55.84V92.28C251.676 92.0667 250.569 91.9067 249.476 91.8C248.382 91.72 247.276 91.6667 246.156 91.64V75.44ZM234.316 64.48C234.316 63.44 234.102 62.64 233.676 62.08C233.249 61.52 232.436 61.24 231.236 61.24C229.769 61.24 228.729 61.6267 228.116 62.4C227.502 63.1467 227.196 64.1333 227.196 65.36V83.28C227.196 84.48 227.436 85.36 227.916 85.92C228.396 86.4533 229.169 86.72 230.236 86.72C231.756 86.72 232.809 86.3467 233.396 85.6C234.009 84.8267 234.316 83.72 234.316 82.28V64.48ZM255.571 55.84C257.358 56.1333 259.145 56.3067 260.931 56.36C262.718 56.4133 264.505 56.4 266.291 56.32C268.078 56.24 269.865 56.12 271.651 55.96C273.438 55.7733 275.225 55.5867 277.011 55.4V61.48C275.758 61.6133 274.518 61.7467 273.291 61.88C272.091 62.0133 270.865 62.1333 269.611 62.24V80.64C269.611 81.4667 269.665 82.2133 269.771 82.88C269.878 83.5467 270.078 84.1067 270.371 84.56C270.691 85.0133 271.118 85.3733 271.651 85.64C272.211 85.88 272.931 86 273.811 86C274.478 86 275.065 85.96 275.571 85.88C276.078 85.7733 276.638 85.6133 277.251 85.4V91.32C276.478 91.6133 275.718 91.8133 274.971 91.92C274.251 92.0267 273.505 92.08 272.731 92.08C271.158 92.08 269.878 91.8133 268.891 91.28C267.931 90.7733 267.105 90.0133 266.411 89C265.878 90.04 265.051 90.8933 263.931 91.56C262.838 92.2267 261.465 92.5867 259.811 92.64C259.038 92.6667 258.291 92.64 257.571 92.56C256.851 92.5067 256.131 92.3733 255.411 92.16V86.24C255.945 86.3733 256.425 86.4533 256.851 86.48C257.278 86.5067 257.798 86.52 258.411 86.52C259.798 86.52 260.891 86.1067 261.691 85.28C262.518 84.4267 262.931 82.9733 262.931 80.92V62.48C261.678 62.48 260.438 62.44 259.211 62.36C258.011 62.28 256.798 62.1333 255.571 61.92V55.84ZM281.171 55.32C282.291 55.2933 283.398 55.3333 284.491 55.44C285.585 55.52 286.691 55.6533 287.811 55.84V92.28C286.691 92.0667 285.585 91.9067 284.491 91.8C283.398 91.72 282.291 91.6667 281.171 91.64V55.32ZM322.147 93.52C320.52 93.2533 318.894 93.12 317.267 93.12C315.64 93.12 314.014 93.1733 312.387 93.28C310.76 93.4133 309.134 93.5867 307.507 93.8C305.88 94.0133 304.254 94.1733 302.627 94.28C301 94.4133 299.374 94.48 297.747 94.48C296.12 94.48 294.494 94.3467 292.867 94.08V79.28C293.987 79.4133 295.094 79.52 296.187 79.6C297.28 79.6533 298.387 79.6667 299.507 79.64V88.44C301.4 88.4133 303.28 88.28 305.147 88.04C307.04 87.8267 308.92 87.6267 310.787 87.44C312.68 87.2533 314.574 87.1333 316.467 87.08C318.36 87.0533 320.254 87.2 322.147 87.52V93.52ZM290.947 71.88C293.72 72.44 296.48 72.6667 299.227 72.56C302 72.4267 304.774 72.2267 307.547 71.96C310.32 71.6667 313.08 71.4533 315.827 71.32C318.6 71.1867 321.374 71.4 324.147 71.96V77.88C322.307 77.5067 320.454 77.2933 318.587 77.24C316.747 77.1867 314.907 77.2267 313.067 77.36C311.227 77.4667 309.387 77.6267 307.547 77.84C305.707 78.0267 303.867 78.1867 302.027 78.32C300.187 78.4533 298.334 78.4933 296.467 78.44C294.627 78.3867 292.787 78.1733 290.947 77.8V71.88ZM322.147 70.12C319.747 69.7467 317.32 69.64 314.867 69.8C312.414 69.9333 309.96 70.1333 307.507 70.4C305.054 70.64 302.6 70.84 300.147 71C297.694 71.1333 295.267 71.0133 292.867 70.64V55.64C293.347 55.6933 293.867 55.7467 294.427 55.8C295.014 55.8267 295.6 55.8533 296.187 55.88C296.774 55.9067 297.347 55.9333 297.907 55.96C298.494 55.9867 299.027 56 299.507 56V64.88C301.427 64.88 303.32 64.7867 305.187 64.6C307.08 64.3867 308.96 64.1867 310.827 64C312.694 63.8133 314.56 63.7067 316.427 63.68C318.32 63.6533 320.227 63.8133 322.147 64.16V70.12ZM352.973 92.08C351.4 92.08 350.12 91.8133 349.133 91.28C348.173 90.7733 347.347 90.0133 346.653 89C346.12 90.04 345.293 90.8933 344.173 91.56C343.08 92.2267 341.707 92.5867 340.053 92.64C339.28 92.6667 338.533 92.64 337.813 92.56C337.093 92.5067 336.373 92.3733 335.653 92.16V86.24C336.187 86.3733 336.667 86.4533 337.093 86.48C337.52 86.5067 338.04 86.52 338.653 86.52C340.04 86.52 341.133 86.1067 341.933 85.28C342.76 84.4267 343.173 82.9733 343.173 80.92V55.96C344.293 55.9867 345.4 55.9467 346.493 55.84C347.613 55.7067 348.733 55.52 349.853 55.28V80.64C349.853 81.4667 349.907 82.2133 350.013 82.88C350.12 83.5467 350.32 84.1067 350.613 84.56C350.933 85.0133 351.36 85.3733 351.893 85.64C352.453 85.88 353.173 86 354.053 86C354.72 86 355.307 85.96 355.813 85.88C356.32 85.7733 356.88 85.6133 357.493 85.4V91.32C356.72 91.6133 355.96 91.8133 355.213 91.92C354.493 92.0267 353.747 92.08 352.973 92.08ZM359.013 55.28C360.133 55.2 361.24 55.1733 362.333 55.2C363.427 55.2 364.533 55.24 365.653 55.32V69.48C366.427 69.5333 367.187 69.6 367.933 69.68C368.68 69.7333 369.44 69.8133 370.213 69.92V76C369.44 75.8933 368.68 75.8 367.933 75.72C367.187 75.64 366.427 75.5733 365.653 75.52V91.72C364.533 91.64 363.427 91.5867 362.333 91.56C361.24 91.56 360.133 91.5867 359.013 91.64V55.28ZM400.669 93.28C398.216 93.0667 395.762 93.0667 393.309 93.28C390.856 93.52 388.402 93.76 385.949 94C383.522 94.2667 381.082 94.4267 378.629 94.48C376.202 94.56 373.762 94.3333 371.309 93.8V78.96C373.762 79.4933 376.202 79.7333 378.629 79.68C381.082 79.6 383.536 79.44 385.989 79.2C388.442 78.96 390.882 78.7333 393.309 78.52C395.762 78.28 398.216 78.2667 400.669 78.48V93.28ZM392.029 77C388.562 77.48 385.109 77.8133 381.669 78C378.229 78.1867 374.776 77.9867 371.309 77.4V63.44C373.576 63.7867 375.869 63.9867 378.189 64.04C380.509 64.0933 382.816 64.0133 385.109 63.8V61.84C382.816 62.0533 380.509 62.1333 378.189 62.08C375.869 62.0267 373.576 61.8267 371.309 61.48V55.8C374.722 56.3333 378.109 56.52 381.469 56.36C384.856 56.2 388.242 55.8933 391.629 55.44V68.92C389.336 69.1867 387.029 69.4533 384.709 69.72C382.389 69.9867 380.069 70.0533 377.749 69.92V72.12C380.149 72.2533 382.536 72.2133 384.909 72C387.282 71.7867 389.656 71.5067 392.029 71.16V77ZM394.029 55.28C395.149 55.2 396.256 55.1733 397.349 55.2C398.442 55.2 399.549 55.24 400.669 55.32V63.16C401.442 63.2133 402.202 63.28 402.949 63.36C403.696 63.4133 404.456 63.4933 405.229 63.6V69.68C404.456 69.5733 403.696 69.48 402.949 69.4C402.202 69.32 401.442 69.2533 400.669 69.2V76.88C399.549 76.8 398.442 76.76 397.349 76.76C396.256 76.7333 395.149 76.7467 394.029 76.8V55.28ZM377.869 88.32C379.229 88.4 380.576 88.4 381.909 88.32C383.269 88.24 384.616 88.12 385.949 87.96C387.309 87.8 388.656 87.6267 389.989 87.44C391.322 87.28 392.669 87.16 394.029 87.08V84.44C392.669 84.52 391.322 84.6533 389.989 84.84C388.656 85 387.309 85.16 385.949 85.32C384.616 85.48 383.269 85.6 381.909 85.68C380.576 85.76 379.229 85.76 377.869 85.68V88.32ZM7.45094 141.52C9.7976 141.6 12.0776 141.533 14.2909 141.32C16.5043 141.133 18.7576 140.853 21.0509 140.48V146.8C17.6643 147.307 14.2776 147.64 10.8909 147.8C7.53094 147.96 4.14427 147.76 0.730938 147.2V110.76C4.14427 111.293 7.53094 111.48 10.8909 111.32C14.2776 111.16 17.6643 110.853 21.0509 110.4V116.6C18.7576 116.92 16.4909 117.173 14.2509 117.36C12.0376 117.547 9.77094 117.573 7.45094 117.44V141.52ZM23.4509 110.28C24.5709 110.2 25.6776 110.173 26.7709 110.2C27.8643 110.2 28.9709 110.24 30.0909 110.32V124.48C30.8643 124.533 31.6243 124.6 32.3709 124.68C33.1176 124.733 33.8776 124.813 34.6509 124.92V131C33.8776 130.893 33.1176 130.8 32.3709 130.72C31.6243 130.64 30.8643 130.573 30.0909 130.52V146.72C28.9709 146.64 27.8643 146.587 26.7709 146.56C25.6776 146.56 24.5709 146.587 23.4509 146.64V110.28ZM49.3466 117.08C48.0932 117.187 46.9066 117.267 45.7866 117.32C44.6932 117.347 43.5999 117.347 42.5066 117.32C41.4399 117.293 40.3599 117.24 39.2666 117.16C38.1732 117.053 36.9999 116.907 35.7466 116.72V110.8C39.1599 111.333 42.5466 111.533 45.9066 111.4C49.2932 111.24 52.6799 110.933 56.0666 110.48V146.8C54.9466 146.853 53.8266 146.947 52.7066 147.08C51.5866 147.24 50.4666 147.413 49.3466 147.6V117.08ZM58.4666 110.28C59.5866 110.2 60.6932 110.173 61.7866 110.2C62.8799 110.2 63.9866 110.24 65.1066 110.32V124.48C65.8799 124.533 66.6399 124.6 67.3866 124.68C68.1332 124.733 68.8932 124.813 69.6666 124.92V131C68.8932 130.893 68.1332 130.8 67.3866 130.72C66.6399 130.64 65.8799 130.573 65.1066 130.52V146.72C63.9866 146.64 62.8799 146.587 61.7866 146.56C60.6932 146.56 59.5866 146.587 58.4666 146.64V110.28ZM84.3622 117.08C83.1089 117.187 81.9222 117.267 80.8022 117.32C79.7089 117.347 78.6155 117.347 77.5222 117.32C76.4555 117.293 75.3755 117.24 74.2822 117.16C73.1889 117.053 72.0155 116.907 70.7622 116.72V110.8C74.1755 111.333 77.5622 111.533 80.9222 111.4C84.3089 111.24 87.6955 110.933 91.0822 110.48V146.8C89.9622 146.853 88.8422 146.947 87.7222 147.08C86.6022 147.24 85.4822 147.413 84.3622 147.6V117.08ZM93.4822 110.28C94.6022 110.2 95.7089 110.173 96.8022 110.2C97.8955 110.2 99.0022 110.24 100.122 110.32V124.48C100.896 124.533 101.656 124.6 102.402 124.68C103.149 124.733 103.909 124.813 104.682 124.92V131C103.909 130.893 103.149 130.8 102.402 130.72C101.656 130.64 100.896 130.573 100.122 130.52V146.72C99.0022 146.64 97.8955 146.587 96.8022 146.56C95.7089 146.56 94.6022 146.587 93.4822 146.64V110.28ZM130.898 128.28C130.044 128.2 129.231 128.173 128.458 128.2C127.684 128.227 126.898 128.307 126.098 128.44V132C122.711 132.533 119.324 132.88 115.938 133.04C112.578 133.2 109.191 132.987 105.778 132.4V110.76C109.191 111.347 112.578 111.56 115.938 111.4C119.324 111.213 122.711 110.88 126.098 110.4V114.04C126.898 113.907 127.684 113.827 128.458 113.8C129.231 113.773 130.044 113.8 130.898 113.88V110.32C132.018 110.293 133.124 110.333 134.218 110.44C135.311 110.52 136.418 110.653 137.538 110.84V138.48C136.418 138.267 135.311 138.12 134.218 138.04C133.124 137.933 132.018 137.867 130.898 137.84V128.28ZM137.538 148.8C135.778 148.4 134.004 148.173 132.218 148.12C130.458 148.093 128.698 148.147 126.938 148.28C125.178 148.413 123.418 148.587 121.658 148.8C119.898 149.013 118.138 149.187 116.378 149.32C114.618 149.453 112.844 149.493 111.058 149.44C109.298 149.413 107.538 149.2 105.778 148.8V133.76C106.871 133.947 107.951 134.093 109.018 134.2C110.111 134.307 111.218 134.373 112.338 134.4V143.44C114.444 143.467 116.538 143.36 118.618 143.12C120.724 142.88 122.831 142.653 124.938 142.44C127.044 142.253 129.138 142.147 131.218 142.12C133.324 142.093 135.431 142.32 137.538 142.8V148.8ZM112.098 126.92C113.298 127 114.564 127.027 115.898 127C117.258 126.947 118.538 126.853 119.738 126.72V117.04C118.538 117.2 117.258 117.293 115.898 117.32C114.564 117.347 113.298 117.32 112.098 117.24V126.92ZM130.898 119.52C130.044 119.44 129.231 119.413 128.458 119.44C127.684 119.467 126.898 119.547 126.098 119.68V122.8C126.898 122.667 127.684 122.587 128.458 122.56C129.231 122.533 130.044 122.56 130.898 122.64V119.52ZM151.004 110.76C154.418 111.347 157.804 111.56 161.164 111.4C164.551 111.213 167.938 110.88 171.324 110.4V128C167.938 128.533 164.551 128.88 161.164 129.04C157.804 129.2 154.418 128.987 151.004 128.4V110.76ZM157.324 122.92C158.524 123 159.791 123.027 161.124 123C162.484 122.947 163.764 122.853 164.964 122.72V117.04C163.764 117.2 162.484 117.293 161.124 117.32C159.791 117.347 158.524 117.32 157.324 117.24V122.92ZM182.764 148.8C181.004 148.4 179.231 148.173 177.444 148.12C175.684 148.093 173.924 148.147 172.164 148.28C170.404 148.413 168.644 148.587 166.884 148.8C165.124 149.013 163.364 149.187 161.604 149.32C159.844 149.453 158.071 149.493 156.284 149.44C154.524 149.413 152.764 149.2 151.004 148.8V136.56C153.084 137.04 155.178 137.28 157.284 137.28C159.418 137.253 161.538 137.147 163.644 136.96C165.778 136.747 167.898 136.52 170.004 136.28C172.111 136.04 174.218 135.933 176.324 135.96V134.96C174.218 134.933 172.111 135.04 170.004 135.28C167.898 135.52 165.778 135.747 163.644 135.96C161.538 136.147 159.418 136.253 157.284 136.28C155.178 136.28 153.084 136.04 151.004 135.56V130C152.764 130.373 154.524 130.587 156.284 130.64C158.071 130.693 159.844 130.653 161.604 130.52C163.364 130.387 165.124 130.227 166.884 130.04C168.644 129.827 170.404 129.653 172.164 129.52C173.924 129.387 175.684 129.347 177.444 129.4C179.231 129.427 181.004 129.627 182.764 130V142.24C180.658 141.76 178.538 141.533 176.404 141.56C174.298 141.587 172.178 141.693 170.044 141.88C167.938 142.093 165.818 142.32 163.684 142.56C161.578 142.8 159.471 142.907 157.364 142.88V143.88C159.471 143.907 161.578 143.8 163.684 143.56C165.818 143.32 167.938 143.093 170.044 142.88C172.178 142.693 174.298 142.587 176.404 142.56C178.538 142.533 180.658 142.76 182.764 143.24V148.8ZM176.124 110.32C177.244 110.293 178.351 110.333 179.444 110.44C180.538 110.52 181.644 110.653 182.764 110.84V128.48C181.644 128.267 180.538 128.12 179.444 128.04C178.351 127.933 177.244 127.867 176.124 127.84V110.32ZM185.54 113.64C186.767 113.853 187.98 114 189.18 114.08C190.407 114.16 191.633 114.2 192.86 114.2V109.84C193.98 109.867 195.087 109.853 196.18 109.8C197.3 109.747 198.42 109.667 199.54 109.56V113.92C202.02 113.733 204.5 113.493 206.98 113.2V119.28C205.727 119.413 204.487 119.547 203.26 119.68C202.06 119.813 200.833 119.933 199.58 120.04V135.64C199.58 136.467 199.633 137.213 199.74 137.88C199.847 138.547 200.047 139.107 200.34 139.56C200.66 140.013 201.087 140.373 201.62 140.64C202.18 140.88 202.9 141 203.78 141C204.447 141 205.033 140.96 205.54 140.88C206.047 140.773 206.607 140.613 207.22 140.4V146.32C206.447 146.613 205.687 146.813 204.94 146.92C204.22 147.027 203.473 147.08 202.7 147.08C201.127 147.08 199.847 146.813 198.86 146.28C197.9 145.773 197.073 145.013 196.38 144C195.847 145.04 195.02 145.893 193.9 146.56C192.807 147.227 191.433 147.587 189.78 147.64C189.007 147.667 188.26 147.64 187.54 147.56C186.82 147.507 186.1 147.373 185.38 147.16V141.24C185.913 141.373 186.393 141.453 186.82 141.48C187.247 141.507 187.767 141.52 188.38 141.52C189.767 141.52 190.86 141.107 191.66 140.28C192.487 139.427 192.9 137.973 192.9 135.92V120.28C191.647 120.28 190.407 120.24 189.18 120.16C187.98 120.08 186.767 119.933 185.54 119.72V113.64ZM203.66 121.72C205.1 121.373 206.38 121.133 207.5 121C208.647 120.867 209.86 120.867 211.14 121V110.32C212.26 110.293 213.367 110.333 214.46 110.44C215.553 110.52 216.66 110.653 217.78 110.84V147.28C216.66 147.067 215.553 146.907 214.46 146.8C213.367 146.72 212.26 146.667 211.14 146.64V135.84C209.86 135.707 208.647 135.707 207.5 135.84C206.38 135.973 205.1 136.213 203.66 136.56V130.52C205.1 130.173 206.38 129.933 207.5 129.8C208.647 129.667 209.86 129.667 211.14 129.8V127.04C209.86 126.907 208.647 126.907 207.5 127.04C206.38 127.173 205.1 127.413 203.66 127.76V121.72ZM246.436 130.36H245.036V146.6C243.916 146.573 242.849 146.587 241.836 146.64C240.849 146.693 239.796 146.813 238.676 147V110.6C239.796 110.467 240.849 110.373 241.836 110.32C242.849 110.24 243.916 110.227 245.036 110.28V124.28H246.436V110.28C247.556 110.253 248.609 110.293 249.596 110.4C250.609 110.48 251.676 110.613 252.796 110.8V147.28C251.676 147.067 250.609 146.907 249.596 146.8C248.609 146.72 247.556 146.667 246.436 146.64V130.36ZM227.516 141.76C229.036 141.84 230.622 141.813 232.276 141.68C233.929 141.547 235.502 141.36 236.996 141.12V147.16C234.249 147.587 231.582 147.813 228.996 147.84C226.436 147.867 223.782 147.64 221.036 147.16V110.8C222.129 110.96 223.196 111.093 224.236 111.2C225.302 111.28 226.396 111.333 227.516 111.36V141.76ZM281.171 110.32C282.291 110.293 283.398 110.333 284.491 110.44C285.585 110.52 286.691 110.653 287.811 110.84V147.28C286.691 147.067 285.585 146.907 284.491 146.8C283.398 146.72 282.291 146.667 281.171 146.64V110.32ZM269.651 117.08C268.398 117.187 267.211 117.267 266.091 117.32C264.998 117.347 263.905 117.347 262.811 117.32C261.745 117.293 260.665 117.24 259.571 117.16C258.478 117.053 257.305 116.907 256.051 116.72V110.8C259.465 111.333 262.851 111.533 266.211 111.4C269.598 111.24 272.985 110.933 276.371 110.48V146.8C275.251 146.853 274.131 146.947 273.011 147.08C271.891 147.24 270.771 147.413 269.651 147.6V117.08ZM297.787 141.72C300.134 141.853 302.414 141.84 304.627 141.68C306.867 141.52 309.134 141.253 311.427 140.88V146.8C308.04 147.307 304.654 147.64 301.267 147.8C297.88 147.96 294.48 147.76 291.067 147.2V110.8C292.16 110.96 293.267 111.093 294.387 111.2C295.534 111.28 296.667 111.333 297.787 111.36V141.72ZM313.787 110.28C314.907 110.2 316.014 110.173 317.107 110.2C318.2 110.2 319.307 110.24 320.427 110.32V124.48C321.2 124.533 321.96 124.6 322.707 124.68C323.454 124.733 324.214 124.813 324.987 124.92V131C324.214 130.893 323.454 130.8 322.707 130.72C321.96 130.64 321.2 130.573 320.427 130.52V146.72C319.307 146.64 318.2 146.587 317.107 146.56C316.014 146.56 314.907 146.587 313.787 146.64V110.28ZM356.613 138.32C356.613 139.92 356.32 141.307 355.733 142.48C355.173 143.653 354.4 144.613 353.413 145.36C352.453 146.133 351.32 146.693 350.013 147.04C348.733 147.413 347.36 147.6 345.893 147.6C344.56 147.6 343.307 147.44 342.133 147.12C340.987 146.8 339.973 146.32 339.093 145.68C338.24 145.04 337.56 144.227 337.053 143.24C336.547 142.28 336.293 141.147 336.293 139.84V129.68C336.293 128.16 336.613 126.88 337.253 125.84C337.92 124.8 338.773 123.973 339.813 123.36C340.88 122.72 342.093 122.267 343.453 122C344.813 121.707 346.213 121.56 347.653 121.56C350.533 121.56 352.747 122.187 354.293 123.44C355.84 124.667 356.613 126.707 356.613 129.56V138.32ZM359.013 110.28C360.133 110.2 361.24 110.173 362.333 110.2C363.427 110.2 364.533 110.24 365.653 110.32V124.48C366.427 124.533 367.187 124.6 367.933 124.68C368.68 124.733 369.44 124.813 370.213 124.92V131C369.44 130.893 368.68 130.8 367.933 130.72C367.187 130.64 366.427 130.573 365.653 130.52V146.72C364.533 146.64 363.427 146.587 362.333 146.56C361.24 146.56 360.133 146.587 359.013 146.64V110.28ZM335.413 113.56C336.693 113.8 337.973 113.973 339.253 114.08C340.533 114.16 341.827 114.2 343.133 114.2V109.84C344.253 109.867 345.36 109.853 346.453 109.8C347.573 109.747 348.693 109.667 349.813 109.56V113.92C351.12 113.787 352.427 113.653 353.733 113.52C355.04 113.387 356.347 113.253 357.653 113.12V118.96C355.813 119.173 353.96 119.373 352.093 119.56C350.253 119.747 348.4 119.893 346.533 120C344.693 120.08 342.84 120.093 340.973 120.04C339.107 119.96 337.253 119.76 335.413 119.44V113.56ZM349.973 130.16C349.973 128.347 348.947 127.44 346.893 127.44C345.453 127.44 344.413 127.68 343.773 128.16C343.16 128.64 342.853 129.507 342.853 130.76V138.48C342.853 139.68 343.08 140.52 343.533 141C343.987 141.48 344.773 141.72 345.893 141.72C347.413 141.72 348.467 141.373 349.053 140.68C349.667 139.987 349.973 138.92 349.973 137.48V130.16ZM395.749 116.16C393.856 116.187 391.962 116.307 390.069 116.52C388.202 116.707 386.322 116.893 384.429 117.08C382.536 117.267 380.642 117.387 378.749 117.44C376.882 117.467 375.002 117.32 373.109 117V111.08C375.562 111.453 378.002 111.573 380.429 111.44C382.882 111.28 385.322 111.08 387.749 110.84C390.176 110.573 392.602 110.373 395.029 110.24C397.482 110.08 399.936 110.187 402.389 110.56V136.96C401.269 136.827 400.162 136.733 399.069 136.68C397.976 136.6 396.869 136.573 395.749 136.6V116.16ZM371.189 141.08C373.002 141.453 374.802 141.667 376.589 141.72C378.402 141.773 380.216 141.747 382.029 141.64V125.48C383.149 125.427 384.256 125.333 385.349 125.2C386.442 125.04 387.549 124.893 388.669 124.76V141.04C391.282 140.8 393.896 140.64 396.509 140.56C399.149 140.453 401.776 140.653 404.389 141.16V147.24C402.549 146.867 400.696 146.653 398.829 146.6C396.989 146.547 395.149 146.573 393.309 146.68C391.469 146.813 389.629 146.973 387.789 147.16C385.949 147.373 384.109 147.547 382.269 147.68C380.429 147.813 378.576 147.853 376.709 147.8C374.869 147.747 373.029 147.533 371.189 147.16V141.08ZM26.1309 185.36H24.7309V201.6C23.6109 201.573 22.5443 201.587 21.5309 201.64C20.5443 201.693 19.4909 201.813 18.3709 202V165.6C19.4909 165.467 20.5443 165.373 21.5309 165.32C22.5443 165.24 23.6109 165.227 24.7309 165.28V179.28H26.1309V165.28C27.2509 165.253 28.3043 165.293 29.2909 165.4C30.3043 165.48 31.3709 165.613 32.4909 165.8V202.28C31.3709 202.067 30.3043 201.907 29.2909 201.8C28.3043 201.72 27.2509 201.667 26.1309 201.64V185.36ZM0.730938 165.8C1.9576 166.013 3.25094 166.173 4.61094 166.28C5.97094 166.36 7.33094 166.4 8.69094 166.4C10.0776 166.373 11.4376 166.307 12.7709 166.2C14.1309 166.093 15.4243 165.96 16.6509 165.8V171.88C15.7976 172.013 14.9843 172.12 14.2109 172.2C13.4376 172.28 12.6776 172.36 11.9309 172.44C11.1843 172.493 10.4243 172.533 9.65094 172.56C8.90427 172.56 8.09094 172.533 7.21094 172.48V196.52C8.73094 196.6 10.3043 196.573 11.9309 196.44C13.5843 196.307 15.1576 196.12 16.6509 195.88V202.16C13.9043 202.587 11.2509 202.813 8.69094 202.84C6.13094 202.867 3.4776 202.64 0.730938 202.16V165.8ZM35.6266 188.64C38.3999 189.2 41.1599 189.427 43.9066 189.32C46.6799 189.187 49.4532 188.987 52.2266 188.72C54.9999 188.427 57.7599 188.213 60.5066 188.08C63.2799 187.947 66.0532 188.16 68.8266 188.72V194.8C66.5866 194.347 64.3599 194.12 62.1466 194.12C59.9599 194.12 57.7599 194.227 55.5466 194.44V202.6C54.4266 202.733 53.3199 202.88 52.2266 203.04C51.1332 203.2 50.0266 203.32 48.9066 203.4V195.08C46.6666 195.293 44.4399 195.4 42.2266 195.4C40.0399 195.4 37.8399 195.173 35.6266 194.72V188.64ZM44.3866 171.96C43.3199 171.96 42.1199 171.933 40.7866 171.88C39.4532 171.8 38.2532 171.68 37.1866 171.52V166C39.3732 166.293 41.6532 166.44 44.0266 166.44C46.4266 166.44 48.7199 166.307 50.9066 166.04V187.04C49.7866 187.173 48.6932 187.28 47.6266 187.36C46.5866 187.413 45.5066 187.44 44.3866 187.44V171.96ZM60.3866 170.76C59.1599 170.76 57.9066 170.813 56.6266 170.92C55.3466 171 54.1066 171.107 52.9066 171.24V165.72C55.2266 165.427 57.5332 165.267 59.8266 165.24C62.1466 165.213 64.4799 165.32 66.8266 165.56V186.56C65.7066 186.427 64.6266 186.333 63.5866 186.28C62.5732 186.2 61.5066 186.173 60.3866 186.2V170.76ZM70.6422 182.08C73.4155 182.64 76.1755 182.867 78.9222 182.76C81.6955 182.627 84.4689 182.427 87.2422 182.16C90.0155 181.867 92.7755 181.653 95.5222 181.52C98.2955 181.387 101.069 181.6 103.842 182.16V187.6C102.002 187.2 100.149 186.987 98.2822 186.96C96.4422 186.907 94.6022 186.947 92.7622 187.08C90.9222 187.187 89.0822 187.347 87.2422 187.56C85.4022 187.747 83.5622 187.907 81.7222 188.04C79.8822 188.173 78.0289 188.213 76.1622 188.16C74.3222 188.107 72.4822 187.893 70.6422 187.52V182.08ZM101.842 203.48C100.216 203.213 98.5889 203.08 96.9622 203.08C95.3355 203.08 93.7089 203.133 92.0822 203.24C90.4555 203.373 88.8289 203.547 87.2022 203.76C85.5755 203.973 83.9489 204.133 82.3222 204.24C80.6955 204.373 79.0689 204.44 77.4422 204.44C75.8155 204.44 74.1889 204.307 72.5622 204.04V193.84C74.4555 194.16 76.3489 194.307 78.2422 194.28C80.1622 194.227 82.0689 194.107 83.9622 193.92C85.8822 193.733 87.7889 193.533 89.6822 193.32C91.6022 193.107 93.5089 192.987 95.4022 192.96V192.28C93.5089 192.307 91.6022 192.427 89.6822 192.64C87.7889 192.853 85.8822 193.053 83.9622 193.24C82.0689 193.427 80.1622 193.547 78.2422 193.6C76.3489 193.627 74.4555 193.48 72.5622 193.16V188.44C75.0155 188.84 77.4555 188.973 79.8822 188.84C82.3355 188.68 84.7755 188.467 87.2022 188.2C89.6289 187.933 92.0555 187.72 94.4822 187.56C96.9355 187.4 99.3889 187.52 101.842 187.92V198C99.9489 197.68 98.0422 197.533 96.1222 197.56C94.2289 197.613 92.3222 197.733 90.4022 197.92C88.5089 198.107 86.6022 198.307 84.6822 198.52C82.7889 198.76 80.8955 198.893 79.0022 198.92V199.68C80.8955 199.653 82.7889 199.533 84.6822 199.32C86.6022 199.133 88.5089 198.96 90.4022 198.8C92.3222 198.64 94.2289 198.547 96.1222 198.52C98.0422 198.493 99.9489 198.64 101.842 198.96V203.48ZM101.842 181.12C99.4422 180.747 97.0155 180.627 94.5622 180.76C92.1089 180.893 89.6555 181.093 87.2022 181.36C84.7489 181.6 82.2955 181.787 79.8422 181.92C77.3889 182.053 74.9622 181.933 72.5622 181.56V171.4C74.4822 171.72 76.3755 171.853 78.2422 171.8C80.1355 171.747 82.0155 171.627 83.8822 171.44C85.7489 171.253 87.6155 171.067 89.4822 170.88C91.3755 170.667 93.2822 170.573 95.2022 170.6V169.96C93.2822 169.987 91.3755 170.107 89.4822 170.32C87.6155 170.507 85.7489 170.68 83.8822 170.84C82.0155 171 80.1355 171.107 78.2422 171.16C76.3755 171.187 74.4822 171.04 72.5622 170.72V166.04C74.9622 166.413 77.3889 166.533 79.8422 166.4C82.2955 166.267 84.7489 166.08 87.2022 165.84C89.6555 165.6 92.0955 165.413 94.5222 165.28C96.9755 165.12 99.4155 165.213 101.842 165.56V175.56C99.9222 175.267 98.0155 175.147 96.1222 175.2C94.2555 175.253 92.3889 175.373 90.5222 175.56C88.6555 175.747 86.7755 175.947 84.8822 176.16C83.0155 176.347 81.1222 176.44 79.2022 176.44V177.24C81.1489 177.24 83.0555 177.133 84.9222 176.92C86.7889 176.707 88.6555 176.52 90.5222 176.36C92.3889 176.173 94.2555 176.053 96.1222 176C97.9889 175.947 99.8955 176.067 101.842 176.36V181.12ZM145.349 203.32C142.682 203.107 140.109 203.107 137.629 203.32C135.175 203.56 132.749 203.8 130.349 204.04C127.949 204.307 125.562 204.467 123.189 204.52C120.842 204.573 118.442 204.333 115.989 203.8V191.48C117.882 191.88 119.789 192.12 121.709 192.2C123.629 192.253 125.549 192.227 127.469 192.12C129.389 192.013 131.295 191.853 133.189 191.64C135.109 191.427 137.015 191.227 138.909 191.04V190.04C137.015 190.2 135.109 190.387 133.189 190.6C131.295 190.813 129.389 190.987 127.469 191.12C125.549 191.227 123.629 191.267 121.709 191.24C119.789 191.187 117.882 190.973 115.989 190.6V185C118.442 185.533 120.882 185.773 123.309 185.72C125.762 185.64 128.215 185.48 130.669 185.24C133.122 185 135.562 184.773 137.989 184.56C140.442 184.32 142.895 184.307 145.349 184.52V196.72C143.429 196.507 141.509 196.467 139.589 196.6C137.669 196.733 135.749 196.907 133.829 197.12C131.909 197.36 129.989 197.573 128.069 197.76C126.175 197.947 124.269 197.973 122.349 197.84V198.84C124.269 198.973 126.175 198.947 128.069 198.76C129.989 198.6 131.909 198.4 133.829 198.16C135.749 197.947 137.669 197.773 139.589 197.64C141.509 197.507 143.429 197.533 145.349 197.72V203.32ZM115.509 165.84C117.295 166.133 119.082 166.307 120.869 166.36C122.655 166.413 124.442 166.4 126.229 166.32C128.015 166.24 129.802 166.12 131.589 165.96C133.375 165.773 135.162 165.587 136.949 165.4V171.48C135.695 171.613 134.455 171.747 133.229 171.88C132.029 172.013 130.802 172.133 129.549 172.24C129.549 173.013 129.615 173.707 129.749 174.32C129.882 174.933 130.095 175.453 130.389 175.88C130.709 176.307 131.135 176.64 131.669 176.88C132.202 177.093 132.895 177.2 133.749 177.2C134.415 177.2 135.002 177.16 135.509 177.08C136.015 176.973 136.575 176.813 137.189 176.6V182.52C136.415 182.813 135.655 183.013 134.909 183.12C134.189 183.227 133.442 183.28 132.669 183.28C131.095 183.28 129.815 183.027 128.829 182.52C127.869 182.013 127.042 181.253 126.349 180.24C125.815 181.253 124.989 182.107 123.869 182.8C122.775 183.467 121.402 183.813 119.749 183.84C118.975 183.867 118.229 183.853 117.509 183.8C116.789 183.72 116.069 183.573 115.349 183.36V177.44C115.882 177.573 116.362 177.653 116.789 177.68C117.215 177.707 117.735 177.72 118.349 177.72C119.709 177.72 120.789 177.333 121.589 176.56C122.389 175.76 122.815 174.4 122.869 172.48C121.615 172.48 120.375 172.44 119.149 172.36C117.949 172.28 116.735 172.133 115.509 171.92V165.84ZM138.709 165.28C139.829 165.2 140.935 165.173 142.029 165.2C143.122 165.2 144.229 165.24 145.349 165.32V171.16C146.122 171.213 146.882 171.28 147.629 171.36C148.375 171.413 149.135 171.493 149.909 171.6V177.68C149.135 177.573 148.375 177.48 147.629 177.4C146.882 177.32 146.122 177.253 145.349 177.2V182.92C144.229 182.84 143.122 182.8 142.029 182.8C140.935 182.773 139.829 182.787 138.709 182.84V165.28ZM181.535 193.32C181.535 194.92 181.242 196.307 180.655 197.48C180.095 198.653 179.322 199.613 178.335 200.36C177.375 201.133 176.242 201.693 174.935 202.04C173.655 202.413 172.282 202.6 170.815 202.6C169.482 202.6 168.229 202.44 167.055 202.12C165.909 201.8 164.895 201.32 164.015 200.68C163.162 200.04 162.482 199.227 161.975 198.24C161.469 197.28 161.215 196.147 161.215 194.84V184.68C161.215 183.16 161.535 181.88 162.175 180.84C162.842 179.8 163.695 178.973 164.735 178.36C165.802 177.72 167.015 177.267 168.375 177C169.735 176.707 171.135 176.56 172.575 176.56C175.455 176.56 177.669 177.187 179.215 178.44C180.762 179.667 181.535 181.707 181.535 184.56V193.32ZM183.935 165.28C185.055 165.2 186.162 165.173 187.255 165.2C188.349 165.2 189.455 165.24 190.575 165.32V179.48C191.349 179.533 192.109 179.6 192.855 179.68C193.602 179.733 194.362 179.813 195.135 179.92V186C194.362 185.893 193.602 185.8 192.855 185.72C192.109 185.64 191.349 185.573 190.575 185.52V201.72C189.455 201.64 188.349 201.587 187.255 201.56C186.162 201.56 185.055 201.587 183.935 201.64V165.28ZM160.335 168.56C161.615 168.8 162.895 168.973 164.175 169.08C165.455 169.16 166.749 169.2 168.055 169.2V164.84C169.175 164.867 170.282 164.853 171.375 164.8C172.495 164.747 173.615 164.667 174.735 164.56V168.92C176.042 168.787 177.349 168.653 178.655 168.52C179.962 168.387 181.269 168.253 182.575 168.12V173.96C180.735 174.173 178.882 174.373 177.015 174.56C175.175 174.747 173.322 174.893 171.455 175C169.615 175.08 167.762 175.093 165.895 175.04C164.029 174.96 162.175 174.76 160.335 174.44V168.56ZM174.895 185.16C174.895 183.347 173.869 182.44 171.815 182.44C170.375 182.44 169.335 182.68 168.695 183.16C168.082 183.64 167.775 184.507 167.775 185.76V193.48C167.775 194.68 168.002 195.52 168.455 196C168.909 196.48 169.695 196.72 170.815 196.72C172.335 196.72 173.389 196.373 173.975 195.68C174.589 194.987 174.895 193.92 174.895 192.48V185.16ZM195.751 165.84C197.538 166.133 199.324 166.307 201.111 166.36C202.898 166.413 204.684 166.4 206.471 166.32C208.258 166.24 210.044 166.12 211.831 165.96C213.618 165.773 215.404 165.587 217.191 165.4V171.48C215.938 171.613 214.698 171.747 213.471 171.88C212.271 172.013 211.044 172.133 209.791 172.24V190.64C209.791 191.467 209.844 192.213 209.951 192.88C210.058 193.547 210.258 194.107 210.551 194.56C210.871 195.013 211.298 195.373 211.831 195.64C212.391 195.88 213.111 196 213.991 196C214.658 196 215.244 195.96 215.751 195.88C216.258 195.773 216.818 195.613 217.431 195.4V201.32C216.658 201.613 215.898 201.813 215.151 201.92C214.431 202.027 213.684 202.08 212.911 202.08C211.338 202.08 210.058 201.813 209.071 201.28C208.111 200.773 207.284 200.013 206.591 199C206.058 200.04 205.231 200.893 204.111 201.56C203.018 202.227 201.644 202.587 199.991 202.64C199.218 202.667 198.471 202.64 197.751 202.56C197.031 202.507 196.311 202.373 195.591 202.16V196.24C196.124 196.373 196.604 196.453 197.031 196.48C197.458 196.507 197.978 196.52 198.591 196.52C199.978 196.52 201.071 196.107 201.871 195.28C202.698 194.427 203.111 192.973 203.111 190.92V172.48C201.858 172.48 200.618 172.44 199.391 172.36C198.191 172.28 196.978 172.133 195.751 171.92V165.84ZM221.351 165.32C222.471 165.293 223.578 165.333 224.671 165.44C225.764 165.52 226.871 165.653 227.991 165.84V202.28C226.871 202.067 225.764 201.907 224.671 201.8C223.578 201.72 222.471 201.667 221.351 201.64V165.32ZM261.378 177.52C261.378 179.173 261.084 180.6 260.497 181.8C259.938 182.973 259.164 183.947 258.178 184.72C257.218 185.493 256.084 186.067 254.778 186.44C253.498 186.813 252.124 187 250.658 187C249.324 187 248.071 186.853 246.898 186.56C245.751 186.267 244.738 185.813 243.858 185.2C243.004 184.56 242.324 183.773 241.818 182.84C241.311 181.88 241.058 180.747 241.058 179.44V174.28C241.058 172.76 241.351 171.44 241.938 170.32C242.551 169.2 243.364 168.28 244.378 167.56C245.391 166.813 246.551 166.267 247.858 165.92C249.191 165.547 250.578 165.36 252.018 165.36C254.898 165.36 257.178 166 258.858 167.28C260.538 168.533 261.378 170.36 261.378 172.76V177.52ZM264.178 165.28C265.298 165.2 266.404 165.173 267.498 165.2C268.591 165.2 269.698 165.24 270.818 165.32V172.76C271.591 172.813 272.351 172.88 273.098 172.96C273.844 173.013 274.604 173.093 275.378 173.2V179.28C274.604 179.173 273.844 179.08 273.098 179C272.351 178.92 271.591 178.853 270.818 178.8V185.52C269.698 185.44 268.591 185.4 267.498 185.4C266.404 185.373 265.298 185.387 264.178 185.44V165.28ZM248.018 198.44C248.764 198.493 249.431 198.52 250.018 198.52C250.604 198.547 251.164 198.547 251.697 198.52C252.231 198.493 252.791 198.453 253.378 198.4C253.964 198.373 254.631 198.32 255.378 198.24V204.16C253.031 204.373 250.711 204.453 248.418 204.4C246.124 204.347 243.804 204.147 241.458 203.8V188.96C242.551 189.173 243.631 189.333 244.698 189.44C245.791 189.547 246.898 189.613 248.018 189.64V198.44ZM256.818 199.8C256.818 198.973 257.004 198.253 257.378 197.64C257.778 197.027 258.311 196.52 258.978 196.12C259.671 195.72 260.471 195.427 261.378 195.24C262.284 195.053 263.271 194.96 264.338 194.96C266.844 194.96 268.751 195.333 270.058 196.08C271.364 196.827 272.004 198 271.978 199.6C271.951 201.2 271.244 202.4 269.858 203.2C268.471 204 266.644 204.4 264.378 204.4C261.684 204.4 259.751 203.987 258.578 203.16C257.404 202.333 256.818 201.213 256.818 199.8ZM255.538 189.52C256.471 189.387 257.391 189.267 258.298 189.16C259.231 189.027 260.164 188.92 261.098 188.84V187.16C262.218 186.947 263.311 186.813 264.378 186.76C265.471 186.68 266.578 186.693 267.698 186.8V188.76C268.631 188.813 269.551 188.88 270.458 188.96C271.364 189.04 272.284 189.147 273.218 189.28V194.76C270.258 194.307 267.298 194.12 264.338 194.2C261.404 194.253 258.471 194.52 255.538 195V189.52ZM254.938 174.48C254.938 173.36 254.684 172.533 254.178 172C253.698 171.44 252.858 171.16 251.658 171.16C250.191 171.16 249.111 171.547 248.418 172.32C247.751 173.067 247.418 174.08 247.418 175.36V177.84C247.418 179.12 247.684 180.013 248.218 180.52C248.778 181.027 249.591 181.28 250.658 181.28C252.178 181.28 253.271 180.92 253.938 180.2C254.604 179.453 254.938 178.333 254.938 176.84V174.48ZM266.098 199.68C266.098 199.173 265.524 198.92 264.378 198.92C263.258 198.92 262.698 199.173 262.698 199.68C262.698 200.187 263.258 200.44 264.378 200.44C264.991 200.44 265.431 200.373 265.698 200.24C265.964 200.107 266.098 199.92 266.098 199.68ZM307.553 203.52C305.926 203.253 304.3 203.12 302.673 203.12C301.046 203.12 299.42 203.173 297.793 203.28C296.166 203.413 294.54 203.587 292.913 203.8C291.286 204.013 289.66 204.173 288.033 204.28C286.406 204.413 284.78 204.48 283.153 204.48C281.526 204.48 279.9 204.347 278.273 204.08V189.28C279.393 189.413 280.5 189.52 281.593 189.6C282.686 189.653 283.793 189.667 284.913 189.64V198.44C286.806 198.413 288.686 198.28 290.553 198.04C292.446 197.827 294.326 197.627 296.193 197.44C298.086 197.253 299.98 197.133 301.873 197.08C303.766 197.053 305.66 197.2 307.553 197.52V203.52ZM276.353 181.88C279.126 182.44 281.886 182.667 284.633 182.56C287.406 182.427 290.18 182.227 292.953 181.96C295.726 181.667 298.486 181.453 301.233 181.32C304.006 181.187 306.78 181.4 309.553 181.96V187.88C307.713 187.507 305.86 187.293 303.993 187.24C302.153 187.187 300.313 187.227 298.473 187.36C296.633 187.467 294.793 187.627 292.953 187.84C291.113 188.027 289.273 188.187 287.433 188.32C285.593 188.453 283.74 188.493 281.873 188.44C280.033 188.387 278.193 188.173 276.353 187.8V181.88ZM307.553 180.12C305.153 179.747 302.726 179.64 300.273 179.8C297.82 179.933 295.366 180.133 292.913 180.4C290.46 180.64 288.006 180.84 285.553 181C283.1 181.133 280.673 181.013 278.273 180.64V165.64C278.753 165.693 279.273 165.747 279.833 165.8C280.42 165.827 281.006 165.853 281.593 165.88C282.18 165.907 282.753 165.933 283.313 165.96C283.9 165.987 284.433 166 284.913 166V174.88C286.833 174.88 288.726 174.787 290.593 174.6C292.486 174.387 294.366 174.187 296.233 174C298.1 173.813 299.966 173.707 301.833 173.68C303.726 173.653 305.633 173.813 307.553 174.16V180.12ZM321.58 196.08C324.353 196.64 327.113 196.853 329.86 196.72C332.633 196.613 335.406 196.413 338.18 196.12C340.953 195.853 343.713 195.653 346.46 195.52C349.233 195.387 352.006 195.6 354.78 196.16V202.24C352.94 201.867 351.086 201.653 349.22 201.6C347.38 201.547 345.54 201.573 343.7 201.68C341.86 201.813 340.02 201.973 338.18 202.16C336.34 202.373 334.5 202.547 332.66 202.68C330.82 202.813 328.966 202.853 327.1 202.8C325.26 202.747 323.42 202.533 321.58 202.16V196.08ZM346.14 171.16C344.246 171.187 342.353 171.307 340.46 171.52C338.593 171.707 336.713 171.893 334.82 172.08C332.926 172.267 331.033 172.387 329.14 172.44C327.273 172.467 325.393 172.32 323.5 172V166.08C325.953 166.453 328.393 166.573 330.82 166.44C333.273 166.28 335.713 166.08 338.14 165.84C340.566 165.573 342.993 165.373 345.42 165.24C347.873 165.08 350.326 165.187 352.78 165.56V191.96C351.66 191.827 350.553 191.733 349.46 191.68C348.366 191.6 347.26 191.573 346.14 191.6V171.16ZM377.235 187C373.795 187.48 370.369 187.813 366.955 188C363.569 188.187 360.155 187.987 356.715 187.4V173.44C358.982 173.787 361.235 173.987 363.475 174.04C365.742 174.093 368.022 174.013 370.315 173.8V171.84C368.022 172.053 365.742 172.133 363.475 172.08C361.235 172.027 358.982 171.827 356.715 171.48V165.8C360.129 166.333 363.489 166.52 366.795 166.36C370.102 166.2 373.449 165.893 376.835 165.44V178.92C374.542 179.187 372.262 179.453 369.995 179.72C367.755 179.987 365.475 180.053 363.155 179.92V182.12C365.555 182.253 367.902 182.213 370.195 182C372.515 181.787 374.862 181.507 377.235 181.16V187ZM388.475 203.8C386.715 203.4 384.942 203.173 383.155 203.12C381.395 203.093 379.635 203.147 377.875 203.28C376.115 203.413 374.355 203.587 372.595 203.8C370.835 204.013 369.075 204.187 367.315 204.32C365.555 204.453 363.782 204.493 361.995 204.44C360.235 204.413 358.475 204.2 356.715 203.8V188.76C357.809 188.947 358.889 189.093 359.955 189.2C361.049 189.307 362.155 189.373 363.275 189.4V198.44C365.382 198.467 367.475 198.36 369.555 198.12C371.662 197.88 373.769 197.653 375.875 197.44C377.982 197.253 380.075 197.147 382.155 197.12C384.262 197.093 386.369 197.32 388.475 197.8V203.8ZM378.115 173C379.315 172.973 380.555 172.973 381.835 173V165.32C382.955 165.293 384.062 165.333 385.155 165.44C386.249 165.52 387.355 165.653 388.475 165.84V193.48C387.355 193.267 386.249 193.12 385.155 193.04C384.062 192.933 382.955 192.867 381.835 192.84V178.96C381.222 178.933 380.595 178.933 379.955 178.96C379.342 178.96 378.729 178.973 378.115 179V173ZM418.622 202.08C417.049 202.08 415.769 201.813 414.782 201.28C413.822 200.773 412.995 200.013 412.302 199C411.769 200.04 410.942 200.893 409.822 201.56C408.729 202.227 407.355 202.587 405.702 202.64C404.929 202.667 404.182 202.64 403.462 202.56C402.742 202.507 402.022 202.373 401.302 202.16V196.24C401.835 196.373 402.315 196.453 402.742 196.48C403.169 196.507 403.689 196.52 404.302 196.52C405.689 196.52 406.782 196.107 407.582 195.28C408.409 194.427 408.822 192.973 408.822 190.92V165.96C409.942 165.987 411.049 165.947 412.142 165.84C413.262 165.707 414.382 165.52 415.502 165.28V190.64C415.502 191.467 415.555 192.213 415.662 192.88C415.769 193.547 415.969 194.107 416.262 194.56C416.582 195.013 417.009 195.373 417.542 195.64C418.102 195.88 418.822 196 419.702 196C420.369 196 420.955 195.96 421.462 195.88C421.969 195.773 422.529 195.613 423.142 195.4V201.32C422.369 201.613 421.609 201.813 420.862 201.92C420.142 202.027 419.395 202.08 418.622 202.08ZM424.662 165.28C425.782 165.2 426.889 165.173 427.982 165.2C429.075 165.2 430.182 165.24 431.302 165.32V179.48C432.075 179.533 432.835 179.6 433.582 179.68C434.329 179.733 435.089 179.813 435.862 179.92V186C435.089 185.893 434.329 185.8 433.582 185.72C432.835 185.64 432.075 185.573 431.302 185.52V201.72C430.182 201.64 429.075 201.587 427.982 201.56C426.889 201.56 425.782 201.587 424.662 201.64V165.28ZM466.318 203.28C463.864 203.067 461.411 203.067 458.957 203.28C456.504 203.52 454.051 203.76 451.598 204C449.171 204.267 446.731 204.427 444.278 204.48C441.851 204.56 439.411 204.333 436.958 203.8V188.96C439.411 189.493 441.851 189.733 444.278 189.68C446.731 189.6 449.184 189.44 451.638 189.2C454.091 188.96 456.531 188.733 458.957 188.52C461.411 188.28 463.864 188.267 466.318 188.48V203.28ZM457.678 187C454.211 187.48 450.758 187.813 447.318 188C443.878 188.187 440.424 187.987 436.958 187.4V173.44C439.224 173.787 441.518 173.987 443.838 174.04C446.158 174.093 448.464 174.013 450.758 173.8V171.84C448.464 172.053 446.158 172.133 443.838 172.08C441.518 172.027 439.224 171.827 436.958 171.48V165.8C440.371 166.333 443.758 166.52 447.118 166.36C450.504 166.2 453.891 165.893 457.278 165.44V178.92C454.984 179.187 452.678 179.453 450.358 179.72C448.038 179.987 445.718 180.053 443.398 179.92V182.12C445.798 182.253 448.184 182.213 450.558 182C452.931 181.787 455.304 181.507 457.678 181.16V187ZM459.678 165.28C460.798 165.2 461.904 165.173 462.998 165.2C464.091 165.2 465.198 165.24 466.318 165.32V173.16C467.091 173.213 467.851 173.28 468.598 173.36C469.344 173.413 470.104 173.493 470.878 173.6V179.68C470.104 179.573 469.344 179.48 468.598 179.4C467.851 179.32 467.091 179.253 466.318 179.2V186.88C465.198 186.8 464.091 186.76 462.998 186.76C461.904 186.733 460.798 186.747 459.678 186.8V165.28ZM443.518 198.32C444.878 198.4 446.224 198.4 447.558 198.32C448.918 198.24 450.264 198.12 451.598 197.96C452.958 197.8 454.304 197.627 455.637 197.44C456.971 197.28 458.318 197.16 459.678 197.08V194.44C458.318 194.52 456.971 194.653 455.637 194.84C454.304 195 452.958 195.16 451.598 195.32C450.264 195.48 448.918 195.6 447.558 195.68C446.224 195.76 444.878 195.76 443.518 195.68V198.32ZM30.0909 258.32C27.4243 258.107 24.8509 258.107 22.3709 258.32C19.9176 258.56 17.4909 258.8 15.0909 259.04C12.6909 259.307 10.3043 259.467 7.93094 259.52C5.58427 259.573 3.18427 259.333 0.730938 258.8V246.48C2.62427 246.88 4.53094 247.12 6.45094 247.2C8.37094 247.253 10.2909 247.227 12.2109 247.12C14.1309 247.013 16.0376 246.853 17.9309 246.64C19.8509 246.427 21.7576 246.227 23.6509 246.04V245.04C21.7576 245.2 19.8509 245.387 17.9309 245.6C16.0376 245.813 14.1309 245.987 12.2109 246.12C10.2909 246.227 8.37094 246.267 6.45094 246.24C4.53094 246.187 2.62427 245.973 0.730938 245.6V240C3.18427 240.533 5.62427 240.773 8.05094 240.72C10.5043 240.64 12.9576 240.48 15.4109 240.24C17.8643 240 20.3043 239.773 22.7309 239.56C25.1843 239.32 27.6376 239.307 30.0909 239.52V251.72C28.1709 251.507 26.2509 251.467 24.3309 251.6C22.4109 251.733 20.4909 251.907 18.5709 252.12C16.6509 252.36 14.7309 252.573 12.8109 252.76C10.9176 252.947 9.01094 252.973 7.09094 252.84V253.84C9.01094 253.973 10.9176 253.947 12.8109 253.76C14.7309 253.6 16.6509 253.4 18.5709 253.16C20.4909 252.947 22.4109 252.773 24.3309 252.64C26.2509 252.507 28.1709 252.533 30.0909 252.72V258.32ZM20.6509 230.12C20.6509 231.667 20.3576 233.013 19.7709 234.16C19.2109 235.307 18.4376 236.253 17.4509 237C16.4909 237.747 15.3576 238.307 14.0509 238.68C12.7709 239.027 11.3976 239.2 9.93094 239.2C8.5976 239.2 7.34427 239.053 6.17094 238.76C5.02427 238.467 4.01094 238.013 3.13094 237.4C2.2776 236.76 1.5976 235.973 1.09094 235.04C0.584271 234.08 0.330938 232.947 0.330938 231.64V229.28C0.330938 227.76 0.624271 226.44 1.21094 225.32C1.82427 224.2 2.6376 223.28 3.65094 222.56C4.66427 221.813 5.82427 221.267 7.13094 220.92C8.46427 220.547 9.85094 220.36 11.2909 220.36C14.1709 220.36 16.4509 221 18.1309 222.28C19.8109 223.533 20.6509 225.36 20.6509 227.76V230.12ZM23.4509 220.28C24.5709 220.2 25.6776 220.173 26.7709 220.2C27.8643 220.2 28.9709 220.24 30.0909 220.32V226.16C30.8643 226.213 31.6243 226.28 32.3709 226.36C33.1176 226.413 33.8776 226.493 34.6509 226.6V232.68C33.8776 232.573 33.1176 232.48 32.3709 232.4C31.6243 232.32 30.8643 232.253 30.0909 232.2V237.92C28.9709 237.84 27.8643 237.8 26.7709 237.8C25.6776 237.773 24.5709 237.787 23.4509 237.84V220.28ZM14.2109 229.16C14.2109 227.133 13.0776 226.12 10.8109 226.12C9.3976 226.12 8.3576 226.467 7.69094 227.16C7.02427 227.827 6.69094 228.653 6.69094 229.64V230.76C6.69094 231.693 6.98427 232.387 7.57094 232.84C8.1576 233.267 8.9576 233.48 9.97094 233.48C11.4376 233.48 12.5043 233.16 13.1709 232.52C13.8643 231.88 14.2109 231.053 14.2109 230.04V229.16ZM60.1866 226.16C58.2932 226.187 56.3999 226.307 54.5066 226.52C52.6399 226.707 50.7599 226.893 48.8666 227.08C46.9732 227.267 45.0799 227.387 43.1866 227.44C41.3199 227.467 39.4399 227.32 37.5466 227V221.08C39.9999 221.453 42.4399 221.573 44.8666 221.44C47.3199 221.28 49.7599 221.08 52.1866 220.84C54.6132 220.573 57.0399 220.373 59.4666 220.24C61.9199 220.08 64.3732 220.187 66.8266 220.56V246.96C65.7066 246.827 64.5999 246.733 63.5066 246.68C62.4132 246.6 61.3066 246.573 60.1866 246.6V226.16ZM35.6266 251.08C37.4399 251.453 39.2399 251.667 41.0266 251.72C42.8399 251.773 44.6532 251.747 46.4666 251.64V235.48C47.5866 235.427 48.6932 235.333 49.7866 235.2C50.8799 235.04 51.9866 234.893 53.1066 234.76V251.04C55.7199 250.8 58.3332 250.64 60.9466 250.56C63.5866 250.453 66.2132 250.653 68.8266 251.16V257.24C66.9866 256.867 65.1332 256.653 63.2666 256.6C61.4266 256.547 59.5866 256.573 57.7466 256.68C55.9066 256.813 54.0666 256.973 52.2266 257.16C50.3866 257.373 48.5466 257.547 46.7066 257.68C44.8666 257.813 43.0132 257.853 41.1466 257.8C39.3066 257.747 37.4666 257.533 35.6266 257.16V251.08ZM105.613 220.24C106.733 220.24 107.8 220.267 108.813 220.32C109.853 220.347 110.933 220.427 112.053 220.56V246.4C110.133 246.107 108.24 245.987 106.373 246.04C104.506 246.067 102.626 246.16 100.733 246.32V250.84C102.973 250.627 105.186 250.52 107.373 250.52C109.586 250.493 111.813 250.707 114.053 251.16V257.24C112.213 256.867 110.36 256.653 108.493 256.6C106.653 256.547 104.813 256.573 102.973 256.68C101.133 256.813 99.2931 256.973 97.4531 257.16C95.6131 257.373 93.7731 257.547 91.9331 257.68C90.0931 257.813 88.2398 257.853 86.3731 257.8C84.5331 257.747 82.6931 257.533 80.8531 257.16V251.08C83.0665 251.533 85.2665 251.76 87.4531 251.76C89.6665 251.76 91.8798 251.653 94.0931 251.44V246.96C92.1998 247.147 90.3065 247.253 88.4131 247.28C86.5465 247.307 84.6665 247.173 82.7731 246.88V221.04C83.8931 221.173 84.9598 221.267 85.9731 221.32C86.9865 221.373 88.0531 221.4 89.1731 221.4V229C90.5598 229 91.9331 228.933 93.2931 228.8C94.6798 228.667 96.0398 228.533 97.3731 228.4C98.7331 228.24 100.093 228.093 101.453 227.96C102.813 227.827 104.2 227.76 105.613 227.76V220.24ZM105.613 233.6C104.2 233.6 102.813 233.667 101.453 233.8C100.093 233.907 98.7331 234.04 97.3731 234.2C96.0398 234.36 94.6798 234.507 93.2931 234.64C91.9331 234.773 90.5598 234.84 89.1731 234.84V241.16C90.5331 241.187 91.8931 241.133 93.2531 241C94.6398 240.84 96.0131 240.68 97.3731 240.52C98.7598 240.36 100.133 240.213 101.493 240.08C102.88 239.947 104.253 239.893 105.613 239.92V233.6ZM141.109 220.32C142.229 220.293 143.335 220.333 144.429 220.44C145.522 220.52 146.629 220.653 147.749 220.84V257.28C146.629 257.067 145.522 256.907 144.429 256.8C143.335 256.72 142.229 256.667 141.109 256.64V220.32ZM122.709 251.72C125.055 251.853 127.335 251.84 129.549 251.68C131.789 251.52 134.055 251.253 136.349 250.88V256.8C132.962 257.307 129.575 257.64 126.189 257.8C122.802 257.96 119.402 257.76 115.989 257.2V220.8C117.082 220.96 118.189 221.093 119.309 221.2C120.455 221.28 121.589 221.333 122.709 221.36V251.72ZM161.095 251.08C163.869 251.64 166.629 251.853 169.375 251.72C172.149 251.613 174.922 251.413 177.695 251.12C180.469 250.853 183.229 250.653 185.975 250.52C188.749 250.387 191.522 250.6 194.295 251.16V257.24C192.455 256.867 190.602 256.653 188.735 256.6C186.895 256.547 185.055 256.573 183.215 256.68C181.375 256.813 179.535 256.973 177.695 257.16C175.855 257.373 174.015 257.547 172.175 257.68C170.335 257.813 168.482 257.853 166.615 257.8C164.775 257.747 162.935 257.533 161.095 257.16V251.08ZM185.655 226.16C183.762 226.187 181.869 226.307 179.975 226.52C178.109 226.707 176.229 226.893 174.335 227.08C172.442 227.267 170.549 227.387 168.655 227.44C166.789 227.467 164.909 227.32 163.015 227V221.08C165.469 221.453 167.909 221.573 170.335 221.44C172.789 221.28 175.229 221.08 177.655 220.84C180.082 220.573 182.509 220.373 184.935 220.24C187.389 220.08 189.842 220.187 192.295 220.56V246.96C191.175 246.827 190.069 246.733 188.975 246.68C187.882 246.6 186.775 246.573 185.655 246.6V226.16ZM213.871 240.68C213.578 240.733 213.284 240.773 212.991 240.8C212.724 240.827 212.444 240.867 212.151 240.92V257.2C211.031 257.387 209.951 257.533 208.911 257.64C207.871 257.747 206.791 257.813 205.671 257.84V227.24C204.124 227.267 202.538 227.227 200.911 227.12C199.311 227.013 197.751 226.84 196.231 226.6V220.8C197.724 221.013 199.111 221.173 200.391 221.28C201.698 221.36 202.964 221.4 204.191 221.4C205.444 221.4 206.711 221.36 207.991 221.28C209.271 221.173 210.658 221.013 212.151 220.8V234.84C212.444 234.787 212.724 234.747 212.991 234.72C213.284 234.693 213.578 234.653 213.871 234.6V220.6C214.991 220.467 216.044 220.373 217.031 220.32C218.044 220.24 219.111 220.227 220.231 220.28V256.6C219.111 256.573 218.044 256.587 217.031 256.64C216.044 256.693 214.991 256.813 213.871 257V240.68ZM221.631 220.28C222.751 220.253 223.804 220.293 224.791 220.4C225.804 220.48 226.871 220.613 227.991 220.8V257.28C226.871 257.067 225.804 256.907 224.791 256.8C223.804 256.72 222.751 256.667 221.631 256.64V220.28ZM248.178 251.72C250.524 251.853 252.804 251.84 255.018 251.68C257.258 251.52 259.524 251.253 261.818 250.88V256.8C258.431 257.307 255.044 257.64 251.658 257.8C248.271 257.96 244.871 257.76 241.458 257.2V220.8C242.551 220.96 243.658 221.093 244.778 221.2C245.924 221.28 247.058 221.333 248.178 221.36V251.72ZM264.178 220.28C265.298 220.2 266.404 220.173 267.498 220.2C268.591 220.2 269.698 220.24 270.818 220.32V234.48C271.591 234.533 272.351 234.6 273.098 234.68C273.844 234.733 274.604 234.813 275.378 234.92V241C274.604 240.893 273.844 240.8 273.098 240.72C272.351 240.64 271.591 240.573 270.818 240.52V256.72C269.698 256.64 268.591 256.587 267.498 256.56C266.404 256.56 265.298 256.587 264.178 256.64V220.28ZM301.593 238.28C300.473 238.173 299.406 238.16 298.393 238.24C297.38 238.32 296.3 238.48 295.153 238.72C294.246 240.267 292.953 241.4 291.273 242.12C289.593 242.84 287.726 243.2 285.673 243.2C284.34 243.2 283.086 243.053 281.913 242.76C280.766 242.467 279.753 242.013 278.873 241.4C278.02 240.76 277.34 239.973 276.833 239.04C276.326 238.08 276.073 236.947 276.073 235.64V229.28C276.073 227.76 276.366 226.44 276.953 225.32C277.566 224.2 278.38 223.28 279.393 222.56C280.406 221.813 281.566 221.267 282.873 220.92C284.206 220.547 285.593 220.36 287.033 220.36C289.113 220.36 290.873 220.693 292.313 221.36C293.78 222 294.86 222.96 295.553 224.24C296.62 224.027 297.633 223.893 298.593 223.84C299.553 223.76 300.553 223.773 301.593 223.88V220.32C302.713 220.293 303.82 220.333 304.913 220.44C306.006 220.52 307.113 220.653 308.233 220.84V242.48C307.113 242.267 306.006 242.12 304.913 242.04C303.82 241.933 302.713 241.867 301.593 241.84V238.28ZM292.953 258.64C291.273 258.64 289.873 258.307 288.753 257.64C287.66 257 286.806 256.147 286.193 255.08C285.5 256.36 284.606 257.307 283.513 257.92C282.446 258.533 281.193 258.84 279.753 258.84C279.22 258.84 278.726 258.8 278.273 258.72C277.82 258.667 277.393 258.56 276.993 258.4V252.36C277.446 252.573 277.833 252.707 278.153 252.76C278.473 252.813 278.873 252.827 279.353 252.8C280.073 252.773 280.66 252.613 281.113 252.32C281.566 252.027 281.913 251.64 282.153 251.16C282.42 250.707 282.606 250.2 282.713 249.64C282.82 249.053 282.873 248.467 282.873 247.88V244.52C283.993 244.68 285.1 244.76 286.193 244.76C287.313 244.76 288.433 244.64 289.553 244.4V247.68C289.553 248.4 289.62 249.08 289.753 249.72C289.913 250.36 290.126 250.92 290.393 251.4C290.686 251.88 291.046 252.253 291.473 252.52C291.9 252.813 292.393 252.96 292.953 252.96C293.54 252.96 294.046 252.8 294.473 252.48C294.9 252.16 295.246 251.72 295.513 251.16C295.78 250.627 295.98 249.987 296.113 249.24C296.246 248.493 296.313 247.68 296.313 246.8V243.56C297.433 243.347 298.526 243.227 299.593 243.2C300.686 243.147 301.793 243.2 302.913 243.36V246.68C302.913 247.453 302.98 248.2 303.113 248.92C303.273 249.64 303.513 250.28 303.833 250.84C304.153 251.373 304.553 251.8 305.033 252.12C305.513 252.44 306.1 252.6 306.793 252.6C307.166 252.6 307.513 252.573 307.833 252.52C308.153 252.467 308.513 252.413 308.913 252.36V258.36C308.54 258.467 308.153 258.533 307.753 258.56C307.38 258.587 307.006 258.6 306.633 258.6C305.033 258.6 303.646 258.32 302.473 257.76C301.326 257.227 300.38 256.32 299.633 255.04C299.02 256.16 298.153 257.04 297.033 257.68C295.913 258.32 294.553 258.64 292.953 258.64ZM289.953 229.48C289.953 228.36 289.7 227.533 289.193 227C288.713 226.44 287.873 226.16 286.673 226.16C285.206 226.16 284.126 226.547 283.433 227.32C282.766 228.067 282.433 229.08 282.433 230.36V234.04C282.433 235.32 282.7 236.213 283.233 236.72C283.793 237.227 284.606 237.48 285.673 237.48C287.193 237.48 288.286 237.12 288.953 236.4C289.62 235.653 289.953 234.533 289.953 233.04V229.48ZM301.593 229.52C300.686 229.44 299.806 229.427 298.953 229.48C298.126 229.507 297.273 229.587 296.393 229.72V232.84C297.273 232.707 298.126 232.627 298.953 232.6C299.806 232.547 300.686 232.56 301.593 232.64V229.52ZM317.969 251.76C319.489 251.84 321.075 251.813 322.729 251.68C324.382 251.547 325.955 251.36 327.449 251.12V257.16C324.702 257.587 322.035 257.813 319.449 257.84C316.889 257.867 314.235 257.64 311.489 257.16V220.8C312.582 220.96 313.649 221.093 314.689 221.2C315.755 221.28 316.849 221.333 317.969 221.36V251.76ZM329.129 240.48C328.195 240.56 327.275 240.667 326.369 240.8C325.462 240.907 324.582 241.053 323.729 241.24V235.16C324.582 234.973 325.462 234.827 326.369 234.72C327.275 234.587 328.195 234.48 329.129 234.4V220.6C330.249 220.467 331.302 220.373 332.289 220.32C333.302 220.24 334.369 220.227 335.489 220.28V256.6C334.369 256.573 333.302 256.587 332.289 256.64C331.302 256.693 330.249 256.813 329.129 257V240.48ZM336.889 220.28C338.009 220.253 339.062 220.293 340.049 220.4C341.062 220.48 342.129 220.613 343.249 220.8V257.28C342.129 257.067 341.062 256.907 340.049 256.8C339.062 256.72 338.009 256.667 336.889 256.64V220.28Z" fill="#EFEFEF" fill-opacity="0.77"/>
</svg>
